<svg width="160" height="54" viewBox="0 0 160 54" fill="none" xmlns="http://www.w3.org/2000/svg">
<path d="M66.3145 53.6082H49.4844V52.201C55.8798 52.201 56.4857 51.2629 56.4857 47.1753V6.43299C56.4857 2.34536 55.8798 1.40721 49.4844 1.40721V0H66.9877C75.9413 0 82.4714 4.22165 82.4714 13.268C82.4714 20.6392 77.759 25.1289 71.4982 25.933V26.134C79.3747 26.6701 85.0969 31.9639 85.0969 39.268C85.0969 50.0567 76.1433 53.6082 66.3145 53.6082ZM60.5922 4.42268V24.7268C62.5445 24.9948 64.5642 24.9948 66.5838 24.9948C72.306 24.9948 78.2302 21.5103 78.2302 13.3351C78.2302 5.36082 72.306 2.27835 66.5838 2.27835C65.0354 2.27835 63.487 2.34536 62.0733 2.6134C61.0635 2.81443 60.5922 3.41753 60.5922 4.42268ZM60.5922 27.5412V49.1856C60.5922 50.9278 62.4772 51.3299 66.0452 51.3299C72.9792 51.3299 80.7211 48.9845 80.7211 39.3351C80.7211 29.7526 71.7001 27.2732 66.5838 27.2732C64.4968 27.2732 62.5445 27.2732 60.5922 27.5412Z" fill="white"/>
<path d="M120.972 0L121.106 1.3402L122.116 12.732L120.433 12.866C119.558 3.35051 118.414 2.34536 113.499 2.34536H100.91C99.0254 2.34536 98.0156 3.35051 98.0156 5.15979V26H108.518C112.624 26 113.567 25.3969 113.567 18.2938H114.98V35.8505H113.567C113.567 28.7474 112.624 28.1443 108.518 28.1443H98.0156V47.1753C98.0156 51.2629 98.6215 52.201 105.219 52.201V53.6082H86.9077V52.201C93.3031 52.201 93.909 51.2629 93.909 47.1753V6.43299C93.909 2.34536 93.3031 1.40721 86.9077 1.40721V0H120.972Z" fill="white"/>
<path d="M158.855 0L158.99 1.3402L160 12.732L158.317 12.866C157.442 3.35051 156.297 2.34536 151.383 2.34536H138.794C136.909 2.34536 135.899 3.35051 135.899 5.15979V26H146.401C150.508 26 151.45 25.3969 151.45 18.2938H152.864V35.8505H151.45C151.45 28.7474 150.508 28.1443 146.401 28.1443H135.899V47.1753C135.899 51.2629 136.505 52.201 143.102 52.201V53.6082H124.791V52.201C131.187 52.201 131.793 51.2629 131.793 47.1753V6.43299C131.793 2.34536 131.187 1.40721 124.791 1.40721V0H158.855Z" fill="white"/>
<path d="M13.2265 25.4546C13.2265 27.8735 12.6778 29.8194 11.5804 31.2922C10.483 32.7552 9.01016 33.4867 7.16192 33.4867C5.18854 33.4867 3.66278 32.7796 2.58465 31.3653L2.45469 33.1941H0V10.7217H2.67128V19.105C3.74942 17.7492 5.23667 17.0713 7.13304 17.0713C9.02941 17.0713 10.5167 17.798 11.5948 19.2513C12.6826 20.7046 13.2265 22.6943 13.2265 25.2205V25.4546ZM10.5552 25.1474C10.5552 23.3039 10.2038 21.8799 9.5011 20.8752C8.79838 19.8706 7.78763 19.3683 6.46883 19.3683C4.70723 19.3683 3.44138 20.1974 2.67128 21.8555V28.7026C3.48951 30.3607 4.76499 31.1897 6.49771 31.1897C7.778 31.1897 8.77432 30.6874 9.48666 29.6828C10.199 28.6782 10.5552 27.1664 10.5552 25.1474Z" fill="white"/>
<path d="M21.5435 29.2293L25.1822 17.3639H28.0412L21.7601 35.6374C20.7879 38.2709 19.2429 39.5877 17.1251 39.5877L16.6197 39.5438L15.6234 39.3536V37.159L16.3454 37.2175C17.2502 37.2175 17.9529 37.0322 18.4535 36.6616C18.9637 36.2909 19.3824 35.613 19.7097 34.6279L20.3017 33.0186L14.7281 17.3639H17.6449L21.5435 29.2293Z" fill="white"/>
</svg>
