<svg width="110" height="181" viewBox="0 0 110 181" fill="none" xmlns="http://www.w3.org/2000/svg">
<path fill-rule="evenodd" clip-rule="evenodd" d="M22.8247 0.149458C19.868 0.451688 16.3329 1.27222 14.744 2.025C13.1476 2.78139 9.2865 5.71096 7.84337 7.26092C5.65498 9.61167 4.68662 11.774 3.66727 16.5857C3.45652 17.5805 3.15776 18.9124 3.00286 19.5455C2.35599 22.1932 1.71691 27.7715 1.71691 30.7688C1.71691 33.8996 2.07704 35.9221 3.17335 38.9487C3.72118 40.4612 3.66337 42.9468 3.00871 46.0194C2.72749 47.3388 2.2248 50.9271 1.71821 55.2277C0.608585 64.6524 0.355941 68.5818 0.11174 80.2217C-0.148374 92.6145 0.0396481 99.2642 0.738804 102.42C1.06516 103.893 1.50648 119.176 1.89259 142.378C2.00398 149.07 2.22512 155.656 2.38392 157.013C2.79146 160.497 4.08488 164.443 5.59393 166.808C6.9903 168.996 10.1162 171.706 12.0289 172.388C13.3795 172.869 17.8728 173.567 23.1495 174.115C25.2034 174.328 27.9591 174.711 29.273 174.966C30.5869 175.221 32.8084 175.429 34.2093 175.429C35.6102 175.429 37.4577 175.567 38.315 175.736C40.4108 176.149 46.2804 176.976 50.2649 177.421C52.051 177.62 54.316 177.924 55.2983 178.097C56.2807 178.27 58.1804 178.565 59.5199 178.751C64.8852 179.5 65.9708 179.683 68.9142 180.339C75.657 181.839 80.7606 180.889 89.8827 176.434C94.3848 174.235 97.4659 172.003 99.189 169.692C100.54 167.88 103.783 160.619 104.354 158.128C104.61 157.012 104.663 153.601 104.526 146.982C104.412 141.432 104.468 135.795 104.66 133.498C104.842 131.328 105.129 126.592 105.298 122.975C105.468 119.357 105.751 114.917 105.929 113.109C106.106 111.3 106.407 107.23 106.598 104.065C107.076 96.1284 107.503 92.2175 108.718 84.6614C109.972 76.8597 110.38 63.2521 109.566 56.3275C109.183 53.0674 109.182 51.7391 109.562 47.448C110.126 41.0597 110.15 30.3281 109.607 27.2739C109.381 26.0077 108.988 22.9253 108.732 20.4239C108.165 14.8765 107.783 14.0238 104.871 11.8092C101.489 9.23742 99.6511 8.3748 96.3846 7.8269C94.7732 7.5569 92.7972 7.13365 91.9935 6.88667C90.5406 6.44039 88.5023 6.0964 83.2256 5.40742C81.7075 5.20944 79.2232 4.83453 77.7051 4.57439C76.187 4.31458 73.4858 3.86403 71.702 3.57331C69.9186 3.28292 68.3806 2.99582 68.2839 2.93531C67.7003 2.56993 52.4913 0.91705 45.7186 0.482943C38.6754 0.0317354 25.8117 -0.155732 22.8247 0.149458ZM23.1495 9.01576C20.6331 9.22328 17.4932 10.2079 16.9909 10.9472C16.8954 11.0876 16.1595 11.6602 15.3558 12.2196C13.2181 13.7071 11.6158 15.582 11.2031 17.079C10.4562 19.7888 9.43036 25.7594 8.53116 32.6298C8.33502 34.1288 7.9684 35.9465 7.71673 36.6693C7.20819 38.1285 6.8013 41.2554 6.28562 47.6637C6.09662 50.0151 5.72707 54.6029 5.46469 57.8587C5.10001 62.3819 5.01882 67.6797 5.12014 80.3155C5.19288 89.411 5.33122 97.1065 5.42767 97.4166C5.52411 97.7267 5.80468 100.274 6.05083 103.078C6.41129 107.184 6.44733 112.459 6.23496 130.21C5.96705 152.633 6.06253 155.729 7.14455 159.643C7.87488 162.286 8.62826 163.618 10.248 165.13C12.4787 167.212 12.7121 167.29 18.4457 167.859C20.2291 168.036 23.8801 168.416 26.5592 168.703C29.2383 168.991 33.6222 169.353 36.3013 169.509C38.9803 169.665 41.6828 169.951 42.3066 170.144C42.9308 170.338 44.0998 170.495 44.9045 170.494C46.6149 170.492 51.696 170.983 56.7596 171.638C58.7243 171.893 61.6469 172.27 63.2544 172.476C65.9516 172.823 67.4711 173.114 71.6209 174.082C75.2728 174.933 79.924 174.084 85.6611 171.519C89.039 170.008 91.6022 168.692 92.591 167.96C95.6851 165.67 96.521 164.527 98.3307 160.109L99.5322 157.177L99.3319 152.079C98.7876 138.228 98.749 134.245 99.1156 129.716C99.3277 127.094 99.6348 121.396 99.7979 117.055C100.384 101.466 101.628 86.6021 102.561 84.0327C102.999 82.826 103.715 72.6656 103.756 67.067C103.789 62.5572 103.676 60.4067 103.351 59.3386C102.761 57.3996 102.745 44.922 103.324 39.4059C103.691 35.9195 103.677 35.0007 103.211 32.0313C102.918 30.166 102.601 28.5124 102.506 28.3575C102.412 28.2023 102.207 26.2629 102.052 24.0477C101.897 21.8324 101.676 19.7724 101.562 19.4695C101.447 19.1666 100.638 18.454 99.7631 17.8857C98.494 17.0609 97.5332 16.7603 95.0022 16.3969C93.258 16.1466 90.5159 15.6451 88.9085 15.2827C87.301 14.9203 85.4134 14.6213 84.7136 14.618C84.0137 14.6151 82.5524 14.473 81.4662 14.3026C80.38 14.1323 77.8106 13.7525 75.7567 13.4581C73.7027 13.1638 70.2687 12.6405 68.1254 12.2952C59.9823 10.983 49.0309 9.98954 35.6908 9.35252C31.7829 9.16605 27.9835 8.96282 27.2476 8.90067C26.5118 8.83884 24.6676 8.89046 23.1495 9.01576ZM62.2801 39.9475C61.2085 40.1139 59.6368 40.4161 58.7873 40.619C56.6979 41.1189 56.4982 41.9388 57.8361 44.524C58.3827 45.58 58.7616 46.5134 58.6779 46.5979C58.359 46.9211 57.5254 52.5432 56.7161 59.8319C56.4352 62.3642 56.1326 64.9816 56.0442 65.6489C55.9559 66.3158 56.1316 67.8635 56.4346 69.0879C57.3903 72.9462 59.1406 75.6133 61.2459 76.4187C62.3659 76.8472 67.1291 76.863 70.9961 76.4509C73.6316 76.1704 74.0093 76.0362 75.6076 74.8141C77.2352 73.5697 77.5827 73.0554 78.842 70.0268C79.66 68.0595 79.9237 66.6753 80.1273 63.285C80.2413 61.3858 80.4959 57.982 80.6933 55.721C80.8904 53.4601 81.0661 50.1036 81.0833 48.2626C81.1103 45.3932 81.0219 44.7911 80.4654 44.0465C79.5213 42.784 77.8714 42.0319 75.1072 41.6037C73.7677 41.3962 71.7949 40.9262 70.7233 40.5595C68.4271 39.7732 65.0037 39.5252 62.2801 39.9475ZM33.9979 42.3084C32.7214 43.4434 30.6749 46.1575 30.0842 47.4993C28.4027 51.3171 27.8893 53.8757 28.0962 57.4075C28.4362 63.2103 32.1973 70.9874 35.0088 71.7021C36.3575 72.0451 36.552 71.632 36.3993 68.7501C36.2873 66.6352 36.0892 65.8071 35.4466 64.7649C32.7191 60.3429 31.6913 54.9531 32.6866 50.2947C33.3306 47.2803 35.7677 43.0096 36.6488 43.3516C37.2076 43.569 37.7301 42.6758 37.52 41.8618C37.2531 40.8282 35.3982 41.0633 33.9979 42.3084ZM42.6232 46.2595C40.1754 47.9212 37.4379 53.7629 37.4379 57.3246C37.4379 60.3439 39.2544 64.8376 41.1437 66.4915C41.6805 66.9614 42.4131 67.2314 43.1509 67.2314H44.3128L44.0771 64.6843C43.9475 63.2837 43.5715 61.4996 43.2412 60.7198C42.9113 59.9401 42.4073 58.4865 42.1209 57.489C41.638 55.8075 41.6412 55.5046 42.1634 53.314C42.9304 50.0967 43.8712 48.16 44.973 47.5322C45.5835 47.1842 45.866 46.7834 45.8073 46.3483C45.6741 45.3613 44.0144 45.3153 42.6232 46.2595ZM63.4167 46.143L60.9812 46.6771L60.7023 49.7382C60.5487 51.4217 60.4902 52.8668 60.5717 52.9493C60.6535 53.0322 62.2402 52.9069 64.098 52.6711L67.4759 52.2422L67.6873 50.4463C67.8036 49.4584 67.9133 47.9472 67.9309 47.0882C67.963 45.5304 67.9601 45.5261 66.9076 45.5675C66.327 45.5902 64.7563 45.8494 63.4167 46.143ZM69.3766 48.3711C69.4922 49.755 69.5867 51.2349 69.5867 51.6598C69.5867 52.3909 69.6994 52.4323 71.6822 52.4323C72.8347 52.4323 74.1642 52.6106 74.6367 52.8286C75.3858 53.1743 75.4722 53.3683 75.315 54.3493C75.0449 56.0357 74.2775 56.7076 72.6214 56.7076H71.2104V59.1482V61.5884L72.1846 61.7791C75.3173 62.3918 74.9987 62.5 75.2105 60.7527C75.3154 59.8845 75.4933 57.7682 75.6054 56.0499C75.7177 54.3316 76.0168 51.8588 76.2701 50.5552C76.9352 47.1336 76.9014 46.8416 75.8379 46.8416C75.3469 46.8416 73.7995 46.6196 72.3996 46.3483C70.9996 46.0769 69.6997 45.855 69.5104 45.855C69.2802 45.855 69.236 46.686 69.3766 48.3711ZM47.3416 52.2179C45.5527 52.7395 45.2315 53.0023 45.2315 53.9448C45.2315 54.9446 46.2307 56.9898 47.115 57.7995C47.8882 58.5079 49.7583 58.4418 50.1006 57.6942C50.2247 57.4229 50.4952 56.8701 50.7017 56.4656C50.9079 56.0611 51.0768 55.0728 51.0768 54.2697C51.0768 52.9598 50.9712 52.7559 50.0525 52.2919C49.4895 52.0074 48.9413 51.7891 48.8348 51.8068C48.7283 51.8246 48.0564 52.0098 47.3416 52.2179ZM60.8185 58.9627C60.8188 61.6334 60.8867 62.0136 61.3326 61.8403C61.6151 61.7304 62.3091 61.6407 62.8751 61.6407H63.9038V58.8716V56.1022L62.361 55.994L60.8185 55.8855V58.9627ZM65.5681 57.0776C65.4564 57.6429 65.3651 58.9009 65.3651 59.873V61.6407H67.6237H69.8819L70.0436 60.5718C70.1323 59.9838 70.2654 58.8147 70.3394 57.9731C70.4693 56.4972 70.4398 56.4363 69.5026 56.2466C68.9684 56.1384 67.9101 56.0499 67.1512 56.0499C65.8652 56.0499 65.7571 56.1199 65.5681 57.0776ZM60.8331 65.9534C60.852 66.9802 61.5397 69.5006 62.057 70.4379C62.4078 71.0733 62.7328 71.1778 64.3575 71.1778H66.2497L66.6193 69.3141C66.8226 68.2891 66.9888 67.0311 66.9888 66.5188C66.9888 65.6236 66.9271 65.5871 65.4106 65.5871C64.5423 65.5871 63.154 65.493 62.3256 65.3779C60.8939 65.1793 60.8195 65.2079 60.8331 65.9534ZM69.26 67.1492C69.259 67.6468 69.1025 68.6225 68.9119 69.3178C68.7213 70.013 68.6356 70.653 68.7213 70.7401C68.8073 70.827 69.5731 70.7927 70.4226 70.6638C72.0768 70.4126 73.9099 68.9981 74.2775 67.6895C74.4516 67.0693 74.2775 66.9568 72.6246 66.6207C69.6991 66.0255 69.2623 66.0942 69.26 67.1492ZM32.8916 138.074C32.8916 138.871 32.6824 141.202 32.4265 143.253C32.171 145.304 31.7956 148.536 31.5926 150.435C31.3897 152.334 30.9948 155.316 30.7148 157.061C30.1949 160.303 30.3067 161.946 31.0467 161.946C31.7803 161.946 32.2421 161.188 32.2401 159.989C32.2392 159.347 32.3846 157.341 32.5632 155.533C34.0109 140.877 34.1944 136.623 33.3787 136.623C33.0192 136.623 32.8916 137.003 32.8916 138.074ZM18.6883 139.045C17.4172 139.893 16.748 141.221 16.3115 143.759C15.8124 146.662 14.9726 150.562 14.7726 150.907C14.34 151.651 14.1007 149.578 14.0796 144.903C14.0588 140.288 14.0091 139.872 13.4886 139.973C12.404 140.183 11.7162 149.41 12.5494 152.573C13.0479 154.466 14.8885 158.361 15.4575 158.728C16.5148 159.408 17.2977 158.292 17.7384 155.477C17.8563 154.723 18.4041 152.799 18.9555 151.202C20.8734 145.646 21.5011 139.912 20.308 138.849C19.793 138.391 19.6414 138.409 18.6883 139.045ZM41.4159 140.313C41.0138 140.509 40.6852 140.85 40.6852 141.071C40.6852 142.215 38.1562 149.12 37.7369 149.12C37.6129 149.12 37.418 148.417 37.3037 147.558C36.8452 144.112 36.7192 143.529 36.4351 143.529C36.2721 143.529 36.1389 145.163 36.1389 147.161C36.1389 150.553 36.1905 150.846 36.915 151.58C37.4596 152.131 37.9097 152.308 38.4241 152.172C39.296 151.941 39.2807 152.049 37.708 157.238C36.7978 160.241 36.7364 160.696 37.116 161.624C38.1854 164.239 39.4353 164.279 40.5852 161.736C41.4724 159.773 41.5971 159.362 42.5687 155.204C43.4172 151.572 43.8871 148.257 44.1362 144.141C44.3372 140.823 44.3135 140.623 43.6747 140.276C42.8606 139.835 42.3774 139.843 41.4159 140.313ZM26.0851 143.611C23.7343 146.031 21.5187 152.238 21.5365 156.354C21.5459 158.5 21.6641 158.993 22.4429 160.137C24.3575 162.95 26.7323 161.718 29.0964 156.684C30.622 153.435 31.0208 150.89 30.1433 150.001C29.3695 149.217 26.8443 149.275 25.496 150.108C24.9112 150.469 24.3741 150.764 24.3023 150.764C24.061 150.764 25.7185 146.761 26.567 145.295C27.0294 144.495 27.5454 143.928 27.714 144.034C27.8825 144.139 28.0205 143.847 28.0205 143.384C28.0205 142.236 27.3431 142.316 26.0851 143.611ZM27.3967 145.036C27.4123 145.419 27.4892 145.497 27.5928 145.235C27.6867 144.998 27.675 144.714 27.5672 144.605C27.4594 144.495 27.3827 144.689 27.3967 145.036ZM24.8599 156.472C24.2295 157.174 23.9607 157.732 24.124 158C24.3052 158.297 24.6394 158.009 25.2502 157.028C26.3397 155.281 26.1601 155.025 24.8599 156.472Z" fill="white"/>
</svg>
