<svg width="14" height="24" viewBox="0 0 14 24" fill="none" xmlns="http://www.w3.org/2000/svg">
<path id="$" d="M11.9603 14.298C11.9603 13.9913 11.8961 13.6234 11.7677 13.1941C11.6607 12.7648 11.4788 12.3458 11.222 11.937C10.9866 11.5281 10.6763 11.1602 10.2911 10.8331C9.92736 10.4856 9.48868 10.2403 8.9751 10.0972C8.73971 10.0155 8.52571 10.0155 8.33312 10.0972C8.33312 10.5878 8.34382 11.1806 8.36522 11.8756C8.40802 12.5502 8.45082 13.2657 8.49362 14.022C8.53641 14.7579 8.57921 15.5244 8.62201 16.3217C8.68621 17.0984 8.75041 17.8343 8.8146 18.5293C8.8788 18.5089 8.9965 18.4782 9.16769 18.4373C9.78827 18.2534 10.2697 18.0387 10.6121 17.7934C10.9759 17.5481 11.2434 17.2722 11.4146 16.9656C11.5858 16.6589 11.7035 16.3319 11.7677 15.9844C11.8319 15.6369 11.8854 15.2689 11.9282 14.8805L11.9603 14.5433V14.298ZM3.83929 7.15368C3.83929 7.41942 4.04259 7.60339 4.44917 7.7056C4.87715 7.80781 5.56193 7.91001 6.50349 8.01222C6.48209 7.41942 6.46069 6.82662 6.43929 6.23382C6.41789 5.64102 6.3858 5.07888 6.343 4.5474C5.65822 4.7927 5.06975 5.10954 4.57757 5.49793C4.08538 5.88631 3.83929 6.43823 3.83929 7.15368ZM9.48868 8.44149C10.1948 8.62546 10.8047 8.94231 11.3183 9.39202C11.8533 9.84173 12.3027 10.3425 12.6665 10.8945C13.0302 11.4464 13.2977 12.029 13.4689 12.6422C13.6615 13.235 13.7578 13.7869 13.7578 14.298V14.7272L13.7257 15.0645C13.6829 15.4529 13.6187 15.8822 13.5331 16.3523C13.4475 16.8225 13.2656 17.2926 12.9874 17.7628C12.7307 18.2329 12.3348 18.6724 11.7998 19.0812C11.2862 19.4901 10.58 19.8274 9.68127 20.0931C9.55287 20.134 9.42448 20.1646 9.29608 20.1851C9.18909 20.2055 9.07139 20.2362 8.943 20.2771C9.0072 20.9516 9.06069 21.5036 9.10349 21.9328C9.14629 22.3621 9.16769 22.5972 9.16769 22.6381C9.16769 22.8629 9.08209 23.0571 8.9109 23.2206C8.7611 23.3842 8.54711 23.4762 8.26892 23.4966C8.03353 23.517 7.83024 23.4455 7.65905 23.282C7.48785 23.1389 7.39156 22.9549 7.37016 22.73C7.37016 22.6687 7.34876 22.4336 7.30596 22.0248C7.26316 21.616 7.22036 21.0947 7.17757 20.461C6.72818 20.4406 6.2788 20.3793 5.82942 20.2771C5.38003 20.1544 4.84506 20.0113 4.22448 19.8478C3.6039 19.6638 3.07962 19.3981 2.65164 19.0506C2.22366 18.6826 1.87057 18.3147 1.59238 17.9467C1.31419 17.5584 1.1109 17.2109 0.982504 16.9042C0.854109 16.5772 0.779212 16.3625 0.757812 16.2603C0.757812 16.0764 0.82201 15.9128 0.950405 15.7697C1.1002 15.6062 1.33559 15.4836 1.65658 15.4018C2.08456 15.4018 2.37345 15.6062 2.52324 16.015C2.65164 16.3421 2.82283 16.6487 3.03682 16.9349C3.20802 17.1802 3.43271 17.4357 3.7109 17.7015C4.01049 17.9467 4.37427 18.1205 4.80226 18.2227C5.29444 18.3658 5.71172 18.4782 6.05411 18.56C6.3965 18.6418 6.71748 18.6929 7.01707 18.7133C6.95287 17.9979 6.88868 17.2517 6.82448 16.475C6.78168 15.6778 6.73888 14.901 6.69608 14.1446C6.65329 13.3679 6.61049 12.632 6.56769 11.937C6.54629 11.242 6.53559 10.6287 6.53559 10.0972L6.43929 9.7293C5.94711 9.68842 5.44423 9.63731 4.93065 9.57599C4.41707 9.49422 3.94629 9.37157 3.51831 9.20804C3.09032 9.02407 2.73724 8.77877 2.45905 8.47215C2.18086 8.14509 2.04176 7.7056 2.04176 7.15368C2.04176 6.47911 2.17016 5.90675 2.42695 5.4366C2.70514 4.96645 3.02613 4.57806 3.38991 4.27144C3.7537 3.94438 4.13888 3.67864 4.54547 3.47423C4.95205 3.26981 5.30514 3.10628 5.60473 2.98363C5.71172 2.94275 5.81872 2.90187 5.92571 2.86098C6.05411 2.8201 6.1825 2.77922 6.3109 2.73834C6.2895 2.32951 6.2681 2.01266 6.2467 1.78781C6.2467 1.54251 6.2467 1.39942 6.2467 1.35854C6.2467 1.13368 6.3216 0.93949 6.47139 0.775959C6.64259 0.612428 6.86728 0.520441 7.14547 0.5C7.38086 0.5 7.58415 0.581766 7.75534 0.745297C7.92654 0.888387 8.02283 1.07236 8.04423 1.29722C8.04423 1.31766 8.04423 1.44031 8.04423 1.66516C8.06563 1.86957 8.08703 2.15575 8.10843 2.5237C8.17263 2.50326 8.23683 2.49304 8.30102 2.49304C8.38662 2.49304 8.46152 2.49304 8.52571 2.49304C9.08209 2.49304 9.61707 2.53392 10.1307 2.61569C10.6656 2.67701 11.1578 2.75878 11.6072 2.86098C12.0566 3.00407 12.2706 3.35158 12.2492 3.9035C12.1422 4.35321 11.7784 4.55762 11.1578 4.51674C10.7298 4.41453 10.2911 4.34299 9.84176 4.3021C9.39238 4.24078 8.9537 4.21012 8.52571 4.21012H8.17263C8.21543 4.80292 8.23683 5.44682 8.23683 6.14183C8.25822 6.83684 8.27962 7.53185 8.30102 8.22686C8.51501 8.26774 8.71831 8.30862 8.9109 8.3495C9.10349 8.36995 9.29608 8.40061 9.48868 8.44149Z" fill="white"/>
</svg>
