<svg width="51" height="50" viewBox="0 0 51 50" fill="none" xmlns="http://www.w3.org/2000/svg">
<path fill-rule="evenodd" clip-rule="evenodd" d="M25.3786 6.20215C20.3251 6.20215 19.6925 6.22324 17.7078 6.31379C15.7269 6.40434 14.3736 6.7194 13.1902 7.1796C11.9498 7.64599 10.8248 8.37784 9.89446 9.32551C8.9483 10.2547 8.21601 11.379 7.74855 12.6201C7.29083 13.8034 6.97453 15.1579 6.88398 17.1389C6.79467 19.1223 6.77234 19.7537 6.77234 24.8084C6.77234 29.8631 6.79343 30.4944 6.88398 32.4791C6.97453 34.46 7.28959 35.8133 7.74979 36.9967C8.21618 38.2371 8.94803 39.3622 9.8957 40.2925C10.825 41.2386 11.9492 41.9709 13.1902 42.4384C14.3736 42.8973 15.7269 43.2124 17.7078 43.303C19.6925 43.3935 20.3251 43.4146 25.3786 43.4146C30.432 43.4146 31.0646 43.3935 33.0493 43.303C35.0302 43.2124 36.3835 42.8973 37.5669 42.4372C38.8073 41.9708 39.9324 41.2389 40.8627 40.2912C41.8088 39.362 42.5411 38.2377 43.0086 36.9967C43.4675 35.8133 43.7826 34.46 43.8732 32.4791C43.9637 30.4944 43.9848 29.8618 43.9848 24.8084C43.9848 19.7549 43.9637 19.1223 43.8732 17.1376C43.7826 15.1567 43.4675 13.8034 43.0073 12.6201C42.5402 11.3785 41.8079 10.2537 40.8614 9.32427C39.9322 8.37811 38.8079 7.64582 37.5669 7.17836C36.3835 6.72064 35.029 6.40434 33.0481 6.31379C31.0646 6.22448 30.4333 6.20215 25.3786 6.20215ZM25.3786 9.55499C30.3464 9.55499 30.9356 9.5736 32.898 9.66291C34.7114 9.74601 35.6963 10.0474 36.3525 10.3042C37.2208 10.6404 37.841 11.0447 38.4922 11.6947C39.1434 12.3459 39.5466 12.9661 39.8827 13.8344C40.1383 14.4906 40.4409 15.4755 40.524 17.289C40.6133 19.2513 40.6319 19.8405 40.6319 24.8084C40.6319 29.7762 40.6133 30.3654 40.524 32.3278C40.4409 34.1413 40.1395 35.1261 39.8827 35.7823C39.585 36.5905 39.1098 37.3217 38.4922 37.922C37.892 38.5397 37.1608 39.0149 36.3525 39.3125C35.6963 39.5681 34.7114 39.8707 32.898 39.9538C30.9356 40.0431 30.3477 40.0618 25.3786 40.0618C20.4095 40.0618 19.8215 40.0431 17.8592 39.9538C16.0457 39.8707 15.0608 39.5693 14.4046 39.3125C13.5964 39.0148 12.8653 38.5396 12.2649 37.922C11.6474 37.3216 11.1722 36.5905 10.8744 35.7823C10.6189 35.1261 10.3162 34.1413 10.2331 32.3278C10.1438 30.3654 10.1252 29.7762 10.1252 24.8084C10.1252 19.8405 10.1438 19.2513 10.2331 17.289C10.3162 15.4755 10.6176 14.4906 10.8744 13.8344C11.2105 12.9661 11.6149 12.3459 12.2649 11.6947C12.8652 11.077 13.5964 10.6019 14.4046 10.3042C15.0608 10.0487 16.0457 9.74601 17.8592 9.66291C19.8215 9.5736 20.4107 9.55499 25.3786 9.55499V9.55499Z" fill="white"/>
<path fill-rule="evenodd" clip-rule="evenodd" d="M25.3787 31.0167C24.5634 31.0167 23.7561 30.8562 23.0029 30.5442C22.2496 30.2322 21.5652 29.7749 20.9887 29.1984C20.4123 28.6219 19.955 27.9375 19.643 27.1843C19.331 26.431 19.1704 25.6237 19.1704 24.8085C19.1704 23.9932 19.331 23.1859 19.643 22.4327C19.955 21.6794 20.4123 20.995 20.9887 20.4185C21.5652 19.8421 22.2496 19.3848 23.0029 19.0728C23.7561 18.7608 24.5634 18.6002 25.3787 18.6002C27.0252 18.6002 28.6043 19.2543 29.7686 20.4185C30.9329 21.5828 31.5869 23.1619 31.5869 24.8085C31.5869 26.455 30.9329 28.0341 29.7686 29.1984C28.6043 30.3627 27.0252 31.0167 25.3787 31.0167V31.0167ZM25.3787 15.2449C22.8422 15.2449 20.4097 16.2525 18.6162 18.046C16.8227 19.8395 15.8151 22.272 15.8151 24.8085C15.8151 27.3449 16.8227 29.7774 18.6162 31.5709C20.4097 33.3645 22.8422 34.3721 25.3787 34.3721C27.9151 34.3721 30.3476 33.3645 32.1411 31.5709C33.9347 29.7774 34.9423 27.3449 34.9423 24.8085C34.9423 22.272 33.9347 19.8395 32.1411 18.046C30.3476 16.2525 27.9151 15.2449 25.3787 15.2449V15.2449ZM37.7245 15.0712C37.7245 15.6708 37.4863 16.2458 37.0624 16.6697C36.6384 17.0937 36.0634 17.3319 35.4639 17.3319C34.8643 17.3319 34.2893 17.0937 33.8653 16.6697C33.4414 16.2458 33.2032 15.6708 33.2032 15.0712C33.2032 14.4716 33.4414 13.8966 33.8653 13.4727C34.2893 13.0487 34.8643 12.8105 35.4639 12.8105C36.0634 12.8105 36.6384 13.0487 37.0624 13.4727C37.4863 13.8966 37.7245 14.4716 37.7245 15.0712" fill="white"/>
</svg>
