<svg width="27" height="28" viewBox="0 0 27 28" fill="none" xmlns="http://www.w3.org/2000/svg">
<g id="Group 16377">
<g id="Ellipse 691">
<circle cx="13.5" cy="14" r="12.5" stroke="white" stroke-width="2"/>
<circle cx="13.5" cy="14" r="12.5" stroke="white" stroke-width="2"/>
</g>
<g id="Ellipse 693">
<path d="M23 23.4993C21.5 20.5801 13.5 20.5801 13.5 20.5801C13.5 20.5801 6 20.5801 4 23.4993" stroke="white" stroke-width="2"/>
<path d="M23 23.4993C21.5 20.5801 13.5 20.5801 13.5 20.5801C13.5 20.5801 6 20.5801 4 23.4993" stroke="white" stroke-width="2"/>
</g>
<g id="Ellipse 694">
<path d="M4 4.50075C5.5 7.41992 13.5 7.41992 13.5 7.41992C13.5 7.41992 21 7.41992 23 4.50075" stroke="white" stroke-width="2"/>
<path d="M4 4.50075C5.5 7.41992 13.5 7.41992 13.5 7.41992C13.5 7.41992 21 7.41992 23 4.50075" stroke="white" stroke-width="2"/>
</g>
<g id="Ellipse 692">
<path d="M20 14C20 17.5907 19.1893 20.792 17.9291 23.0603C16.6502 25.3624 15.043 26.5 13.5 26.5C11.957 26.5 10.3498 25.3624 9.07086 23.0603C7.81071 20.792 7 17.5907 7 14C7 10.4093 7.81071 7.20797 9.07086 4.9397C10.3498 2.63756 11.957 1.5 13.5 1.5C15.043 1.5 16.6502 2.63756 17.9291 4.9397C19.1893 7.20797 20 10.4093 20 14Z" stroke="white" stroke-width="2"/>
<path d="M20 14C20 17.5907 19.1893 20.792 17.9291 23.0603C16.6502 25.3624 15.043 26.5 13.5 26.5C11.957 26.5 10.3498 25.3624 9.07086 23.0603C7.81071 20.792 7 17.5907 7 14C7 10.4093 7.81071 7.20797 9.07086 4.9397C10.3498 2.63756 11.957 1.5 13.5 1.5C15.043 1.5 16.6502 2.63756 17.9291 4.9397C19.1893 7.20797 20 10.4093 20 14Z" stroke="white" stroke-width="2"/>
</g>
<path id="Vector 1530" d="M26.5 14L0.5 14" stroke="white" stroke-width="2"/>
<path id="Vector 1531" d="M13.5 1L13.5 27" stroke="white" stroke-width="2"/>
</g>
</svg>
