<svg width="91" height="46" viewBox="0 0 91 46" fill="none" xmlns="http://www.w3.org/2000/svg">
<g id="Group">
<path id="Vector" fill-rule="evenodd" clip-rule="evenodd" d="M87.6243 0.072989C86.7517 0.191815 85.478 0.591403 85.1433 0.85125C84.1204 1.64504 81.6959 4.81544 79.9063 7.69924C79.4699 8.40251 78.6157 9.90268 78.0082 11.0329C76.7489 13.3757 76.1653 14.3524 74.8771 16.2739L73.9659 17.6331L73.7695 17.1619C73.5168 16.5556 73.2322 15.4786 73.0796 14.5507C72.9503 13.7642 72.7587 7.3191 72.8469 6.71894C72.9039 6.33114 72.7766 6.22126 72.3898 6.32401C71.7819 6.48558 71.4105 7.41044 70.7983 10.2865C70.2322 12.9455 70.103 13.9156 70.0532 15.8766C69.9879 18.4492 70.2432 20.2059 70.876 21.5389C72.0082 23.9236 72.4605 24.5686 73.6949 25.5594C74.5646 26.2574 74.8078 26.3148 75.5885 26.0055C76.1799 25.7711 76.852 25.1998 77.4261 24.4432C80.351 20.5895 81.1461 19.3115 83.247 15.087C83.6996 14.177 84.4717 12.7471 84.963 11.9093L85.8561 10.3859L85.9232 11.4173C86.0012 12.6156 85.864 16.2805 85.6781 17.9641C85.5214 19.3837 85.0971 21.6356 84.5296 24.0601C84.2929 25.0714 84.0014 26.5305 83.8817 27.3025C83.7621 28.0745 83.5422 29.4871 83.3929 30.4415C83.0524 32.6186 83.0738 33.0267 83.6215 34.786C84.0585 36.1895 84.1436 36.3092 84.9861 36.7039C85.3846 36.8905 85.4147 36.8921 85.7768 36.7457C86.2456 36.5561 86.5012 36.2384 86.9449 35.2936C87.6098 33.8778 88.0062 32.4188 88.3624 30.0762C88.7921 27.2506 88.9293 26.4954 89.3945 24.3965C89.9148 22.0485 90.2276 20.3345 90.3996 18.8877C90.5748 17.4145 90.5468 11.7246 90.3535 9.52593C90.2696 8.57148 90.1658 6.4137 90.1229 4.73086C90.08 3.04803 90.0191 1.48621 89.9876 1.26015C89.9175 0.756626 89.7586 0.550576 89.3833 0.475956C89.2254 0.444628 88.9958 0.320503 88.8733 0.200216C88.6378 -0.0308607 88.494 -0.0455632 87.6243 0.072989ZM19.7105 4.52381C19.6757 4.56062 19.4073 4.61798 19.114 4.65131C18.8206 4.68465 18.4059 4.77388 18.1925 4.84969C17.979 4.9255 17.579 5.03967 17.3035 5.10342C16.6672 5.25056 16.4581 5.50319 16.1683 6.47462C16.0482 6.87704 15.95 7.24503 15.95 7.29234C15.95 7.33975 15.7802 7.77943 15.5729 8.26953C15.3654 8.75963 14.8188 10.2292 14.3581 11.5353C13.8974 12.8414 13.0046 15.2869 12.3739 16.9697C11.7432 18.6525 11.0034 20.6665 10.7297 21.4451C10.0856 23.2775 9.44605 24.8076 8.35981 27.1147C7.45314 29.0403 6.92899 30.0305 6.81635 30.0305C6.78073 30.0305 6.60486 29.5709 6.42546 29.0092C6.1034 28.0006 6.09848 27.9633 6.02621 26.018C5.98601 24.9345 5.90692 23.5323 5.85043 22.9019C5.64765 20.6388 5.91304 15.309 6.46617 10.5358C6.55897 9.73499 6.63488 8.69825 6.63488 8.23199V7.38422L6.36155 7.23462C6.04475 7.06108 5.43366 7.11168 5.10677 7.33846C4.73055 7.5995 3.89461 9.88359 2.4054 14.719C0.960964 19.4094 0.523416 21.3487 0.166856 24.6418C-0.119669 27.2888 -0.041353 29.0278 0.434147 30.576C0.780702 31.7043 2.53504 35.3081 3.08471 36.0208C3.23634 36.2174 3.49846 36.481 3.66725 36.6066C3.83604 36.7322 4.15534 36.9955 4.37675 37.1919C4.90934 37.6641 5.38045 37.8808 5.87958 37.8833C6.46324 37.8861 8.50799 37.4517 8.94105 37.2328C9.4112 36.9951 10.2226 36.0579 10.8892 34.9824L11.4148 34.1345L11.6121 34.9214C11.8725 35.9601 12.1826 36.7249 12.9357 38.1847C13.811 39.8817 14.0939 40.3215 14.4929 40.6054C14.6847 40.742 15.0335 41.0277 15.2679 41.2405C15.5023 41.4532 15.7859 41.6517 15.898 41.6815C16.2191 41.7668 16.9474 41.3836 17.3233 40.9313C18.0926 40.0058 19.8501 35.5712 20.3926 33.187C20.572 32.3989 20.6139 31.9842 20.6174 30.9645C20.6221 29.6322 20.4064 28.1605 20.108 27.4869C19.8189 26.8343 19.2729 27.0305 17.5067 28.4219C17.1532 28.7004 16.8533 28.917 16.8403 28.9031C16.736 28.7926 17.2423 23.3111 17.5546 21.1711C17.7912 19.5499 17.7975 19.527 18.6509 17.198C18.9638 16.344 19.4896 14.885 19.8192 13.9556C20.1489 13.0263 20.6165 11.7181 20.8582 11.0486C21.5255 9.20023 21.8099 7.79459 21.8133 6.32675C21.8153 5.43725 21.7011 5.21421 21.1999 5.12936C20.976 5.09145 20.7438 4.96167 20.5456 4.76374C20.2528 4.47129 19.8652 4.35996 19.7105 4.52381ZM62.4405 5.30682C62.0615 5.44437 61.9788 5.60274 60.8912 8.27245C60.42 9.42893 59.6007 11.3349 59.0705 12.5079C56.2253 18.8019 55.7586 20.0391 54.4964 24.6324C54.1183 26.0087 53.5612 27.961 53.2585 28.9708C52.53 31.4007 52.2322 32.4987 51.876 34.0685C51.3102 36.5619 50.739 40.6063 50.8193 41.5494C50.8576 41.9982 51.2986 43.1445 51.5706 43.5024C51.6088 43.5526 51.7846 43.8914 51.9612 44.2552C52.1834 44.713 52.3753 44.9776 52.5839 45.1141C52.7498 45.2226 53.0579 45.4695 53.2687 45.6628C53.6919 46.0507 53.7784 46.072 54.1833 45.8879C54.5562 45.7186 54.9285 45.2845 55.4026 44.4667C55.8144 43.7561 55.886 43.6869 57.7384 42.2098C59.7992 40.5665 60.2973 40.2192 63.0993 38.4712C66.1811 36.5487 67.708 35.4019 68.2965 34.5679C68.9575 33.6313 69.9602 31.2608 70.2473 29.9564C70.3814 29.3469 70.4146 28.4105 70.3081 28.2383C70.2159 28.0891 69.0853 27.5098 68.7561 27.443C68.4511 27.3812 66.4987 27.6686 66.1478 27.8271C66.0292 27.8806 65.5873 28.0084 65.1657 28.111C64.7441 28.2137 64.2395 28.3725 64.0444 28.4641C63.4903 28.7241 59.7609 31.1513 58.0699 32.3525C57.7504 32.5795 57.4757 32.7512 57.4595 32.734C57.4433 32.7169 57.57 32.1769 57.741 31.5341C58.3122 29.3873 58.8025 27.0841 59.2079 24.6418C59.723 21.5396 59.8898 20.8478 61.7397 14.1383C62.7216 10.5773 63.3596 7.66362 63.4473 6.34036C63.499 5.55964 63.4933 5.52328 63.2935 5.36053C63.0545 5.16598 62.8621 5.15383 62.4405 5.30682ZM42.5152 6.751C40.4793 7.32842 38.7604 8.20797 35.8739 10.1493C32.6854 12.2936 30.8421 14.4503 29.0294 18.157C27.2074 21.8831 26.508 24.7144 26.1192 29.9385C26.0054 31.4665 26.1144 34.288 26.338 35.6019C26.5272 36.7139 27.033 37.9142 27.8594 39.2128C28.1697 39.7002 29.2344 40.5547 29.9753 40.911C30.7698 41.293 32.2529 41.6796 33.4157 41.8078C35.9649 42.089 37.958 41.3516 41.5808 38.7869C43.9874 37.0832 44.9805 35.9928 46.3115 33.5926C47.2064 31.9786 47.4887 31.5486 48.7696 29.8479C50.649 27.3525 52.008 25.2138 52.7305 23.6143C53.4 22.1322 53.4907 21.8286 53.5364 20.9181C53.5842 19.966 53.504 19.7725 53.0145 19.6587C52.8692 19.6249 52.6764 19.5243 52.5861 19.4353C52.4959 19.3462 52.3034 19.2482 52.1585 19.2175C51.6041 19.1002 49.5812 19.1705 47.2379 19.3886C44.0421 19.6862 42.2519 19.799 40.6176 19.8058C38.7315 19.8136 36.8359 20.0104 36.0032 20.2849C35.766 20.3629 35.2615 20.4996 34.882 20.5883C34.0774 20.7764 33.8061 21.0126 33.6302 21.6775C33.4689 22.2876 33.671 23.1803 34.198 24.1851C34.4219 24.6121 34.7838 25.3096 35.0023 25.7352C35.2901 26.2958 35.5012 26.585 35.7688 26.7855C35.972 26.9377 36.3323 27.2369 36.5696 27.4503C36.8936 27.742 37.0741 27.8385 37.2952 27.8385C38.0057 27.8385 44.0807 26.1927 45.8633 25.5172L46.2358 25.3761L46.0789 25.5908C44.5543 27.6764 44.338 28.0174 43.4503 29.7348C42.5862 31.4062 42.1402 32.0782 41.3109 32.9579C39.7613 34.6016 36.4994 37.0511 35.219 37.5326C34.7804 37.6975 34.5895 37.7164 33.847 37.6688C32.8471 37.6047 31.8318 37.4137 31.0648 37.1454C30.2341 36.8549 29.7952 36.2889 29.5844 35.2366C29.4193 34.4124 29.3717 32.5451 29.4855 31.3549C29.6352 29.7912 30.2296 26.0948 30.5258 24.8869C31.5679 20.637 33.6078 16.8167 36.0986 14.4505C36.9603 13.6319 39.2087 11.7147 40.4697 10.7233C42.9091 8.80548 43.9279 8.32196 45.2785 8.44124C45.8718 8.49357 45.9909 8.47923 46.1386 8.33766C46.3413 8.1434 46.366 7.83624 46.1789 7.83624C46.1066 7.83624 45.8807 7.6733 45.6767 7.47419C45.4727 7.27508 45.0952 7.00838 44.8376 6.88143C44.4407 6.68579 44.2515 6.65181 43.5933 6.65802C43.1663 6.66204 42.6812 6.70387 42.5152 6.751Z" fill="white"/>
</g>
</svg>
