<svg width="565" height="368" viewBox="0 0 565 368" fill="none" xmlns="http://www.w3.org/2000/svg">
<path d="M430.821 135.962C437.366 139.777 439.962 145.624 442.505 151.559C446.762 161.504 450.404 171.727 457.34 180.362C459.605 183.185 460.533 187.035 462.437 190.201C466.463 196.88 470.857 203.341 474.86 210.032C477.621 214.645 480.016 219.47 482.529 224.23C487.306 233.289 493.633 241.238 500.03 249.188C507.374 258.312 514.091 267.944 521.553 276.968C526.585 283.051 532.09 288.839 537.985 294.083C547.729 302.747 554.428 313.531 561.541 324.215C564.799 329.11 562.765 331.945 560.589 335.406C559.986 336.369 558.408 336.977 557.172 337.231C554.322 337.816 551.407 338.069 548.527 338.495C547.871 338.589 547.232 338.825 546.724 338.961C546.582 339.227 546.511 339.31 546.493 339.404C546.21 341.235 546.227 344.507 545.6 344.637C543.259 345.115 540.433 345.168 538.298 344.235C535.974 343.219 534.124 343.066 531.634 343.467C526.212 344.336 520.684 344.678 515.185 344.914C508.013 345.221 500.823 345.032 493.656 345.41C486.206 345.8 478.786 346.615 471.347 347.212C469.29 347.377 467.191 347.678 465.157 347.466C455.69 346.479 446.301 347.407 436.882 348.151C427.279 348.913 417.653 349.781 408.039 349.84C398.998 349.893 389.957 348.523 380.917 348.57C370.806 348.629 360.713 349.745 350.596 350.082C344.719 350.277 338.8 350.135 332.94 349.651C322.676 348.806 312.523 349.474 302.324 350.607C292.952 351.653 283.503 351.984 274.108 352.852C269.23 353.306 264.405 354.358 259.533 354.936C250.161 356.059 240.783 357.11 231.394 358.043C226.113 358.568 220.792 358.622 215.518 359.194C208.6 359.945 201.729 361.061 194.817 361.876C192.629 362.136 190.388 361.923 188.171 361.958C183.517 362.029 178.846 361.988 174.211 362.307C173.064 362.384 171.769 363.458 170.941 364.415C168.316 367.457 165.761 367.339 163.207 364.067C162.669 363.382 161.415 363.122 160.434 362.945C158.116 362.525 156.797 361.155 157.129 358.911C157.661 355.267 158.234 351.564 159.381 348.08C161.764 340.839 164.531 333.729 167.151 326.565C167.476 325.673 167.854 324.799 168.381 323.476C166.494 323.476 164.957 323.311 163.461 323.5C150.589 325.136 138.249 322.218 125.844 319.425C116.59 317.34 107.207 315.811 97.9058 313.921C91.7506 312.669 85.6899 310.785 79.4815 309.976C72.3329 309.049 66.426 305.918 60.3417 302.34C55.2981 299.375 49.3025 298.034 43.7326 295.979C42.9048 295.672 41.9824 295.536 41.2492 295.075C39.2152 293.806 39.4103 291.06 41.3261 289.683C45.7607 286.488 50.0416 283.075 54.4703 279.874C60.0993 275.805 65.6691 271.612 71.5465 267.932C76.1703 265.039 81.2849 262.942 86.0802 260.296C90.6981 257.745 95.1977 254.993 99.6974 252.241C101.903 250.888 101.861 249.111 100.596 246.967C98.1127 242.756 93.9383 240.719 89.9708 238.41C83.1711 234.453 76.0757 235.84 68.8148 236.951C61.5656 238.055 54.1687 238.681 46.8487 238.569C43.6794 238.522 40.4687 236.254 37.4118 234.73C31.2802 231.677 25.1664 228.458 20.4538 223.373C17.0776 219.73 14.4228 215.418 11.0347 211.792C7.85955 208.396 6.60603 204.28 5.26974 200.099C5.18105 199.827 5.12783 199.514 4.95045 199.301C-0.654903 192.61 0.728696 185.281 2.87505 177.834C3.60232 175.318 3.95118 172.696 4.61342 170.151C4.95045 168.857 5.32887 167.44 6.13892 166.448C7.42792 164.865 9.63931 165.373 10.201 167.357C12.442 175.229 17.9232 180.958 22.6889 187.271C26.4613 192.268 31.4753 193.419 36.9269 194.323C41.0659 195.008 45.1931 196.201 49.3439 196.272C56.0135 196.384 62.494 188.937 61.4297 182.352C61.1458 180.586 58.692 179.015 56.9714 177.692C55.5168 176.576 53.6366 176.033 52.0342 175.082C48.2855 172.855 44.6786 172.95 40.8531 175.04C39.5463 175.755 37.6897 175.826 36.1465 175.649C35.1945 175.537 33.6572 174.409 33.6453 173.723C33.6335 172.714 34.5559 171.06 35.431 170.788C41.1723 168.993 46.9255 166.766 52.8324 166.129C57.9766 165.574 63.3277 166.891 68.5782 167.475C70.222 167.658 71.8185 168.314 73.4622 168.438C80.4985 168.975 85.075 173.741 89.9058 177.976C92.8444 180.551 95.3515 183.604 98.2251 186.261C101.927 189.675 111.221 189.829 115 186.539C117.578 184.295 120.505 183.651 123.822 183.155C127.99 182.529 132.094 181.1 136.032 179.523C138.42 178.566 138.048 174.521 135.588 173.41C131.845 171.721 127.653 170.759 124.295 168.521C118.21 164.469 112.505 159.815 106.828 155.185C104.351 153.165 102.429 150.484 100.076 148.293C96.0078 144.502 95.1209 139.807 95.8659 134.621C97.4801 123.442 93.6663 113.632 87.6471 104.685C84.9094 100.622 81.0425 97.1492 77.1637 94.0663C73.344 91.0249 68.4068 90.8772 63.6233 90.9717C59.0527 91.0603 54.7837 89.826 51.2951 86.9735C49.5863 85.5738 48.7171 83.1702 47.3926 81.2744C45.2167 78.1621 42.414 75.3391 40.9063 71.9433C38.7481 67.0769 37.4768 61.809 35.8922 56.6946C34.5027 52.2062 33.0777 47.7178 31.9188 43.1644C30.7185 38.4457 29.8197 33.6502 28.8087 28.8843C28.4421 27.1598 27.8744 25.4235 27.8863 23.699C27.8863 22.5119 28.7259 21.3249 29.193 20.1378C30.1213 20.8288 31.1915 21.4016 31.9365 22.2521C32.3977 22.7777 32.5042 23.7285 32.5278 24.4904C32.7111 29.841 35.3837 34.164 38.1746 38.4457C40.4155 41.8829 42.5205 45.4264 44.9861 48.6922C47.5878 52.1412 51.3424 52.9621 55.6114 53.3755C63.984 54.1787 72.3151 55.543 80.5931 57.0607C84.33 57.7458 87.2568 60.114 89.4387 63.4213C91.2421 66.1556 93.8792 68.3939 95.4106 71.2405C97.2022 74.5596 98.1423 78.3215 99.5436 81.8591C102.606 89.5957 105.918 97.2555 106.834 105.642C107.006 107.195 107.029 108.766 107.213 110.319C107.573 113.431 110.187 116.39 112.836 116.768C116.076 117.229 119.967 114.914 121.096 111.813C123.272 105.854 122.19 100.185 119.316 94.7868C118.021 92.3537 117.223 89.5189 114.101 88.3082C113.421 88.0424 113.031 85.5561 113.451 84.4517C113.734 83.7076 115.993 82.9281 116.833 83.3119C122.87 86.0995 129.072 88.7098 134.63 92.2946C140.531 96.0979 143.216 102.535 144.369 109.203C145.244 114.252 144.901 119.503 145.167 124.664C145.315 127.499 145.09 130.487 145.93 133.127C148.076 139.895 158.311 141.761 162.905 136.364C164.596 134.373 166.512 133.163 169.161 133.074C170.415 133.033 171.656 132.743 172.898 132.566C172.833 122.922 167.009 114.294 169.421 104.449C166.914 105.683 165.483 107.23 165.176 109.776C165.052 110.792 164.555 112.138 163.786 112.599C162.899 113.13 161.037 113.372 160.457 112.823C159.375 111.807 159.559 110.408 160.694 108.943C163.095 105.837 165.454 102.836 168.795 100.569C170.078 99.6946 171.083 97.3677 171.024 95.7436C170.704 86.879 173.673 78.794 176.132 70.5023C178.178 63.6102 182.903 58.6966 187.047 53.2929C190.063 49.3655 192.576 44.7708 196.354 41.8061C199.346 39.4615 202.77 37.6189 205.572 34.8432C206.607 33.8215 208.623 33.7388 210.22 33.3431C213.46 32.5458 219.385 37.5539 220.709 40.495C223.665 47.0504 223.163 53.8893 223.553 60.681C223.707 63.3445 225.309 64.0532 227.491 63.8465C229.915 63.6161 232.304 63.0728 234.717 62.6949C237.105 62.3169 239.482 61.7558 241.883 61.6436C248.115 61.3483 253.768 59.4585 258.835 55.8855C259.456 55.4485 260.071 54.4031 260.017 53.6826C259.539 46.7374 263.914 41.9715 267.964 37.4831C272.777 32.1561 278.448 27.5909 283.864 22.8308C285.537 21.3603 287.595 20.3327 289.463 19.0807C291.562 17.6692 295.536 19.311 296.547 22.4529C297.298 24.7975 297.806 27.4669 297.487 29.8646C296.34 38.4752 297.865 46.9264 298.628 55.4071C298.829 57.6513 300.018 59.8483 300.952 61.9743C302.022 64.4193 304.913 65.3938 307.468 64.1595C309.762 63.0551 311.625 62.1574 312.44 65.8072C312.612 66.5631 314.498 67.4903 315.527 67.4136C319.944 67.0769 322.25 70.0357 324.686 72.8174C326.004 74.3292 327.146 75.9947 328.701 78.0262C328.76 77.914 328.606 78.6759 328.145 79.0657C323.61 82.8513 327.11 86.3298 328.458 89.9205C330.303 94.8164 332.556 99.5882 332.574 105.01C332.574 105.878 333.608 106.74 334.158 107.608C334.809 108.63 335.962 109.628 336.027 110.691C336.393 116.703 337.901 122.137 341.756 127.015C343.359 129.04 344.405 131.999 344.553 134.598C345.061 143.48 346.185 152.616 342.028 160.926C340.248 164.487 340.071 167.765 340.42 171.426C340.485 172.129 339.722 173.292 339.06 173.57C338.427 173.836 336.955 173.487 336.665 172.962C335.577 170.983 335.181 171.391 333.112 172.371C327.406 175.076 328.411 180.285 327.163 184.738C326.436 187.336 325.993 190.407 324.313 192.285C317.892 199.461 310.82 205.774 300.78 207.77C297.593 208.402 294.838 208.816 291.74 207.51C290.12 206.825 288.015 207.404 286.211 207.014C285.07 206.766 283.692 206.004 283.16 205.06C282.758 204.345 283.19 202.384 283.834 202.024C284.952 201.398 286.844 200.973 287.861 201.51C295.542 205.567 303.796 204.776 310.466 199.195C313.168 196.933 316.242 195.091 318.832 192.716C322.534 189.315 324.443 185.104 323.113 179.234C320.015 181.177 317.165 182.901 314.38 184.72C306.989 189.557 299.231 193.325 290.084 191.335C286.726 190.602 283.592 188.872 280.328 187.655C279.169 187.224 277.957 186.887 276.751 186.622C273.723 185.954 270.087 186.197 267.763 184.561C261.241 179.984 253.833 177.923 246.471 175.596C243.083 174.527 239.624 173.688 236.201 172.725C234.433 172.223 233.238 172.513 232.564 174.503C231.53 177.562 230.105 180.492 229.158 183.568C228.946 184.259 229.815 185.854 230.548 186.161C235.142 188.086 239.713 190.336 244.532 191.411C253.561 193.419 261.821 196.886 268.615 203.058C272.257 206.365 275.001 210.67 278.052 214.603C281.67 219.257 283.344 225.222 288.346 229.002C293.301 232.746 292.449 237.807 290.829 242.957C289.174 248.231 285.72 251.16 280.269 251.827C278.938 251.993 277.608 252.146 276.26 252.306C279.488 257.745 284.621 258.719 290.149 259.564C297.315 260.657 304.375 262.458 311.465 264.046C317.052 265.299 322.611 266.698 328.535 268.116C328.494 267.566 328.47 266.875 328.375 266.19C328.086 264.076 327.4 261.944 327.536 259.859C327.79 255.973 328.949 252.117 327.406 248.243C327.27 247.906 327.341 247.451 327.429 247.073C328.807 241.191 330.208 235.315 331.604 229.433C332.798 224.389 334.791 219.854 338.77 216.239C339.645 215.442 339.894 213.257 339.533 211.969C339.001 210.079 337.659 208.414 336.322 206.058C334.389 208.774 332.952 211.066 331.249 213.133C328.393 216.599 325.413 219.972 322.392 223.297C317.91 228.228 312.281 229.126 305.948 228.033C301.827 227.318 297.605 227.206 293.454 226.657C292.301 226.503 290.912 226.001 290.232 225.169C289.741 224.566 289.854 222.588 290.386 222.228C291.373 221.554 292.922 221.236 294.128 221.436C298.965 222.239 303.778 223.238 308.573 224.289C311.837 225.003 314.64 223.946 317.23 222.239C322.8 218.56 326.98 213.475 330.912 208.201C331.58 207.304 331.917 206.064 332.112 204.936C332.485 202.739 332.881 200.76 335.956 201.711C333.656 195.209 335.997 189.421 338.155 183.923C340.384 178.23 343.217 172.607 346.764 167.646C350.655 162.201 355.302 157.205 361.996 154.725C367.956 152.516 374.087 151.382 380.396 151.246C383.235 151.181 385.931 151.488 388.278 153.732C391.081 156.402 394.386 158.54 397.396 160.997C398.277 161.717 399.187 162.644 399.589 163.672C400.547 166.129 402.203 167.221 404.645 168.379C415.063 173.304 423.613 180.379 427.61 191.677C428.444 194.033 428.444 196.673 429.065 199.118C429.396 200.424 429.922 202.059 430.91 202.756C436.213 206.483 439.625 211.361 441.18 217.645C441.837 220.291 442.759 222.877 443.746 225.423C443.936 225.913 445.024 226.356 445.662 226.314C446.904 226.238 448.128 225.795 449.062 225.576C454.017 231.689 458.463 238.043 463.791 243.553C473.08 253.168 482.647 262.558 492.592 271.488C502.922 280.754 514.008 289.17 524.45 298.318C531.652 304.625 539.085 310.826 544.081 319.26C544.607 320.146 545.5 320.978 546.422 321.445C548.681 322.585 548.498 324.374 547.859 326.211C547.067 328.467 545.269 327.823 543.655 327.351C540.805 326.506 538.121 325.833 535.838 323.299C534.23 321.51 530.931 320.884 528.264 320.458C513.127 318.043 498.759 313.053 484.509 307.696C477.124 304.92 469.319 304.725 461.727 303.231C453.822 301.678 446.017 299.593 438.106 298.07C433.553 297.196 428.982 295.412 424.199 297.125C423.726 297.296 422.791 296.989 422.448 296.587C419.06 292.636 414.088 293.871 409.866 292.69C409.582 292.613 409.026 292.896 408.849 293.168C406.768 296.387 405.331 294.975 403.604 292.707C402.859 291.727 401.381 291.065 400.116 290.747C392.216 288.762 384.275 286.955 376.37 285.012C371.35 283.778 366.312 282.579 361.381 281.037C358.614 280.169 356.077 278.581 353.393 277.417C351.116 276.431 348.822 275.758 347.616 279.236L346.522 279.892C345.174 277.766 343.832 275.634 342.483 273.508C342.17 273.761 341.863 274.021 341.549 274.275C341.62 275.161 341.691 276.041 341.809 277.523C338.971 276.484 336.494 275.592 334.028 274.671C331.036 273.561 328.115 272.196 325.052 271.352C320.275 270.035 315.45 268.724 310.56 268.015C299.539 266.415 288.842 263.539 278.164 260.515C276.142 259.942 273.93 260.025 271.406 259.765C271.169 261.064 270.749 262.446 270.696 263.846C270.406 271.311 263.559 275.043 256.115 270.035C254.258 268.789 252.573 267.23 251.018 265.612C249.504 264.041 248.446 264.094 247.358 265.942C245.33 269.379 243.503 272.97 241.15 276.177C238.98 279.13 232.127 279.39 229.927 276.638C228.946 275.409 228.839 273.348 228.691 271.635C228.39 268.222 227.946 264.749 228.26 261.365C228.993 253.392 227.787 251.001 220.059 249.052C212.431 247.121 204.674 245.993 196.703 246.624C186.923 247.404 177.096 248.845 167.328 246.737C164.324 246.087 161.291 245.024 158.63 243.512C154.752 241.315 150.82 238.941 147.65 235.876C145.616 233.909 144.925 230.567 143.6 227.856C140.407 221.324 138.148 214.721 139.633 207.18C140.78 201.333 143.174 196.567 147.29 192.114C153.297 185.612 160.174 180.214 167.925 176.458C174.92 173.074 182.228 169.312 190.601 170.251C190.92 170.286 191.275 170.05 192.02 169.808C190.14 168.503 188.543 167.487 187.047 166.335C183.458 163.571 181.016 160.004 179.674 155.664C178.225 150.986 176.706 146.332 175.204 141.673C173.992 137.917 168.481 136.417 165.56 139.145C163.922 140.675 162.426 142.382 161.055 144.153C159.913 145.624 158.914 146.037 157.064 145.199C154.491 144.035 151.742 143.232 149.016 142.464C144.245 141.118 142.187 137.562 141.773 133.115C141.395 129.029 141.649 124.877 141.714 120.76C141.909 108.973 138.107 97.8992 127.369 92.5072C126.151 91.8989 124.957 91.2198 123.703 90.7119C123.165 90.4934 122.485 90.6233 121.876 90.5938C121.935 91.2198 121.782 91.9816 122.083 92.4482C125.199 97.2673 125.903 102.647 126.039 108.205C126.163 113.053 119.499 121.144 114.775 121.753C109.318 122.461 103.825 117.843 103.156 112.362C102.707 108.683 101.867 105.033 100.904 101.449C98.8696 93.9128 96.741 86.3947 94.4172 78.9476C93.7077 76.6738 92.6493 74.2407 91.0351 72.5634C87.1031 68.4648 84.8326 62.37 78.6596 60.87C73.5273 59.6179 68.2412 58.9683 62.9965 58.2242C60.1761 57.8226 57.3084 57.7753 54.4644 57.5923C47.0674 57.108 42.1421 53.0566 38.7244 46.7847C37.5005 44.5346 36.2292 42.314 34.9757 40.0816C34.6683 40.2352 34.3608 40.3887 34.0533 40.5482C35.567 44.6586 37.1221 48.7572 38.5648 52.8913C39.1088 54.4563 39.635 56.0922 39.7651 57.7222C40.3564 65.2698 45.0039 70.8448 48.7171 76.9337C51.3187 81.2036 54.4998 84.6112 59.3247 86.1408C61.2641 86.755 63.3513 87.2511 65.3617 87.2334C73.3617 87.1625 79.4519 90.1449 85.2228 96.0034C92.058 102.937 96.0551 111.187 99.1593 119.857C100.768 124.351 100.253 129.814 99.8097 134.757C99.4077 139.192 101.063 142.494 103.275 145.937C107.201 152.043 113.675 155.327 118.642 160.223C124.809 166.3 132.756 168.042 140.413 170.552C143.115 171.438 142.494 173.546 142.305 174.763C141.844 177.71 140.791 180.621 139.573 183.368C139.118 184.389 137.604 185.387 136.44 185.57C128.984 186.722 121.705 188.258 114.769 191.476C106.267 195.421 97.6989 193.407 91.4727 186.155C87.517 181.543 82.9819 177.68 77.8081 174.633C75.7801 173.44 73.2435 173.003 70.8724 172.519C66.2722 171.58 61.6307 170.824 56.9891 170.074C56.3269 169.967 55.5878 170.304 53.9559 170.605C56.8236 172.43 58.8221 173.948 61.0276 175.064C65.6455 177.397 67.0527 181.407 64.9241 186.061C63.2271 189.764 62.5413 193.915 59.3365 196.898C56.2737 199.744 53.0571 201.593 48.6107 201.233C40.9772 200.613 33.7281 198.616 26.6446 195.882C23.1383 194.53 20.5958 192.144 18.5499 188.937C15.5521 184.242 12.1582 179.789 8.90021 175.265C8.72282 175.017 8.21432 174.999 7.65851 174.798C5.35843 181.425 3.61415 188.305 6.31631 194.677C9.10124 201.244 13.4472 207.174 17.3614 213.227C20.6253 218.277 24.5573 222.842 29.938 225.771C37.0334 229.639 43.7858 234.683 52.4717 234.157C58.5324 233.791 64.5694 233.053 70.6123 232.415C76.3004 231.813 81.9589 229.693 87.6825 232.161C94.5 235.096 100.401 239.189 104.28 245.685C105.788 248.213 107.538 248.497 110.199 247.386C115.798 245.042 121.557 243.087 127.192 240.819C128.558 240.27 129.658 239.089 130.935 238.28C131.437 237.961 132.135 237.6 132.655 237.701C136.404 238.427 140.141 239.213 143.848 240.116C144.747 240.335 145.522 241.067 146.805 241.841C145.817 242.266 145.492 242.508 145.149 242.544C140.366 242.992 135.523 243.093 130.822 243.943C127.292 244.581 123.904 246.111 120.505 247.369C117.377 248.526 114.314 249.843 111.239 251.136C110.53 251.432 109.59 251.733 109.27 252.312C107.437 255.619 104.522 256.298 100.998 256.859C98.166 257.308 95.5939 259.393 92.9154 260.763C87.5879 263.474 82.2428 266.143 76.9508 268.919C67.4193 273.921 59.1355 280.677 50.9521 287.557C49.7223 288.591 48.5279 289.672 46.961 291.042C51.2596 293.15 55.0083 294.981 58.7512 296.824C59.6322 297.261 60.59 297.615 61.3469 298.211C69.8436 304.909 80.1023 306.131 90.3019 307.56C92.0462 307.802 93.7787 308.098 95.4993 308.464C104.233 310.306 112.966 312.143 121.687 314.045C128.392 315.509 135.056 317.139 141.767 318.557C150.069 320.305 158.459 320.99 166.914 319.933C167.766 319.827 168.676 318.923 169.256 318.155C170.474 316.549 172.585 316.124 173.584 317.771C174.619 319.484 175.943 319.537 177.569 319.502C192.824 319.201 208.073 318.84 223.328 318.693C228.626 318.639 233.93 319.419 239.228 319.313C247.086 319.159 254.932 318.451 262.791 318.179C268.183 317.996 273.593 317.996 278.986 318.191C286.625 318.468 294.27 318.793 301.88 319.484C310.779 320.287 319.625 321.616 328.517 322.484C334.188 323.039 339.9 323.104 345.588 323.494C351.164 323.878 356.722 324.439 362.291 324.823C365.124 325.018 367.98 324.888 370.812 325.077C379.634 325.667 388.45 326.358 397.272 326.984C401.275 327.268 405.331 327.197 409.286 327.811C415.359 328.756 421.319 330.469 427.403 331.278C435.261 332.317 443.202 332.76 451.102 333.51C460.397 334.39 469.71 335.128 478.975 336.268C490.741 337.715 502.437 339.735 514.221 341.005C518.023 341.412 521.997 340.243 525.893 339.77C528.406 339.463 530.925 339.209 533.414 338.749C535.655 338.335 537.843 337.65 540.066 337.13C540.918 336.93 541.805 336.865 542.668 336.723C543.827 336.528 545.388 336.711 546.062 336.032C549.024 333.044 552.909 332.613 556.646 331.662C558.703 331.142 559.779 328.284 558.508 325.661C557 322.549 554.931 319.72 553.151 316.732C548.403 308.765 542.035 302.216 535.401 295.82C529.594 290.215 524.066 284.297 518.739 278.238C515.723 274.807 513.458 270.738 510.679 267.088C505.766 260.639 500.675 254.32 495.732 247.888C492.468 243.648 489.062 239.478 486.2 234.972C482.558 229.232 479.554 223.084 475.989 217.285C471.773 210.434 467.197 203.808 462.88 197.022C461.727 195.209 461.053 193.1 459.965 191.246C456.364 185.092 452.385 179.145 449.086 172.838C445.526 166.028 442.688 158.847 439.3 151.943C437.272 147.815 434.759 143.929 432.518 139.901C431.897 138.791 431.489 137.562 430.78 135.921L430.821 135.962ZM215.742 104.012C218.415 102.606 224.588 95.6904 224.629 93.1096C221.472 95.8263 218.663 98.0173 216.186 100.527C215.535 101.189 215.908 102.854 215.79 104.047C213.312 103.77 211.509 104.455 210.994 106.976C211.225 107.254 211.45 107.537 211.68 107.815C213.034 106.545 214.388 105.281 215.742 104.012ZM224.606 192.687C222.229 191.482 220.603 190.396 222.465 187.791C222.619 187.578 221.643 186.12 220.946 185.819C215.689 183.545 210.427 181.236 205.034 179.316C202.45 178.401 199.571 178.348 196.833 177.84C194.799 177.468 191.784 177.68 190.938 176.446C188.177 172.412 184.464 172.932 181.288 174.308C174.873 177.09 168.493 180.19 162.693 184.053C157.974 187.195 153.8 191.34 150.015 195.604C147.573 198.351 145.628 201.918 144.582 205.449C142.772 211.538 142.731 217.722 147.538 222.901C147.916 223.308 148.171 223.905 148.283 224.46C149.223 229.202 150.896 233.537 155.432 235.976C159.642 238.244 163.804 241.599 168.274 242.154C176.18 243.134 184.304 242.39 192.333 242.278C197.933 242.201 203.586 241.416 209.114 241.965C215.624 242.609 222.034 244.315 228.467 245.674C229.206 245.827 230.164 246.559 230.388 247.233C231.908 251.78 233.398 256.263 232.919 261.294C232.623 264.383 233.268 267.755 234.285 270.726C235.615 274.63 237.986 274.754 240.204 271.24C242.439 267.702 244.402 263.999 246.453 260.349C248.091 257.438 249.138 257.361 251.598 259.599C254.264 262.027 257.055 264.336 259.929 266.509C261.839 267.95 264.168 268.659 266.049 266.58C267.793 264.655 267.71 262.434 266.344 260.101C265.706 259.003 265.457 257.473 265.564 256.186C265.753 253.9 266.445 251.656 266.752 249.377C267.125 246.654 268.774 246.093 271.346 246.802C274.545 247.682 278.063 248.378 281.286 247.959C285.851 247.369 287.642 243.565 288.511 239.354C289.227 235.882 288.257 233.201 285.265 231.216C283.964 230.354 282.598 229.486 281.546 228.364C280.322 227.064 279.098 225.606 278.406 223.988C275.539 217.314 272.961 210.599 266.805 205.928C260.165 200.884 253.212 196.768 244.928 195.032C240.901 194.187 236.756 193.207 233.12 191.382C229.649 189.64 227.13 189.858 224.588 192.699L224.606 192.687ZM493.03 340.934C491.084 340.526 489.961 340.178 488.808 340.072C475.983 338.867 463.158 337.662 450.327 336.534C442.8 335.873 435.155 335.908 427.746 334.615C417.31 332.796 407.01 330.339 396.355 329.866C381.845 329.223 367.341 328.295 352.843 327.421C344.204 326.902 335.56 326.37 326.933 325.626C319.092 324.953 311.287 323.896 303.453 323.175C298.368 322.709 293.247 322.679 288.162 322.23C276.083 321.167 264.044 320.624 251.941 322.266C246.111 323.057 240.156 323.146 234.261 323.152C229.957 323.157 225.652 322.195 221.348 322.224C207.275 322.331 193.209 322.785 179.142 322.88C176.629 322.898 175.346 323.299 175.896 326.719C174.27 325.508 173.194 324.705 171.928 323.76C169.185 330.699 166.329 337.461 163.875 344.365C162.787 347.436 162.143 350.773 161.965 354.021C161.776 357.535 164.36 360.269 167.766 359.779C171.449 359.248 174.944 357.494 178.557 356.377C179.585 356.059 180.762 355.864 181.803 356.035C184.014 356.401 186.202 357.547 188.366 357.476C194.409 357.281 200.434 356.614 206.465 356.153C217.427 355.32 228.396 354.6 239.346 353.649C245.791 353.094 252.201 352.173 258.628 351.44C268.662 350.294 278.684 349.042 288.73 348.068C294.199 347.536 299.763 347.861 305.191 347.123C315.468 345.723 325.697 345.7 336.015 346.444C342.945 346.946 349.987 347.536 356.858 346.863C370.392 345.534 383.885 345.304 397.402 346.403C407.915 347.253 418.369 347.389 428.887 346.172C439.335 344.967 449.925 343.373 460.344 343.946C470.928 344.525 481.009 341.678 491.392 341.654C491.646 341.654 491.894 341.436 493.03 340.916V340.934ZM272.499 180.427C271.743 178.655 271.447 177.769 271.003 176.96C269.36 173.977 267.491 171.107 266.031 168.036C263.471 162.668 262.087 156.803 264.227 151.205C266.652 144.856 269.921 138.773 273.392 132.903C276.207 128.143 279.855 123.879 283.148 119.402C287.79 113.101 294.217 109.658 301.673 107.833C302.726 107.573 303.713 107.041 304.73 106.64C304.086 105.884 303.276 105.211 302.844 104.348C302.288 103.232 302.034 101.968 301.65 100.769C302.678 100.575 303.749 100.102 304.73 100.244C307.633 100.657 310.531 101.201 313.375 101.915C315.704 102.5 317.951 103.397 320.133 104.124C319.583 109.014 320.245 110.845 322.486 112.811C324.893 114.92 327.075 117.276 329.416 119.461C330.853 120.808 332.402 122.036 334.235 123.601C334.501 119.125 333.248 117.317 330.132 115.658C329.245 115.185 328.76 113.544 328.517 112.351C327.991 109.788 327.749 107.171 327.382 104.579C327.223 103.468 326.838 102.346 326.903 101.248C327.081 98.0173 326.602 94.9936 324.846 92.2178C323.592 90.2453 319.335 88.2728 318.152 89.4539C315.947 91.6391 313.28 92.6017 310.406 93.2336C306.888 94.0073 303.341 95.2534 299.811 95.218C296.434 95.1825 292.378 96.4464 289.712 92.7198C289.41 92.3005 288.222 92.4954 287.441 92.4423C286.46 92.3832 285.419 92.5604 284.502 92.2946C278.17 90.4343 272.038 91.7867 265.954 93.4167C263.305 94.1254 261.697 95.8971 261.431 98.9091C261.283 100.58 260.709 102.494 259.663 103.746C256.665 107.337 253.348 110.662 250.108 114.04C249.658 114.506 248.966 114.796 248.334 115.014C244.254 116.42 239.967 117.394 236.118 119.266C232.505 121.02 229.099 121.818 225.256 120.636C221.708 119.544 217.924 118.947 214.648 117.317C211.781 115.882 208.759 114.359 207.766 110.349C206.997 107.254 204.254 105.063 200.747 104.277C198.37 103.746 196.017 102.978 193.764 102.045C188.585 99.8953 183.588 97.3145 177.634 99.293C174.489 100.338 172.798 101.732 172.803 105.022C172.809 108.329 172.999 111.671 173.489 114.943C174.264 120.081 175.316 125.178 176.357 130.269C176.889 132.879 176.836 135.702 179.396 137.627C179.976 138.064 179.633 139.818 179.597 140.958C179.568 142.057 179.041 143.261 179.343 144.23C180.472 147.88 181.548 151.606 183.204 155.032C185.871 160.548 188.981 165.757 195.816 167.198C197.383 167.528 199.056 168.786 200.056 170.091C201.96 172.59 204.183 174.32 207.104 175.501C212.709 177.763 218.172 180.373 223.748 182.706C224.44 182.996 226.107 182.694 226.243 182.293C227.799 177.858 231.813 173.96 229.383 168.574C228.981 167.682 229.194 166.518 229.129 165.544C233.759 164.292 233.658 164.133 233.883 159.62C234.173 153.821 232.647 148.842 228.721 144.484C228.106 143.805 228.614 142.11 228.609 140.887C229.868 141.065 231.151 141.159 232.375 141.466C232.712 141.549 232.895 142.252 233.156 142.665C237.188 149.22 238.152 156.225 236.094 163.613C235.532 165.621 236.171 166.784 238.016 167.576C240.984 168.851 243.846 170.399 246.879 171.503C251.941 173.346 257.108 174.887 262.205 176.635C265.392 177.728 268.526 178.956 272.493 180.427H272.499ZM291.018 24.0179L290.191 23.3387C288.689 23.9529 287.128 24.4431 285.703 25.1932C279.417 28.5122 274.811 33.6502 270.341 39.054C267.278 42.751 264.541 46.4599 263.542 51.2081C263.051 53.5409 263.997 54.3323 266.25 53.535C267.544 53.0802 268.757 52.3775 270.069 51.9936C272.091 51.403 273.806 53.1393 273.144 54.2732C271.985 56.2457 269.644 57.5273 267.799 59.1041C265.15 56.104 263.258 58.4073 261.253 60.0254C260.958 60.2676 260.55 60.368 260.189 60.5215C252.443 63.7874 244.325 65.4115 235.994 66.3564C232.748 66.7226 229.229 67.4195 226.527 69.0849C223.991 70.6499 222.4 69.9885 220.413 68.8428C219.875 68.5298 219.373 68.1577 218.598 67.6439C218.155 70.2247 218.113 72.5752 217.268 74.5891C216.807 75.6817 214.985 76.2073 213.779 76.9868C213.3 75.8529 212.183 74.5123 212.467 73.6205C213.531 70.2956 214.968 67.0769 216.446 63.9055C217.628 61.3779 219.952 59.0569 220.206 56.4879C220.614 52.3952 220.526 48.0662 217.96 44.2806C216.233 41.7293 214.802 41.1092 212.691 43.3416C210.787 45.3555 209.297 47.8713 208.044 50.3754C203.727 59.0333 195.881 65.9785 195.42 76.5498C195.325 78.7054 193.315 78.5519 191.724 77.8963C190.087 77.229 189.507 76.0183 190.394 74.3588C190.761 73.6678 191.275 73.0536 191.63 72.3567C193.486 68.701 195.154 64.945 197.182 61.3897C201.297 54.1787 205.602 47.0741 209.806 39.9104C209.853 39.8277 209.652 39.5973 209.303 38.9359C187.721 52.3066 174.471 70.4432 174.388 96.783C174.719 96.7535 175.086 96.7417 175.435 96.6767C178.291 96.1393 181.188 95.0054 183.985 95.218C186.805 95.4306 189.507 97.0429 192.304 97.911C196.319 99.1571 200.363 100.326 204.425 101.419C204.981 101.567 205.785 101.236 206.329 100.899C211.39 97.7456 216.399 94.5034 221.466 91.3615C223.121 90.3398 224.866 89.4362 226.646 88.6507C230.335 87.0208 234.208 88.3909 237.904 88.1015C244.39 87.5877 250.108 88.9165 255.796 91.7454C257.268 92.4777 259.787 92.6076 261.141 91.8281C265.877 89.1114 271.033 88.7098 276.207 88.3318C278.14 88.1901 278.856 87.8889 278.436 85.7924C277.573 81.4575 279.074 77.7073 282.451 75.0556C286.022 72.2445 289.871 69.7463 293.78 67.4136C295.417 66.4391 296.08 65.6123 295.619 63.7225C295.086 61.5373 294.501 59.2813 294.525 57.0607C294.613 48.2552 291.947 39.5265 293.726 30.6737C293.774 30.4375 293.537 30.1422 293.259 29.4217C292.426 30.0949 291.639 30.5497 291.083 31.2052C285.23 38.1504 281.043 45.8338 280.381 55.1177C280.334 55.7792 279.465 56.9603 279.116 56.9131C277.679 56.7182 276.23 56.2575 274.941 55.5961C274.699 55.4721 274.965 53.8952 275.332 53.1452C276.083 51.5861 277.283 50.2277 277.892 48.6273C280.227 42.4971 282.143 36.1838 286.938 31.3233C288.157 30.089 289.179 28.6185 290.072 27.1243C290.61 26.2149 290.723 25.0514 291.024 24.0002L291.018 24.0179ZM327.128 131.084C327.128 129.885 327.081 129.123 327.14 128.373C327.228 127.139 327.684 125.857 327.459 124.694C326.241 118.386 321.511 114.695 316.644 111.412C314.788 110.16 312.009 109.723 309.679 109.811C294.903 110.366 285.301 118.812 278.253 130.93C276.189 134.48 274.196 138.076 272.097 141.608C267.781 148.86 265.581 156.236 268.414 164.818C271.193 173.239 276.313 179.801 283.344 184.608C290.049 189.197 298.244 189.102 305.055 185.671C314.522 180.905 323.178 174.509 332.095 168.692C337.558 165.125 340.237 159.638 341.029 153.431C341.644 148.588 341.147 143.616 341.579 138.738C342.064 133.239 338.345 130.936 334.566 128.627C332.349 127.269 330.12 126.973 328.742 129.968C328.577 130.334 327.997 130.505 327.128 131.096V131.084ZM430.868 292.548C432.607 293.097 433.848 293.581 435.131 293.877C437.236 294.367 439.371 294.733 441.494 295.152C450.723 296.971 459.936 298.926 469.201 300.562C475.173 301.619 481.186 302.121 486.869 304.702C491.753 306.922 496.932 308.582 502.094 310.106C510.082 312.462 518.159 314.529 526.212 316.655C529.872 317.624 533.568 318.474 537.269 319.277C537.908 319.413 538.659 319.035 540.344 318.693C535.566 313.667 531.581 309.019 527.111 304.903C522.872 300.999 518.053 297.733 513.618 294.036C510.762 291.656 508.232 288.898 505.399 286.494C499.51 281.504 493.402 276.768 487.596 271.689C483.185 267.838 478.987 263.722 474.877 259.546C469.698 254.278 464.701 248.827 459.628 243.453C456.305 239.939 452.976 236.425 449.553 232.811C447.4 235.22 446.017 237.352 446.431 240.612C447.093 245.809 447.199 251.077 447.542 256.316C447.572 256.794 447.572 257.284 447.667 257.751C448.914 263.881 448.382 270.118 445.958 275.604C443.338 281.534 439.868 287.392 433.103 290.02C432.329 290.321 431.862 291.396 430.874 292.554L430.868 292.548ZM341.029 192.392C339.888 197.571 338.605 202.296 339.734 207.239C339.923 208.066 340.367 209.005 340.999 209.53C343.424 211.538 346.622 212.607 348.266 215.578C348.367 215.755 348.822 215.826 349.1 215.796C352.186 215.477 355.391 215.737 357.975 213.381C362.475 209.276 362.475 204.481 357.969 200.565C355.675 198.575 353.452 196.484 351.394 194.258C350.909 193.732 350.98 191.754 351.223 191.677C352.257 191.323 354.002 190.909 354.498 191.435C357.224 194.335 359.891 197.347 362.132 200.624C365.36 205.343 368.157 210.363 371.243 215.182C372.858 217.704 374.72 220.066 376.441 222.517C378.191 225.015 382.75 226.32 384.541 224.602C387.835 221.442 391.323 218.342 391.465 213.21C391.554 210.085 391.708 206.955 391.986 203.843C392.287 200.441 391.181 198.303 387.646 197.258C386.552 196.933 385.801 194.967 385.269 193.602C385.144 193.289 386.682 192.468 387.214 191.712C387.687 191.039 388.178 190.047 388.018 189.338C387.675 187.827 386.954 186.391 386.333 184.944C383.909 179.364 381.745 173.582 375.631 170.788C374.572 170.304 373.449 169.956 372.355 169.542C372.172 169.784 371.988 170.021 371.805 170.263C372.94 172.767 374.076 175.271 375.306 177.993C373.638 178.85 371.74 178.407 370.723 176.239C369.192 172.968 367.938 169.56 366.738 166.146C366.478 165.402 366.933 164.398 367.063 163.518C367.873 163.648 368.766 163.601 369.481 163.938C371.249 164.77 372.899 165.851 374.661 166.707C381.538 170.038 386.611 174.71 388.757 182.488C389.875 186.539 392.388 190.248 394.534 193.963C395.817 196.183 398.159 196.437 400.524 195.882C402.434 195.433 404.467 194.589 404.249 192.362C403.723 187.106 403.51 181.643 401.807 176.735C400.21 172.135 397.343 167.741 394.185 163.961C389.467 158.309 383.56 154.229 375.512 155.581C372.142 156.148 368.63 156.544 365.508 157.807C358.691 160.56 351.867 163.465 348.822 171.149C347.758 173.848 346.067 176.31 344.535 178.802C342.962 181.36 341.236 183.822 339.616 186.261C343.065 189.931 344.488 192.455 343.885 193.833C343.116 193.437 342.353 193.053 341.047 192.386L341.029 192.392ZM339.781 248.373C340 249.111 340.503 250.014 340.473 250.894C340.408 252.572 340.538 254.597 339.663 255.82C338.616 257.278 338.404 258.56 339.155 259.794C341.206 263.155 343.489 266.373 345.718 269.622C345.901 269.893 346.421 269.917 346.776 270.082C352.435 272.734 358.034 275.533 363.776 278.008C369.002 280.258 372.278 279.035 375.311 274.458C377.889 270.566 380.692 266.822 383.276 262.93C384.559 261.005 385.612 258.92 386.676 256.853C386.906 256.404 386.96 255.584 386.699 255.211C385.351 253.316 384.074 251.314 381.301 251.207C379.947 251.154 378.581 250.8 377.257 250.451C370.28 248.627 363.356 246.577 356.325 244.989C352.222 244.061 347.953 243.111 343.678 244.67C345.416 249.123 341.39 246.855 339.787 248.373H339.781ZM406.247 180.173C407.513 185.317 410.055 189.805 407.3 194.784C404.68 199.514 401.411 202.774 395.498 201.498C395.427 202.124 395.368 202.408 395.368 202.697C395.368 202.993 395.492 203.3 395.433 203.571C394.463 208.154 394.918 212.259 398.762 215.601C399.548 216.286 399.495 217.934 399.826 219.139C399.607 219.233 399.388 219.334 399.17 219.428C398.212 218.548 397.26 217.663 396.302 216.783L395.45 217.208C395.983 219.635 396.349 222.121 397.094 224.484C398.153 227.832 399.43 231.122 400.754 234.382C401.233 235.563 402.12 236.585 402.824 237.677C403.941 236.945 405.088 236.254 406.159 235.463C406.525 235.191 406.691 234.653 406.975 234.252C410.256 229.651 413.567 225.08 416.802 220.45C417.387 219.611 417.872 218.59 418.043 217.592C418.369 215.702 418.44 213.765 418.646 211.473C417.754 211.355 416.731 211.143 415.708 211.101C411.853 210.948 408.808 208.975 406.07 206.583C405.384 205.981 405.508 204.457 405.254 203.353C406.72 203.371 408.222 203.217 409.641 203.495C410.209 203.607 410.552 204.699 411.048 205.302C413.579 208.396 420.302 208.331 422.383 204.947C424.666 201.233 427.137 197.766 424.583 192.646C421.556 186.586 418.688 180.704 412.633 177.119C411.391 176.387 409.961 175.968 408.618 175.407C408.417 175.655 408.222 175.903 408.021 176.145C409.446 180.131 413.721 183.208 412.196 188.199C410.847 185.246 410.753 181.436 406.241 180.173H406.247ZM344.541 229.45C348.059 232.492 351.778 233.561 356.042 234.022C361.759 234.636 367.548 235.64 373.005 237.406C378.64 239.224 383.926 242.142 389.348 244.616C390.632 245.201 392.057 245.839 391.997 243.642C391.873 239.065 391.986 234.429 389.603 230.2C388.278 227.85 387.09 227.389 384.583 228.529C383.489 229.031 381.881 229.722 381.065 229.285C378.534 227.921 375.595 226.533 374.058 224.295C371.031 219.889 366.714 217.426 362.321 214.621C360.417 217.84 355.705 217.981 354.392 221.944C354.285 222.257 353.535 222.6 353.132 222.547C347.634 221.797 347.113 226.746 344.535 229.456L344.541 229.45ZM391.495 222.93C391.672 224.242 391.696 225.588 392.051 226.846C392.807 229.545 393.765 232.185 394.569 234.872C395.456 237.837 396.456 240.79 397.011 243.813C397.201 244.859 396.249 246.146 395.705 247.268C395.397 247.9 394.64 248.361 394.463 249.004C393.706 251.715 392.949 254.438 392.482 257.202C392.228 258.702 392.181 260.456 392.725 261.82C393.464 263.68 395.078 265.174 395.929 267.005C397.857 271.151 400.139 272.084 404.172 269.763C410.723 265.995 413.1 262.942 409.553 256.747C407.684 253.493 407.749 250.18 407.891 246.849C408.033 243.5 408.772 240.311 411.587 237.719C414.377 235.144 416.849 232.084 418.907 228.878C421.307 225.139 423.022 220.976 425.186 217.084C426.895 214.001 426.995 214.06 423.595 213.215C423.069 213.086 422.555 212.908 421.792 212.678C422.076 215.271 422.868 217.338 420.757 219.67C415.057 225.966 410.049 232.829 406.756 240.795C406.224 242.077 405.183 243.471 403.994 244.085C402.617 244.8 400.766 245.071 399.247 244.805C398.596 244.693 397.845 242.727 397.863 241.616C397.981 234.712 395.787 228.57 391.495 222.925V222.93ZM435.93 255.914C436.308 255.601 436.55 255.507 436.586 255.359C438.608 246.725 435.959 238.752 433.05 230.821C433.015 230.732 432.967 230.637 432.902 230.567C431.034 228.63 429.278 226.551 427.214 224.856C426.723 224.448 424.831 224.968 424.21 225.635C422.697 227.277 421.408 229.167 420.296 231.11C418.658 233.98 416.76 236.856 415.909 239.986C415.329 242.124 414.91 243.713 412.834 244.752C412.373 244.983 412.166 247.026 412.438 247.18C414.318 248.237 415.341 249.69 415.607 251.816C415.666 252.27 416.305 252.932 416.76 253.009C420.704 253.676 424.719 254.916 428.598 254.597C431.406 254.367 433.836 253.705 435.918 255.914H435.93ZM421.284 289.754C420.077 286.081 419.025 282.945 418.026 279.791C417.091 276.832 416.364 273.797 415.276 270.897C414.312 268.31 411.841 268.169 409.931 270.206C408.991 271.21 407.702 271.978 406.436 272.58C404.497 273.508 402.292 273.968 400.512 275.114C399.737 275.61 399.252 277.429 399.501 278.433C399.856 279.886 401.056 281.114 401.795 282.496C403.918 286.465 407.418 288.361 411.681 289.134C414.366 289.619 417.05 290.156 419.752 290.504C420.314 290.575 420.97 289.92 421.278 289.766L421.284 289.754ZM439.755 234.14C439.755 235.067 439.684 235.705 439.767 236.325C440.151 239.118 441.003 241.918 440.914 244.693C440.678 252.034 440.104 259.363 439.513 266.68C439.4 268.086 439.016 269.875 438.07 270.738C433.712 274.718 429.207 278.551 424.542 282.165C423.329 283.104 422.513 283.725 423.253 285.118C423.927 286.388 424.281 287.8 426.564 287.64C429.621 287.422 431.182 285.042 433.559 283.943C438.703 281.569 441.647 277.246 442.854 272.09C444.864 263.503 444.101 254.739 443.35 246.028C443.131 243.465 442.759 240.908 442.658 238.339C442.582 236.396 441.955 235.02 439.749 234.14H439.755ZM385.824 246.276C372.479 237.47 357.532 236.827 342.223 235.486C341.863 236.868 341.396 238.681 340.923 240.494C342.631 240.482 344.34 240.441 346.043 240.471C349.195 240.53 352.127 238.746 355.545 240.288C358.844 241.776 362.64 242.136 366.182 243.11C369.144 243.925 372.166 244.676 374.974 245.886C378.475 247.398 381.81 248.804 385.819 246.276H385.824ZM240.931 91.6686C241.256 94.8813 239.346 96.4936 236.987 98.2772C231.908 102.116 228.023 107.006 226.876 113.508C226.716 114.394 227.337 116.16 227.864 116.272C228.898 116.491 230.501 116.195 231.187 115.469C232.978 113.561 234.539 111.394 235.952 109.173C238.838 104.638 241.569 100.013 244.348 95.4129C245.058 94.2376 245.703 93.0269 246.377 91.8281C244.863 91.6627 243.349 91.4855 241.83 91.3379C241.658 91.3202 241.469 91.4619 240.931 91.6686ZM375.442 279.52C381.011 282.791 382.425 282.484 385.422 277.689C386.552 275.876 387.711 274.01 388.414 272.019C389.153 269.929 389.549 267.667 389.715 265.452C389.78 264.59 388.804 263.657 388.302 262.753C387.669 263.237 386.983 263.657 386.422 264.206C384.689 265.901 382.714 267.442 381.366 269.415C379.167 272.639 377.387 276.153 375.442 279.52ZM346.682 220.385C344.281 219.009 339.994 219.765 338.611 221.814C337.848 222.948 337.014 224.153 336.695 225.44C335.305 231.134 333.963 236.844 332.893 242.603C332.609 244.138 333.342 245.863 333.608 247.504C333.928 247.504 334.253 247.498 334.572 247.493C334.572 243.819 335.341 240.488 338.256 238.014C338.646 237.683 338.776 236.98 338.912 236.419C340.189 231.057 341.591 225.765 345.966 221.885C346.35 221.543 346.451 220.881 346.682 220.379V220.385ZM416.293 265.724C417.677 269.881 418.759 273.419 420.077 276.862C420.326 277.506 421.538 278.197 422.277 278.167C426.15 277.996 430.614 273.697 430.904 269.775C430.963 268.978 430.017 267.46 429.36 267.348C425.156 266.651 420.899 266.261 416.293 265.724ZM398.703 287.41C399.122 286.388 400.015 285.248 399.737 284.729C397.709 280.955 395.533 277.246 393.21 273.643C392.305 272.238 391.034 272.019 390.147 273.95C389.254 275.899 388.538 278.037 387.22 279.673C385.328 282.018 386.475 283.5 388.391 284.28C391.442 285.526 394.711 286.229 398.703 287.404V287.41ZM431.146 264.442C431.182 264.336 431.217 264.224 431.247 264.117C431.832 264.117 432.678 264.365 432.95 264.07C433.896 263.066 434.735 261.92 435.392 260.71C435.51 260.491 434.617 259.298 434.108 259.239C428.586 258.625 423.051 258.093 417.511 257.715C416.849 257.668 416.116 258.655 415.418 259.162C415.95 259.735 416.394 260.651 417.032 260.828C421.709 262.115 426.434 263.255 431.14 264.442H431.146ZM281.995 83.7253C285.59 83.5363 296.003 75.7584 296.653 72.8941C296.89 71.8606 296.488 70.6795 296.375 69.5633C295.5 69.8586 294.525 70.0003 293.768 70.4846C291.462 71.9551 289.055 73.343 287.039 75.1619C284.603 77.353 282.303 79.8216 281.995 83.7253ZM437.65 227.496C438.295 226.267 438.555 226.007 438.543 225.753C438.194 218.554 436.367 212.082 430.111 207.54C427.421 205.591 426.168 205.674 424.299 208.804C425.499 209.448 426.635 210.351 427.912 210.676C431.022 211.467 432.352 213.641 433.08 216.464C433.618 218.537 434.032 220.669 434.8 222.653C435.392 224.171 436.456 225.511 437.65 227.496ZM334.815 251.786C331.87 252.595 330.279 259.96 331.521 263.598C333.165 268.411 336.795 270.761 341.005 269.244C336.482 264.365 333.443 258.962 334.809 251.786H334.815ZM245.85 105.813C249.954 103.073 253.023 100.262 256.103 96.47C251.178 96.7417 247.606 100.108 245.85 105.813ZM302.631 88.6271C303.116 89.0287 303.595 89.4244 304.08 89.826C305.996 87.6172 307.97 85.4498 309.78 83.1584C310.117 82.7332 309.803 81.8059 309.792 81.1091C309.094 81.2272 308.071 81.0914 307.752 81.4988C305.948 83.8021 304.322 86.2353 302.631 88.6271ZM220.81 105.518C218.923 107.301 217.185 108.854 215.577 110.532C215.139 110.986 214.808 112.333 214.956 112.422C215.707 112.888 216.724 113.467 217.475 113.29C219.651 112.776 221.572 108.323 220.804 105.518H220.81ZM297.611 87.8357C297.948 88.0661 298.285 88.2905 298.622 88.5208C300.591 85.7805 302.56 83.0403 304.529 80.3059C304.08 80.0047 303.624 79.7035 303.175 79.3964C301.318 82.2075 299.468 85.0246 297.611 87.8357ZM321.765 76.7034C319.766 77.288 317.543 77.4416 317.803 80.1169C317.851 80.6248 319.577 81.5343 320.204 81.3217C322.197 80.6366 323.131 79.1661 321.765 76.7034ZM309.159 88.2137C309.354 88.4618 309.549 88.7098 309.744 88.9638C311.453 88.0011 313.215 87.1152 314.823 86.0109C315.219 85.7392 315.361 84.2509 315.178 84.1506C314.48 83.7785 313.191 83.3355 312.86 83.6663C311.483 85.0364 310.365 86.6723 309.159 88.2137Z" fill="white" stroke="white" stroke-width="2"/>
<path d="M420.964 114.729C420.314 114.765 419.327 115.089 419.061 114.788C416.335 111.711 412.716 109.414 411.593 104.943C410.984 102.504 408.423 101.471 405.893 101.996C401.594 102.894 397.349 104.057 393.103 105.174C384.595 107.406 376.139 109.798 367.353 110.855C365.224 111.109 363.255 112.526 361.168 113.3C358.46 114.31 355.722 115.255 352.967 116.135C351.17 116.714 349.437 117.08 350.679 119.702C351.004 120.393 350.431 121.515 350.271 122.436C349.952 122.466 349.638 122.495 349.319 122.525C348.249 120.357 347.001 118.243 346.226 115.975C346.043 115.432 347.279 113.861 348.113 113.619C352.204 112.42 356.385 111.534 360.518 110.495C365.041 109.361 369.547 108.168 374.064 107.01C376.518 106.384 379.049 105.959 381.402 105.061C382.265 104.737 383.122 103.384 383.276 102.392C384.222 96.374 383.986 90.2615 381.272 84.8341C376.944 76.1763 368.015 72.7745 357.863 75.0896C354.617 75.8278 351.371 76.8141 348.083 76.9912C346.274 77.0916 344.388 75.751 342.111 74.9006C341.786 80.7768 341.065 86.783 343.991 92.2282C344.867 93.8522 347.569 95.2874 349.496 95.3818C352.618 95.5295 354.907 97.0177 357.278 98.4765C359.235 99.6812 359.045 101.406 357.461 103.048C356.065 104.5 354.729 106.101 353.771 107.855C352.772 109.68 351.489 109.071 350.673 108.28C349.987 107.613 349.39 105.882 349.774 105.25C351.625 102.215 351.749 102.061 348.704 100.171C346.475 98.7836 343.968 97.7914 341.892 96.2205C339.037 94.0589 338.226 90.7399 338.025 87.3323C337.783 83.1214 337.842 78.887 337.44 74.6998C337.251 72.7037 336.382 70.7547 335.666 68.8354C335.075 67.2526 333.94 65.3391 336.045 64.5182C337.523 63.9395 339.533 64.5123 341.242 64.8608C341.857 64.9848 342.389 65.912 342.797 66.5735C345.541 71.0382 349.106 72.1544 354.368 71.18C359.17 70.2941 364.142 69.7626 369.003 69.9634C371.208 70.0579 373.55 72.0304 375.418 73.6309C378.15 75.9754 380.704 78.5917 382.957 81.397C384.193 82.9325 385.062 85.029 385.375 86.9838C386.15 91.8856 386.44 96.8701 387.131 101.79C387.214 102.362 388.71 103.266 389.366 103.13C391.761 102.64 394.055 101.719 396.42 101.057C401.239 99.7049 406.029 98.2343 410.919 97.1949C412.923 96.7697 414.549 98.0335 414.508 100.431C414.443 103.922 416.199 106.497 418.292 109.107C419.557 110.684 420.066 112.863 420.911 114.776L420.959 114.723L420.964 114.729Z" fill="white" stroke="white" stroke-width="2"/>
<path d="M138.781 336.91C139.585 335.912 140.005 335.056 140.691 334.619C141.714 333.969 142.902 333.337 144.061 333.26C144.694 333.219 146.054 334.495 145.953 334.902C145.61 336.331 145.125 338.357 144.067 338.877C135.558 343.028 128.256 349.005 120.303 353.948C114.361 357.639 107.331 359.913 100.495 361.732C96.2737 362.854 91.839 361.295 88.8176 357.309C87.026 354.946 84.8087 352.909 82.9107 350.623C82.3253 349.915 81.6394 348.586 81.9292 348.013C82.4554 346.973 83.5552 345.845 84.6372 345.532C89.9706 343.991 95.3572 342.627 100.761 341.369C102.423 340.979 104.321 341.475 105.923 340.961C110.198 339.591 114.337 337.808 118.595 336.361C122.467 335.044 126.364 333.638 130.361 332.876C132.88 332.392 135.482 333.355 137.374 335.428C137.752 335.841 138.142 336.249 138.775 336.916L138.781 336.91ZM133.761 340.448C133.625 340.099 133.489 339.751 133.353 339.402C128.847 338.835 124.099 338.109 120.067 340.589C114.255 344.168 107.733 344.782 101.382 346.271C97.8879 347.092 94.417 348.048 91.0172 349.188C90.42 349.389 89.6572 351.125 89.9292 351.568C91.7504 354.551 94.151 357.811 97.7814 357.474C102.754 357.013 107.94 355.968 112.416 353.86C118.009 351.232 122.964 347.263 128.209 343.891C130.042 342.709 131.916 341.587 133.767 340.436L133.761 340.448Z" fill="white" stroke="white" stroke-width="2"/>
<path d="M157.667 40.8889C157.968 43.1035 158.258 45.3182 158.577 47.5329C158.873 49.6058 157.649 50.7279 155.863 49.7239C154.468 48.9384 153.155 47.7691 152.215 46.4698C147.366 39.7845 141.578 34.2567 133.749 31.2211C131.112 30.1994 128.392 29.2722 125.631 28.7052C119.281 27.406 117.666 22.7286 117.099 17.2716C116.898 15.3286 117.181 13.3384 116.98 11.3954C116.785 9.48783 116.052 7.63342 115.928 5.72585C115.839 4.37933 115.91 2.33003 116.726 1.77488C118.193 0.770901 120.327 0.410648 121.462 2.77296C123.609 7.24363 127.18 10.2201 131.674 12.0155C134.009 12.9545 136.552 13.7636 139.035 13.8817C143.145 14.0766 145.965 16.2499 148.667 18.8898C148.738 18.9607 148.791 19.0552 148.868 19.1024C157.596 23.9924 157.389 32.5794 157.672 40.8948L157.667 40.8889ZM153.421 40.6172C153.516 39.5837 153.711 38.5265 153.687 37.4753C153.51 28.5753 147.461 20.3072 139.798 18.5178C133.318 17.0059 127.174 14.8207 122.083 10.3146C121.77 10.0371 121.232 10.0134 120.487 9.77131C120.487 11.3541 120.635 12.7006 120.463 13.9998C119.688 19.7107 122.148 23.579 127.712 25.463C131.112 26.6146 134.748 27.4768 137.734 29.3431C143.074 32.6739 148.005 36.6662 153.421 40.6113V40.6172Z" fill="white" stroke="white" stroke-width="2"/>
<path d="M59.171 140.22C60.6373 140.733 62.5058 141.017 62.5472 141.466C62.6595 142.665 62.2988 144.182 61.5657 145.145C58.7925 148.771 56.4097 148.464 53.0039 145.458C50.7393 143.456 47.6173 142.411 44.862 140.97C42.7866 139.883 40.2381 139.28 38.6949 137.686C36.3061 135.223 34.4672 132.182 32.6224 129.241C30.0444 125.13 27.7266 120.86 25.19 116.72C24.2558 115.197 24.4391 112.173 25.935 111.104C27.7207 109.828 29.6246 109.586 31.1206 111.517C34.3549 115.669 38.8368 117.624 43.6676 119.236C47.7415 120.595 51.5316 122.78 56.114 122.331C56.794 122.266 58.1717 123.925 58.3373 124.935C58.8517 128.012 58.9877 131.16 59.1591 134.284C59.2715 136.322 59.1828 138.377 59.1828 140.225L59.171 140.22ZM33.4266 119.821C33.2728 120.518 33.0363 120.931 33.1309 121.244C36.1879 130.977 42.6801 137.208 52.5368 139.812C53.2522 140.001 55.0793 138.867 55.1207 138.259C55.3217 135.247 55.576 132.081 54.7955 129.247C54.4644 128.048 51.6499 127.522 49.9529 126.719C48.7999 126.176 47.6292 125.668 46.4466 125.177C42.2248 123.429 37.9972 121.699 33.4325 119.821H33.4266Z" fill="white" stroke="white" stroke-width="2"/>
<path d="M304.772 303.974C294.844 302.468 285.058 301.44 276.242 296.58C274.539 295.641 272.553 295.098 271.074 293.905C269.437 292.576 267.19 290.751 267.131 289.074C267.071 287.39 269.029 284.792 270.732 284.06C275.006 282.235 279.571 280.882 284.148 280.008C288.352 279.211 292.745 278.874 297.008 279.111C300.124 279.288 303.548 280.12 306.161 281.739C311.205 284.863 315.982 288.507 320.464 292.399C323.356 294.909 322.676 297.046 319.63 299.48C315.166 303.053 309.59 302.379 304.766 303.962L304.772 303.974ZM304.05 299.426C305.304 299.426 306.705 299.586 308.047 299.391C310.436 299.048 312.86 298.694 315.143 297.956C317.62 297.153 318.075 295.227 316.313 293.462C312.021 289.144 307.426 285.182 301.437 283.41C299.604 282.867 297.676 281.898 295.79 284.018C295.033 284.869 292.757 285.341 291.74 284.839C286.531 282.258 277.023 283.014 272.706 286.711C270.921 288.241 270.992 289.587 273.02 290.904C282.415 296.999 292.644 300.135 304.038 299.421L304.05 299.426Z" fill="white" stroke="white" stroke-width="2"/>
<path d="M129.037 273.217C124.933 271.735 120.812 270.306 116.738 268.741C115.485 268.256 114.444 267.17 113.173 266.768C110.01 265.77 109.797 263.166 109.862 260.673C109.927 258.063 112.375 257.644 114.326 257.171C115.911 256.787 117.667 256.51 119.234 256.793C125.779 257.963 132.531 258.754 138.178 262.563C139.775 263.638 140.78 266.101 141.229 268.109C141.407 268.906 139.509 270.666 138.231 271.168C136.274 271.936 134.039 272.024 131.917 272.349C131.047 272.485 130.154 272.491 129.273 272.556C129.191 272.774 129.114 272.993 129.031 273.217H129.037ZM119.641 260.933C120.008 261.642 120.44 262.079 120.422 262.498C120.239 266.065 122.598 266.851 125.424 267.288C126.672 267.483 127.866 268.109 129.114 268.209C130.84 268.351 132.602 268.304 134.323 268.091C134.92 268.014 135.795 267.235 135.866 266.691C135.937 266.118 135.334 265.079 134.784 264.878C129.977 263.095 125.312 260.667 119.647 260.939L119.641 260.933Z" fill="white" stroke="white" stroke-width="2"/>
<path d="M154.893 248.603C165.17 248.65 169.055 250.765 172.993 260.208C174.01 262.641 172.673 264.33 170.024 264.342C166.039 264.366 162.048 264.584 158.074 264.425C156.584 264.366 155.083 263.568 153.658 262.936C151.949 262.175 150.624 260.958 148.295 261.625C146.249 262.21 144.085 257.403 145.338 254.834C147.603 250.198 149.347 248.65 154.893 248.603ZM152.173 253.576C154.154 256.027 155.739 258.891 158.128 260.704C160.972 262.866 164.525 261.738 167.689 260.704C168.239 260.521 168.877 258.921 168.641 258.283C166.689 253.027 157.743 250.233 152.173 253.576Z" fill="white" stroke="white" stroke-width="2"/>
<path d="M94.3998 287.16C92.2062 285.512 89.7109 283.841 87.5114 281.839C86.9851 281.36 87.0738 279.128 87.5409 278.862C88.552 278.283 90.2254 277.947 91.2246 278.401C97.0665 281.047 102.855 283.539 109.531 282.967C110.849 282.854 113.049 283.539 113.439 284.455C114.007 285.778 113.291 287.644 113.12 289.274C111.494 289.032 109.82 288.955 108.248 288.518C104.446 287.455 100.715 286.114 96.8832 285.175C96.2742 285.028 95.2867 286.416 94.4057 287.154L94.3998 287.16Z" fill="white" stroke="white" stroke-width="2"/>
<path d="M420.917 114.782C423.939 120.682 426.96 126.582 429.981 132.482C429.715 132.671 429.449 132.866 429.189 133.055C427.646 130.852 426.032 128.69 424.583 126.428C423.59 124.869 423.046 122.991 421.905 121.568C420.154 119.389 419.794 117.227 420.959 114.741C420.97 114.729 420.917 114.788 420.917 114.788V114.782Z" fill="white" stroke="white" stroke-width="2"/>
<path d="M299.775 140.077C300.378 146.172 301.153 152.261 301.496 158.373C301.638 160.942 300.751 163.558 300.526 166.169C300.366 168.005 300.721 169.901 300.455 171.714C300.331 172.565 299.261 173.935 298.681 173.905C297.824 173.864 296.411 172.86 296.304 172.116C295.749 168.147 295.524 164.131 295.21 160.133C295.175 159.655 295.163 159.076 295.382 158.686C299.072 152.237 296.381 145.475 296.428 138.848C296.44 137.467 296.618 136.073 296.913 134.726C296.949 134.573 298.752 134.46 298.876 134.726C299.474 136.031 299.799 137.467 300.171 138.866C300.266 139.232 300.183 139.646 300.183 140.036L299.781 140.071L299.775 140.077Z" fill="white" stroke="white" stroke-width="2"/>
<path d="M319.885 143C320.145 147.187 320.896 151.421 320.536 155.555C320.139 160.05 318.797 164.485 317.615 168.873C317.461 169.44 315.699 169.989 314.836 169.812C314.209 169.682 313.322 168.247 313.44 167.538C314.238 162.607 315.64 157.746 316.113 152.797C316.556 148.161 316.13 143.437 316.018 138.753C315.983 137.295 315.35 135.736 315.705 134.413C315.983 133.385 317.372 132.653 318.265 131.785C318.98 132.771 320.204 133.71 320.323 134.761C320.618 137.472 320.423 140.242 320.423 142.982C320.246 142.988 320.068 142.994 319.891 143H319.885Z" fill="white" stroke="white" stroke-width="2"/>
</svg>
