<svg width="1025" height="872" viewBox="0 0 1025 872" fill="none" xmlns="http://www.w3.org/2000/svg">
<g clip-path="url(#clip0_13_684)">
<path fill-rule="evenodd" clip-rule="evenodd" d="M797.945 261.657C794.97 266.352 792.92 271.179 788.953 283.214C784.721 296.041 782.935 302.72 782.01 309.068C781.15 315.878 781.282 323.681 782.472 326.987C786.043 336.773 797.482 337.765 803.367 328.839C807.533 322.425 809.583 313.763 812.757 290.223C815.336 270.584 815.137 262.318 811.765 256.566C809.781 253.127 808.062 252.598 804.954 254.384C801.979 256.169 800.326 257.822 797.813 261.79L797.945 261.657ZM756.354 327.582C755.692 330.095 756.552 355.288 757.544 361.305C761.115 384.184 762.239 389.804 765.28 398.136C766.206 400.649 768.52 405.74 770.504 409.311C774.405 416.518 776.323 418.7 785.977 427.032C790.275 430.669 791.664 431.528 794.441 432.322C804.425 435.297 811.964 431.462 830.081 414.27L838.082 406.666L841.19 400.516C842.975 397.144 845.819 392.317 847.67 389.672C851.638 384.118 853.224 380.018 855.473 369.835C858.118 357.668 858.118 354.23 855.274 351.387C853.423 349.535 848.397 349.403 845.29 351.188C840.396 353.966 834.247 361.57 830.742 369.306C829.817 371.422 827.635 374.662 825.849 376.844C823.932 379.159 821.551 382.861 819.898 386.101C817.386 390.995 816.724 391.92 812.492 396.02C809.98 398.533 806.674 401.31 805.219 402.236C803.83 403.227 801.78 404.881 800.722 405.939L798.739 407.922L795.3 405.013C792.391 402.5 791.465 401.178 788.754 396.483C784.655 389.077 784.522 388.813 781.348 377.836C777.844 365.868 775.728 356.875 773.943 346.361C771.959 334.856 769.843 328.64 767.132 325.929C763.76 322.557 760.916 322.226 758.337 324.805C757.544 325.599 756.75 326.921 756.486 327.715L756.354 327.582ZM848.133 258.417C837.487 270.518 829.817 285.462 824.196 304.836C818.708 323.946 823.932 338.03 836.429 337.831C840.463 337.765 842.314 336.972 845.488 333.798C848.133 331.153 848.926 328.111 850.249 316.474C850.91 310.655 852.497 300.075 853.886 293C855.208 285.991 857.258 273.626 858.514 265.625C860.3 253.524 860.432 250.879 859.572 250.02C858.448 248.895 857.985 249.094 854.613 251.805C853.753 252.532 850.844 255.574 848.199 258.483L848.133 258.417Z" fill="#FA00FF"/>
<path d="M680.376 415.32C675.351 400.112 671.185 370.555 673.235 364.537C674.227 361.562 676.674 359.909 679.583 360.041C681.567 360.173 682.162 360.504 683.749 362.487C685.931 365.331 691.353 377.498 696.378 391.119C704.445 413.072 705.305 414.857 712.049 423.057C714.43 425.966 718.199 431.057 720.579 434.496C726.464 442.894 750.269 468.549 757.013 473.707C763.89 478.909 772.288 483.03 782.206 486.072L796.423 490.37L800.853 489.246C803.234 488.585 809.78 487.064 815.4 485.808C821.021 484.551 826.575 482.964 827.898 482.303C831.733 477.145 856.992 448.316 858.91 446.134C862.282 442.232 862.546 442.1 863.737 442.761C865.588 443.687 866.183 447.853 866.183 460.152C866.183 472.318 864.596 480.914 860.761 488.717C858.248 493.875 857.719 494.536 851.57 500.685C845.553 506.703 844.627 507.364 840.197 509.414C834.51 512.059 831.27 513.05 821.88 514.902C818.244 515.894 799.795 519.927 795.96 519.927C790.406 520.059 788.29 519.663 781.677 517.415C777.446 515.96 769.114 512.654 763.295 510.009C753.31 505.446 752.385 504.917 746.632 499.958C743.326 497.049 739.16 493.808 737.573 492.751C735.589 491.428 732.614 488.717 728.911 484.617C725.803 481.245 718.86 473.641 713.504 467.756C706.627 460.218 702.792 455.589 700.412 451.886C698.56 448.977 694.659 442.96 691.684 438.397C685.071 428.214 683.352 424.908 680.178 415.386L680.376 415.32Z" fill="#FA00FF"/>
<path d="M919.805 244.018C923.508 255.656 923.575 275.824 922.318 278.667C919.872 284.817 941.692 236.414 941.56 236.546C941.428 236.679 941.229 234.761 941.163 232.315C940.899 226.496 939.378 223.52 932.832 216.18C927.211 209.899 921.988 202.162 920.401 197.666C919.475 195.153 904.597 152.504 905.787 153.297C889.389 131.609 876.627 154.95 879.404 156.669C877.42 175.316 892.827 176.176 892.496 194.36C893.951 198.856 906.845 223.256 911.342 229.207L913.524 232.05L919.938 244.018L919.805 244.018Z" fill="#FA00FF"/>
<path fill-rule="evenodd" clip-rule="evenodd" d="M299.77 74.7909C298.976 77.0391 297.918 80.6098 297.323 82.7918C296.596 85.8996 295.472 88.0817 292.496 92.6442C282.908 106.993 274.775 124.648 267.369 146.998L265.65 152.023L259.236 155.66C252.888 159.23 252.756 159.231 248.921 158.834C240.325 157.908 236.093 159.495 222.604 168.62C214.338 174.24 214.14 174.307 214.338 172.654C214.735 169.876 213.347 170.339 209.313 174.373C206.866 176.819 204.883 178.406 203.362 179.001C199.791 180.456 198.27 182.903 196.485 190.11C194.501 198.177 194.369 201.219 195.956 203.467C196.882 204.789 196.948 205.385 196.287 205.781C195.758 206.046 193.377 207.368 191.063 208.757C187.096 211.005 186.567 211.137 185.244 210.212C183.393 209.021 179.888 209.749 177.838 211.799C175.987 213.65 169.242 225.684 164.283 235.934C159.919 244.926 152.844 262.714 143.52 287.907C139.817 297.957 133.8 313.761 130.163 323.216C118.261 353.765 111.384 373.999 105.036 396.613C102.92 404.151 99.0192 417.707 96.4404 426.766C93.7954 435.758 89.1007 453.281 85.8606 465.778C82.6206 478.276 79.1822 491.5 78.1903 495.005C74.289 508.825 61.8578 550.218 56.568 567.146C40.5 618.391 33.2926 649.932 33.0942 670.629C32.9619 677.77 32.8297 678.828 31.4411 680.217C29.7219 681.936 29.4574 684.316 30.7137 686.498C32.2346 689.077 36.7971 691.259 46.3189 694.169C64.3044 699.591 67.4783 699.855 91.6795 697.475C91.8779 697.409 92.0101 698.863 92.0763 700.516L92.0762 703.558L88.1088 703.69C81.5626 703.889 79.3145 705.211 81.4965 707.393C83.2819 709.179 106.69 716.188 114.492 717.246C117.071 717.576 129.304 718.039 141.669 718.105L164.217 718.304L162.696 721.279C159.72 727.164 161.043 734.835 166.002 740.455C168.647 743.497 169.176 743.761 173.606 745.414C177.243 746.671 179.888 747.067 184.847 747.133C192.385 747.133 220.554 750.44 233.58 752.886C251.169 756.192 259.633 756.457 280.594 754.804C293.554 753.746 299.704 754.076 319.739 756.92C327.277 757.978 335.41 759.102 337.923 759.499C340.37 759.829 348.767 761.35 356.57 762.805C364.372 764.259 372.968 765.714 375.679 766.045C382.424 766.838 393.202 767.037 400.41 766.441L406.361 765.912L408.609 768.161C411.849 771.401 417.932 780.129 424.677 791.37C427.917 796.726 431.62 802.413 432.876 803.933C436.777 808.628 441.472 810.281 446.233 808.694C449.473 807.57 451.06 805.983 452.052 802.875L452.779 800.429L454.763 800.693C466.864 802.214 482.469 802.346 494.172 801.09C502.901 800.164 509.91 796.726 513.282 791.899C515.067 789.32 515.134 784.361 513.481 781.253L512.092 778.806L520.49 780.063C525.118 780.724 533.251 781.452 538.409 781.584C551.502 781.98 558.775 782.774 573.587 785.022C596.862 788.725 603.474 789.122 621.46 787.932C635.214 787.006 644.14 787.336 662.192 789.386C687.517 792.23 697.899 792.692 710.727 791.502C713.504 791.238 716.016 790.973 716.413 790.973C716.81 790.973 717.273 792.097 717.471 793.486C718.529 801.288 723.885 806.115 730.96 805.653C734.795 805.388 737.44 803.933 740.548 800.429C743.325 797.255 744.053 795.47 746.499 785.749C748.681 777.22 751.591 771.004 760.385 756.391C769.312 741.645 773.015 734.239 775.99 725.445C777.577 720.552 778.305 719.163 779.23 718.899C780.95 718.37 782.999 716.188 783.594 714.138C784.388 711.625 784.057 708.385 782.404 703.955C781.148 700.583 781.082 699.062 782.074 688.548C783.727 669.703 786.768 656.478 793.844 637.633C798.34 625.599 822.673 568.733 826.443 561.525C831.27 552.202 835.832 545.391 846.875 530.513C866.05 504.857 872.993 492.36 883.375 465.316C885.16 460.621 890.119 448.124 894.219 437.544C911.345 394.365 914.188 383.984 920.272 342.591C923.644 319.778 924.437 315.282 926.355 309.529C928.735 302.255 930.388 299.28 936.075 292.138C945.465 280.369 949.101 274.219 952.077 264.763L953.664 259.606L956.97 258.548C959.681 257.688 960.871 256.895 963.516 254.25C971.385 246.381 975.418 235.471 978.791 212.658C980.246 203.004 982.361 192.424 984.279 185.482C986.858 176.29 986.99 174.042 985.601 166.967C983.948 158.569 982.692 156.255 976.675 150.767C973.038 147.527 970.525 145.675 965.5 143.03C958.689 139.393 938.191 125.375 928.008 117.44C917.561 109.373 909.626 103.687 900.302 97.8018C881.06 85.7012 879.606 85.04 855.404 76.1795C836.427 69.2365 824.988 66.6577 805.812 64.9385C800.721 64.4756 792.984 63.6161 788.554 63.1532C783.991 62.5581 778.239 62.3597 775.065 62.7565C772.089 63.0871 764.617 63.4177 758.534 63.5499C751.789 63.6822 744.648 64.3434 740.482 65.203C736.647 65.9965 731.026 66.9883 727.985 67.3851C724.943 67.7818 718.794 68.9059 714.429 69.8317C710.065 70.7574 702.263 71.6831 697.237 71.9476C686.129 72.4766 684.079 72.9395 670.722 77.4359C662.721 80.1469 658.291 81.271 651.48 82.1306C646.587 82.7918 637.925 84.1804 632.37 85.2384C620.468 87.4866 612.203 88.4784 602.615 88.6768C596.069 88.8752 595.672 88.7429 593.953 87.0237C590.647 83.7176 585.952 83.2548 581.918 86.0981C577.554 89.1397 576.43 89.4703 572.198 88.9413C566.115 88.2801 563.668 89.2719 558.709 94.7602C556.461 97.2728 554.146 100.513 553.022 102.695L551.105 106.464L544.294 107.853C540.591 108.646 536.822 109.241 535.963 109.175C535.103 109.109 531.069 107.191 526.771 104.877C513.943 97.868 504.157 95.3553 493.313 96.281C488.42 96.6778 485.18 97.4051 471.228 101.042C464.483 102.893 460.582 102.563 449.539 99.7194C433.008 95.3553 426.661 94.5618 406.691 94.0328C394.458 93.7022 393.136 93.5699 387.317 91.454C383.879 90.2638 377.2 87.156 372.572 84.6433C357.496 76.444 350.883 74.1958 337.725 73.0717C331.509 72.5427 328.269 71.8154 325.756 70.3607C322.318 68.377 315.441 65.732 312.796 65.3353C306.977 64.5418 301.952 68.2447 299.505 75.0554L299.77 74.7909ZM216.719 200.293L214.933 209.881L218.769 206.575C220.885 204.723 223.265 203.004 224.059 202.607C226.373 201.616 228.753 202.012 229.613 203.401C230.539 204.988 228.423 211.203 223.199 221.849C215.33 237.917 208.189 255.242 203.362 269.723C199.857 280.368 197.477 288.965 191.989 311.38C186.831 332.408 183.326 344.773 174.069 375.189C170.432 387.158 165.804 402.631 163.754 409.574C159.191 425.113 147.488 460.885 140.611 480.193C132.213 503.667 120.179 540.696 114.757 559.475C106.293 588.834 88.5717 643.981 83.4802 656.478C81.9594 660.247 80.6369 663.553 80.703 663.752C80.6369 663.95 81.4965 664.016 82.5544 663.884C83.6124 663.752 85.3978 663.553 86.5219 663.487C87.7121 663.355 91.2827 663.487 94.5889 663.752L100.606 664.215L104.177 653.635C106.16 647.816 109.467 639.352 111.45 634.856C114.69 627.516 115.021 626.524 114.161 625.665C113.037 624.541 112.839 620.904 113.831 619.912C114.161 619.581 114.095 618.061 113.699 616.606C112.905 613.696 113.368 611.118 115.153 609.332C116.74 607.745 117.137 606.026 120.84 587.644C122.625 578.585 124.873 568.005 125.733 564.236C128.378 553.524 134.726 534.084 140.611 518.809C149.075 496.856 153.637 483.433 160.514 460.951C168.515 434.568 176.78 409.507 187.757 378.429C192.452 365.139 200.452 341.136 205.544 325.2C224.654 265.358 230.539 247.968 242.904 216.295C246.673 206.443 251.764 193.019 254.145 186.407C257.98 175.827 258.244 174.505 256.922 175.695C250.442 181.25 245.284 182.175 250.508 176.819L252.425 174.902L248.524 174.968C245.945 175.034 244.292 175.365 243.499 176.158C241.317 178.34 231.993 184.093 225.579 187.333C221.943 189.118 218.967 190.639 218.901 190.705C218.835 190.771 217.975 195.202 216.983 200.425L216.719 200.293ZM187.624 225.42C186.963 229.652 179.227 252.597 171.292 274.153C168.25 282.352 163.027 297.098 159.654 306.686C156.348 316.34 151.786 329.234 149.604 335.383C139.288 364.477 110.723 450.438 108.144 460.158C106.557 466.109 103.516 478.408 101.267 487.401C91.415 527.141 84.6704 550.152 73.4956 581.164C63.9738 607.481 54.0553 638.427 50.5507 652.908C48.1042 663.024 45.856 675.985 46.4511 676.58C46.7156 676.844 47.9058 677.109 49.096 677.241L51.2781 677.439L50.0217 675.654C49.2944 674.53 48.8976 672.943 49.0299 671.488C49.3605 667.19 52.0055 665.736 59.8742 665.669C62.9158 665.669 65.6269 665.339 65.8914 665.074C66.6848 664.281 72.3715 643.386 77.6614 621.962C80.3724 610.919 84.6043 595.182 87.0509 586.784C89.4974 578.387 93.7955 562.98 96.6388 552.334C104.64 522.116 108.276 510.015 120.311 474.308C126.46 455.992 135.453 428.353 140.082 413.012C144.843 397.671 152.645 373.867 157.34 360.047C168.25 328.506 173.342 312.438 178.962 292.138C184.12 273.492 189.013 258.812 193.179 249.224C195.427 244.067 196.287 241.223 196.683 237.124C196.948 234.214 197.94 227.271 198.733 221.717C199.527 216.163 199.923 211.666 199.725 211.732C199.395 211.799 196.683 214.113 193.642 216.89L188.154 221.849L187.558 225.486L187.624 225.42ZM317.888 96.3471C317.491 97.1406 314.383 102.761 311.011 108.778C302.084 124.582 298.513 132.781 290.182 156.321C283.834 174.307 273.122 203.136 267.039 218.609C259.435 237.851 253.351 254.117 247.268 271.574C238.011 298.156 200.519 409.838 188.087 448.19C175.193 487.798 172.086 496.724 162.498 520.991C153.24 544.531 147.091 563.641 142.066 583.875C136.908 604.638 134.461 612.506 132.213 615.548C131.287 616.738 130.626 617.928 130.692 618.259C130.957 619.449 169.97 627.648 186.963 630.095C199.328 631.88 209.776 632.674 236.291 634.062C280.594 636.311 317.359 641.468 340.7 648.676C344.205 649.8 347.18 650.659 347.379 650.726C347.841 650.792 352.47 637.038 352.272 636.311C352.073 635.319 317.954 630.955 291.901 628.442C273.254 626.723 262.013 625.004 242.375 621.102C224.984 617.598 213.082 615.746 202.106 614.688C182.136 612.837 173.143 609.531 169.242 602.72C166.862 598.488 167.126 593.595 169.903 590.818C170.631 590.09 171.557 588.503 171.953 587.181C172.35 585.859 174.73 580.04 177.177 574.155C182.93 560.467 193.972 527.075 199.725 506.246C202.172 497.319 206.139 481.582 208.586 471.333C217.975 430.865 227.695 398.266 242.838 355.352C249.45 336.706 271.204 267.739 275.503 251.671C276.164 249.291 282.445 229.784 289.587 208.36C296.662 186.87 303.539 165.182 304.795 160.09C308.763 144.353 312.598 134.831 320.599 121.011C323.31 116.449 324.764 114.465 328.864 110.365C333.427 105.803 334.154 105.208 336.667 104.546C339.576 103.753 341.626 104.216 343.411 106.001C344.734 107.324 344.668 112.812 343.213 117.308C342.618 119.226 342.287 120.879 342.485 121.077C342.684 121.276 349.362 122.796 357.297 124.383C365.298 126.037 377.465 128.549 384.54 130.07L397.302 132.781L399.021 131.062C401.269 128.814 404.575 127.756 407.617 128.417C409.799 128.88 410.394 129.21 412.642 131.988L415.221 135.095L428.975 136.286C447.82 137.939 458.135 138.335 476.451 137.873C493.379 137.476 505.744 137.542 522.672 138.335C528.623 138.6 534.442 138.864 535.5 138.864C536.624 138.931 537.549 138.534 537.814 138.005C538.211 137.211 537.483 137.013 533.913 136.616C528.292 136.021 523.597 134.236 515.398 129.739C501.711 122.135 499.528 121.937 478.104 127.756C470.963 129.739 463.557 130.268 457.474 129.475C454.697 129.078 447.423 127.491 441.34 125.904C428.512 122.598 422.958 121.937 404.708 121.408C384.738 120.747 376.803 118.498 361.793 109.043C347.18 99.8517 344.072 98.4631 332.964 96.8761C329.062 96.281 324.368 95.4214 322.582 94.9586C319.342 94.099 318.946 94.2312 317.821 96.5455L317.888 96.3471ZM334.286 140.914C332.898 144.551 329.922 152.023 327.608 157.379C323.045 167.893 322.715 169.017 312.664 200.491C308.961 212.261 302.349 232.892 297.984 246.381C293.62 259.87 287.669 279.443 284.694 289.824C272.13 333.862 267.568 348.079 258.046 373.338C250.309 393.902 244.491 411.623 238.341 432.717C235.762 441.643 231.927 454.736 229.877 461.679C227.828 468.622 224.257 480.921 221.943 489.054C214.537 515.239 210.702 527.538 206.999 537.985C199.593 558.748 196.617 565.691 188.087 581.098C184.054 588.437 182.93 591.016 183.062 592.339C183.194 593.793 182.93 594.322 181.607 595.38C179.557 596.901 179.756 597.232 184.252 598.686C188.55 600.075 192.253 600.736 203.362 601.794C216.851 603.117 226.373 604.704 249.516 609.2C270.213 613.234 280.197 614.887 301.224 617.664C307.308 618.457 321.59 620.97 333.03 623.152C344.469 625.334 354.123 627.053 354.322 626.855C354.52 626.657 355.38 621.036 356.041 614.292C356.768 607.613 357.694 600.34 358.025 598.025C358.752 593.066 363.248 574.684 366.554 562.781C370.125 549.954 391.814 484.227 399.484 462.935C405.435 446.272 416.742 418.302 418.792 414.797C419.519 413.673 419.321 412.285 417.932 408.251C416.94 405.408 415.486 399.589 414.626 395.423L413.105 387.687L409.006 383.984C405.104 380.479 404.84 380.083 403.385 376.115C401.203 370.23 401.468 362.163 404.046 349.005C408.873 324.869 417.469 305.826 426.661 298.883C428.71 297.362 428.975 296.833 429.041 294.916C429.107 292.205 430.496 288.7 432.083 287.113C434 285.196 438.1 284.005 441.803 284.402C443.72 284.6 446.035 284.402 446.828 284.005C457.937 278.98 463.028 277.459 470.434 277.195C476.055 276.996 480.154 277.922 483.13 279.972L485.18 281.36L489.279 264.829C495.892 238.248 497.28 234.082 505.876 216.229C512.687 202.012 516.324 193.482 520.424 181.977C522.407 176.555 525.383 168.818 527.036 164.785C528.689 160.751 529.813 157.379 529.615 157.313C529.482 157.181 521.878 157.247 512.952 157.313L496.619 157.511L497.346 160.619C498.801 166.967 495.297 181.58 489.412 193.416C486.039 200.227 481.212 205.451 477.113 206.773C471.823 208.36 467.062 207.17 463.293 203.401C459.193 199.301 458.267 193.747 460.45 185.481C462.037 179.398 467.128 167.43 470.765 161.28C472.22 158.768 473.41 156.652 473.41 156.519C473.41 156.387 468.649 155.726 462.764 155.131C456.879 154.536 450.994 153.941 449.539 153.676L446.96 153.345L445.77 156.916L444.58 160.487L446.96 159.561C451.986 157.71 456.548 160.024 457.606 165.049C458.201 167.76 456.35 173.844 453.507 178.803C450.729 183.696 439.488 195.466 435.653 197.582C429.57 200.888 423.949 200.425 419.85 196.326C414.626 191.102 415.486 183.233 422.561 170.471C425.074 165.843 430.297 158.503 432.876 155.924C436.315 152.486 435.984 152.288 425.536 151.097C416.213 150.105 415.816 150.105 415.684 151.56C413.039 168.356 406.89 186.804 402.129 192.358C399.418 195.598 396.641 196.524 393.665 195.268C388.309 193.086 387.846 187.994 392.012 175.232C396.112 162.537 399.219 151.362 398.823 151.362C398.558 151.362 397.5 152.684 396.508 154.337C393.599 158.834 388.309 163.991 385.862 164.719C381.432 166.107 378.192 164.057 378.126 159.892C378.126 157.908 378.457 157.048 379.911 155.594C380.903 154.602 383.151 151.957 384.937 149.643C387.648 146.138 388.044 145.345 387.317 145.014C386.788 144.749 382.556 143.691 377.795 142.634C373.101 141.509 363.38 139.195 356.239 137.476C349.098 135.757 341.956 134.037 340.37 133.641C338.783 133.244 337.394 133.046 337.262 133.178C337.129 133.31 335.939 136.484 334.551 140.121L334.286 140.914ZM567.702 113.407C570.743 120.284 570.81 123.788 568.165 127.227C566.974 128.814 565.916 129.475 562.015 130.731C559.436 131.591 556.99 132.715 556.527 133.178C556.064 133.641 554.94 135.691 554.014 137.674C552.692 140.716 552.493 141.84 553.088 143.89C554.279 147.989 551.964 152.684 547.931 154.47C546.41 155.197 541.649 165.512 530.739 192.557C525.779 204.657 523.597 209.749 514.935 228.329C510.108 238.711 507.794 245.786 503.165 264.697C495.759 294.321 494.9 296.899 487.825 309.132C481.146 320.704 479.559 324.142 470.368 348.145C464.02 364.808 461.97 368.974 454.829 380.083C449.87 387.819 444.712 398.002 439.753 409.441C438.1 413.343 433.802 422.798 430.231 430.336C415.949 460.621 415.221 462.671 389.698 545.722C387.912 551.607 385.003 562.848 383.284 570.782C381.564 578.717 379.118 588.834 377.994 593.264C375.481 602.786 374.225 609.465 372.704 621.697L371.58 630.756L375.679 631.946C380.705 633.401 382.953 634.856 382.358 636.244C381.763 637.501 380.242 637.831 374.555 637.964L370.191 638.096L367.877 646.758C364.835 658.131 363.843 662.826 362.455 672.546C361.132 681.671 359.149 687.358 355.247 692.714C353.793 694.698 352.602 696.549 352.602 696.946C352.536 697.276 353.462 698.467 354.586 699.723C356.504 701.773 356.966 701.971 362.851 702.831C370.919 704.021 373.96 705.211 376.01 707.79C377.928 710.237 377.861 713.873 375.746 716.651L374.291 718.634L378.39 722.205C385.4 728.288 397.632 738.405 399.021 739.397C399.748 739.86 403.187 740.653 406.625 741.05C414.031 741.976 419.519 743.761 423.751 746.803C428.38 750.109 429.57 752.225 428.644 755.267C428.181 756.655 427.057 758.573 426.065 759.565L424.28 761.35L430.496 769.946L436.711 778.542L439.753 778.674C441.406 778.74 446.101 779.336 450.134 779.931C457.54 780.989 477.377 781.518 480.088 780.658C481.543 780.261 481.543 780.129 480.154 779.269C477.774 777.682 466.467 768.491 458.4 761.482C454.036 757.647 441.472 745.613 429.372 733.512C406.625 710.766 402.526 706.137 396.442 695.954C395.054 693.64 393.863 691.788 393.599 691.788C393.467 691.788 392.409 692.978 391.483 694.565C389.235 698.004 387.251 699.194 385.267 698.533C383.35 697.805 383.284 696.549 385.135 696.946C386.391 697.144 386.458 696.946 385.466 694.499C384.738 692.582 384.606 690.466 385.003 687.027C385.333 684.316 385.928 676.183 386.259 668.843C387.185 650.593 387.78 645.766 390.028 639.022C391.086 635.848 392.938 629.103 394.128 624.078C398.823 604.307 400.343 600.141 406.493 589.76C411.188 581.891 411.584 580.569 414.097 566.551C416.213 554.516 418.858 544.862 421.437 539.771C422.23 538.184 424.545 534.547 426.528 531.77C431.223 524.959 433.273 520.132 438.364 502.874C445.043 480.458 446.564 476.424 457.342 453.479C458.73 450.504 463.888 435.825 468.913 420.881C473.807 405.937 479.692 389.472 481.94 384.314C486.701 373.338 488.288 368.577 492.255 354.294C498.206 332.87 503.165 321.167 513.282 305.363C519.828 295.114 523.928 287.444 530.276 273.558C536.293 260.399 545.418 240.959 549.584 232.165C551.303 228.594 554.411 221.122 556.461 215.501C558.577 209.947 562.213 200.756 564.594 195.069C568.165 186.606 568.892 184.159 568.892 181.117C568.892 176.092 572.529 165.975 579.075 151.891C582.05 145.609 584.894 139.063 585.555 137.344C587.142 132.847 586.348 120.416 583.968 113.01C582.976 109.902 582.05 107.39 581.918 107.39C581.852 107.456 580.133 107.985 578.149 108.646C576.166 109.307 573.388 109.836 571.934 109.704C568.429 109.506 566.71 110.96 567.702 113.275V113.407ZM593.887 107.853C594.283 108.514 595.077 109.307 595.738 109.704C596.399 110.101 598.118 112.481 599.639 114.928C601.094 117.44 602.483 119.49 602.615 119.49C602.747 119.49 603.739 119.16 604.797 118.895C605.855 118.499 611.872 117.507 618.286 116.515C639.842 113.341 650.885 110.894 664.374 106.398C679.715 101.373 681.963 100.844 695.254 100.116C711.52 99.1905 713.636 98.926 724.877 96.81C738.697 94.2312 746.565 93.5038 753.575 94.4295C765.94 95.9504 800.125 103.422 818.177 108.514C822.541 109.704 829.286 111.556 833.253 112.613C850.247 117.044 855.471 119.358 877.357 132.517C885.028 137.145 896.004 143.493 901.757 146.733C915.841 154.602 923.049 159.429 932.372 167.298C936.67 170.934 942.555 175.629 945.332 177.745C948.11 179.861 951.614 182.572 953.069 183.762C954.523 184.952 955.846 185.746 955.912 185.548C957.036 182.44 959.681 171.331 959.417 170.802C959.218 170.339 957.102 168.884 954.59 167.43C952.143 166.041 948.44 163.925 946.39 162.669C942.886 160.619 934.753 154.205 916.304 138.798C907.311 131.26 899.575 125.508 887.541 117.176C883.309 114.267 877.886 110.299 875.506 108.448C871.671 105.406 870.084 104.745 860.364 101.24C854.347 99.0582 846.147 95.8843 842.18 94.0328C828.757 87.8834 823.798 86.7593 798.274 83.3208C781.743 81.0726 780.619 81.0065 773.081 81.8C769.907 82.0645 764.088 82.4612 760.253 82.5935C756.352 82.6596 748.946 83.5853 743.656 84.511C738.498 85.4367 731.423 86.5609 728.183 87.0237C724.877 87.4205 719.323 88.214 715.884 88.743C712.446 89.2719 705.833 89.8009 701.205 89.9332C690.427 90.1315 687.914 90.6605 678.458 94.4295C668.87 98.1985 663.581 99.5211 653.53 100.844C649.232 101.439 641.231 102.827 635.743 103.951C619.807 107.191 607.706 108.051 597.259 106.596C595.275 106.332 593.556 106.2 593.358 106.398C593.159 106.596 593.358 107.191 593.754 107.853H593.887ZM602.945 139.261C602.813 140.319 601.887 144.816 600.697 149.18C599.573 153.61 597.325 162.47 595.672 168.884C591.969 183.696 589.721 188.192 584.762 191.036C582.91 192.094 582.381 193.02 578.083 203.269C570.413 221.386 564.131 234.942 556.395 249.952C552.361 257.688 546.939 268.929 544.294 274.88C535.698 294.056 531.466 302.52 525.978 311.182C516.456 326.258 513.084 334.524 505.678 361.237C502.636 371.949 500.19 378.892 495.429 389.869C493.379 394.564 488.155 408.912 483.725 421.939C474.931 447.925 472.153 454.802 466.07 466.175C462.037 473.779 456.614 486.078 456.879 487.269C456.945 487.599 457.672 487.401 458.466 487.004C460.251 485.88 471.426 481.317 475.393 480.127C481.278 478.342 495.164 471.862 499.991 468.754C502.702 466.969 507 464.39 509.513 462.803L514.076 460.092L511.827 457.315C507.992 452.554 502.306 442.503 500.653 437.544C498.669 431.725 498.603 426.104 500.52 418.897C502.835 409.97 504.686 407.061 508.786 405.342C511.563 404.151 511.563 404.284 509.778 403.16C507.463 401.639 505.017 396.68 504.818 393.307C504.686 389.604 506.736 387.29 510.637 386.563L513.216 386.1L514.01 381.603C515.266 374.396 518.572 365.403 523.928 354.361C526.639 348.74 531.069 338.623 533.714 331.746C540.459 314.025 542.443 309.661 550.047 295.445C558.577 279.377 560.164 276.864 564.263 272.632C569.09 267.805 573.521 265.623 581.588 264.168C585.158 263.507 588.597 262.714 589.192 262.383C589.985 261.986 591.374 258.482 593.688 251.406C597.523 239.769 599.705 235.471 604.731 230.445C609.756 225.42 611.74 224.494 622.452 220.791C637.726 215.568 639.313 213.981 644.802 198.706C646.653 193.681 648.835 188.06 649.695 186.407C654.72 176.356 661.002 172.72 678.128 170.141C692.014 168.025 694.791 166.702 706.759 156.718C710.925 153.213 719.058 146.799 724.877 142.435C730.696 138.071 738.432 132.186 742.201 129.343C752.318 121.739 757.873 119.094 768.849 116.713C771.494 116.184 773.61 115.523 773.544 115.325C773.544 114.531 747.888 111.093 744.516 111.423C742.598 111.622 737.044 112.68 732.151 113.738C720.447 116.316 714.628 117.11 702.131 117.441C687.451 117.837 683.88 118.498 668.408 123.392C648.042 129.872 629.858 133.509 613.856 134.434C608.368 134.765 604.532 135.691 603.342 136.881C603.078 137.145 602.813 138.203 602.747 139.327L602.945 139.261ZM119.65 652.18C117.732 660.181 116.145 666.926 116.277 667.19C116.674 668.116 130.097 668.976 139.354 668.711C152.381 668.38 161.175 669.24 177.309 672.546C185.112 674.133 194.303 675.786 197.874 676.183C207.528 677.241 223.067 677.572 244.094 677.043C254.475 676.844 269.155 676.448 276.759 676.381C294.083 676.117 302.811 675.456 317.954 673.406C324.566 672.48 331.707 671.819 333.889 672.017C341.692 672.414 345.726 675.654 345.527 681.275L345.461 684.25L346.651 682.531C348.37 679.886 348.503 677.902 347.379 668.976L346.321 660.776L339.179 660.247C335.212 659.983 324.5 658.925 315.309 657.933C295.273 655.751 290.579 655.42 264.724 654.296C223.199 652.445 212.685 651.717 197.014 649.535C188.418 648.345 171.094 644.642 158.133 641.336C148.017 638.757 146.826 638.625 147.025 639.749C147.355 641.534 146.297 641.402 144.115 639.352C143.123 638.36 140.941 637.104 139.421 636.509C136.71 635.517 136.445 635.517 134.924 637.038C132.213 639.749 126.791 640.146 124.477 637.831C124.146 637.501 123.683 637.302 123.551 637.567C123.353 637.765 121.7 644.444 119.716 652.379L119.65 652.18ZM439.753 323.216C437.439 326.456 434.595 332.87 432.347 339.747C428.644 350.988 425.603 363.552 425.47 367.916C425.338 372.016 427.917 394.167 428.512 394.233C428.644 394.233 430.694 390.728 432.942 386.497C435.19 382.265 438.761 376.181 440.943 373.073C451.655 357.336 452.779 355.154 462.037 332.143C467.855 317.728 473.873 304.702 475.46 303.115C475.79 302.784 476.385 301.792 476.782 300.867L477.443 299.28L474.6 299.214C470.434 299.148 462.632 301.793 458.863 304.504C455.887 306.686 441.671 320.638 439.819 323.283L439.753 323.216ZM108.541 694.235C107.814 696.681 107.351 698.731 107.483 698.863C107.615 698.996 108.872 698.797 110.26 698.334C116.211 696.747 133.337 695.491 148.083 695.557C156.811 695.557 163.82 695.557 163.688 695.425C163.291 695.028 156.48 693.507 152.315 692.78C150.133 692.449 144.578 692.053 140.082 691.92C130.097 691.722 123.815 691.127 116.344 689.738C113.236 689.143 110.525 688.945 110.26 689.209C109.996 689.474 109.202 691.722 108.541 694.102L108.541 694.235ZM666.093 205.98C661.994 218.543 659.812 222.709 654.257 228.263C648.504 234.016 642.09 237.256 630.717 240.166C628.006 240.893 624.502 242.149 623.179 242.943C620.865 244.331 620.468 244.728 618.815 248.1C617.823 250.15 616.104 255.44 614.914 259.804C612.269 269.59 610.616 273.359 607.376 277.261C603.012 282.286 597.391 284.865 587.869 285.923C581.852 286.65 579.141 287.774 577.29 290.287C573.19 295.974 560.891 319.117 554.411 333.532C550.444 342.26 545.55 352.179 543.501 355.419C532.193 373.867 530.805 376.578 528.424 385.439C526.793 391.566 526.507 394.806 527.565 395.159C529.416 395.688 529.152 396.746 526.904 397.275C525.383 397.605 524.92 398.068 523.267 400.515C522.077 402.366 519.961 404.614 517.448 406.73L513.547 410.103L514.869 418.831C515.596 423.658 516.588 428.749 517.183 430.27C517.712 431.725 520.159 435.626 522.473 438.866C527.3 445.545 527.631 445.743 531.135 443.561C538.078 439.263 554.014 418.963 570.347 393.77C572.529 390.398 577.488 383.852 581.455 379.223C588.795 370.429 588.597 370.759 594.614 357.865C597.457 351.583 602.086 345.236 605.59 342.524C606.913 341.466 610.153 339.284 612.798 337.565C618.617 333.73 619.344 332.738 623.84 322.952C632.701 303.644 636.206 298.949 647.05 291.411C654.389 286.32 659.547 281.294 661.861 276.996C662.853 275.211 665.564 269.194 667.945 263.639C670.325 258.085 674.359 249.687 676.871 245.059C679.45 240.364 682.624 234.148 683.88 231.173C686.658 224.825 691.22 217.617 694.725 214.113C696.113 212.724 699.419 209.815 702.263 207.633C706.825 203.996 707.751 202.938 712.776 196.193C724.943 179.927 733.076 171.926 744.582 165.182C748.02 163.198 752.45 160.619 754.434 159.429C759.856 156.255 766.733 150.701 769.444 147.328C771.626 144.617 771.692 144.419 770.436 144.353C766.799 144.154 763.625 146.006 754.434 153.478C749.541 157.445 741.209 163.793 735.92 167.496C730.63 171.199 724.546 175.563 722.43 177.15C707.553 188.457 699.221 191.763 683.616 192.821C675.813 193.35 670.92 194.011 670.193 194.739C669.862 195.069 668.011 200.227 666.093 206.376L666.093 205.98ZM179.491 721.279C180.549 722.337 181.74 723.792 182.07 724.387C182.599 725.313 183.327 725.379 185.575 724.982C187.162 724.718 192.518 724.784 197.411 725.18C202.304 725.577 210.503 726.238 215.595 726.437C220.686 726.767 230.539 727.759 237.415 728.817C253.682 731.198 259.302 731.396 274.246 729.941C289.256 728.553 300.431 728.751 318.02 730.603C325.426 731.396 336.204 732.52 342.155 733.049C351.214 733.909 366.819 736.289 370.456 737.281C372.439 737.81 371.381 736.62 365.959 731.991C362.984 729.412 358.818 725.643 356.768 723.593L352.999 719.824L306.316 719.56C280.66 719.428 241.184 719.229 218.57 719.229L177.441 719.229L179.425 721.213L179.491 721.279ZM800.456 122.135C799.927 123.458 800.654 123.524 805.283 122.995C807.796 122.73 809.713 122.4 809.581 122.268C809.449 122.135 807.663 121.672 805.548 121.143C801.911 120.284 801.183 120.482 800.456 122.135ZM735.192 197.45C734.2 198.574 731.159 202.674 728.249 206.509C723.753 212.46 721.835 214.642 715.025 221.056C709.867 225.817 706.23 229.718 704.908 231.569C701.8 236.132 692.344 258.68 688.774 270.053C684.872 282.418 682.558 287.907 678.921 293.527C675.483 298.685 669.333 304.437 661.2 309.793C652.869 315.348 650.224 319.183 644.868 333.267C639.776 346.823 636.272 351.517 626.551 357.931C619.873 362.361 619.542 362.824 616.435 372.28C613.062 382.529 611.608 384.91 602.02 396.481C594.349 405.606 593.556 406.796 594.68 407.259C599.044 409.243 600.896 412.417 600.433 416.583L600.168 418.302C599.904 419.228 599.507 420.55 599.507 420.55C599.507 420.55 599.309 420.748 597.722 422.335C596.465 423.592 594.68 429.741 591.44 444.222C587.803 460.687 587.671 463.2 590.25 471.994C591.638 476.557 591.837 479.664 591.903 489.385C591.969 495.931 592.035 504.725 592.233 509.023C592.432 515.173 592.101 518.413 590.58 524.562C589.589 528.86 587.935 535.803 586.944 539.837C583.571 554.318 580.728 560.996 570.016 580.04C567.569 584.47 563.404 592.603 560.825 598.224C558.312 603.778 554.874 610.787 553.221 613.763C551.568 616.738 550.311 619.317 550.311 619.449C550.311 619.581 553.022 619.912 556.329 620.044C574.645 621.036 587.473 621.565 597.788 621.83C613.393 622.226 621.725 623.284 639.578 626.987C647.843 628.773 659.15 630.955 664.705 631.88C679.054 634.327 685.137 635.782 694.923 639.088C699.684 640.675 708.875 643.783 715.355 645.899C721.835 648.015 729.704 650.99 732.746 652.577C738.035 655.222 738.829 655.883 747.161 663.554C751.988 667.984 756.021 671.753 756.087 671.819C756.153 671.885 756.682 669.372 757.211 666.331C760.385 647.816 765.212 633.732 780.817 597.232C785.975 585.065 790.207 575.014 790.273 574.816C790.273 574.684 788.818 574.419 787.033 574.221C782.14 573.824 774.999 571.311 764.287 566.154C758.931 563.575 750.335 559.608 745.177 557.359C735.787 553.26 721.372 544.664 711.983 537.655C706.495 533.621 681.434 507.635 675.681 500.163C669.862 492.625 658.886 476.623 653.728 468.423C646.322 456.521 643.082 449.314 638.255 433.775C637.131 430.006 635.941 426.964 635.743 426.898C635.214 426.898 631.908 440.255 632.569 448.719C633.891 464.985 637.33 479.532 642.223 489.98C644.735 495.269 650.224 504.461 655.976 512.991C668.011 530.976 699.089 569.989 710.131 581.031L714.562 585.462L716.215 584.734C718.794 583.61 723.026 584.536 734.002 589.032C754.037 597.166 775.197 597.033 781.809 591.611C785.38 588.702 779.759 597.364 778.966 601.596C778.966 601.596 776.916 606.423 772.816 606.291C769.576 606.224 747.822 608.671 747.623 608.473C747.425 608.274 746.896 608.671 746.499 609.332C745.045 611.845 730.762 609.597 720.777 605.299C696.312 594.719 664.11 563.972 637.726 525.819C623.51 505.254 617.096 489.98 614.253 469.415C611.74 451.43 614.98 428.353 616.898 419.294C619.013 409.507 623.245 403.556 629.395 401.771C634.354 400.382 638.983 402.895 640.173 407.524C640.636 409.574 640.834 409.772 642.619 410.367C646.19 411.557 647.182 413.343 653.53 429.477C655.183 433.775 661.068 444.156 661.068 444.156C660.341 444.883 662.721 448.983 671.383 462.009C685.534 483.301 686.79 484.822 705.569 503.601L722.232 520.264L734.531 527.802C747.69 535.803 749.078 536.53 762.303 542.217C766.998 544.267 774.932 547.838 779.892 550.284C789.81 555.045 794.042 556.632 796.489 556.434C798.076 556.301 798.208 556.169 801.183 550.284C807.399 538.117 812.226 530.645 826.046 512.197C841.849 491.104 848.66 479.003 857.124 456.786C859.306 451.165 864.596 437.676 868.894 426.898C880.002 398.994 885.094 383.587 888.136 368.379C890.516 356.609 891.442 351.054 895.674 322.489C899.244 298.817 903.873 287.311 915.312 273.756C918.222 270.318 918.751 269.392 918.883 267.276C918.949 265.887 919.478 262.714 919.941 260.267C920.47 257.754 920.999 252.464 921.263 248.497C921.726 240.761 923.181 232.561 925.363 226.147C926.157 223.899 926.752 221.453 926.818 220.725C926.884 219.998 927.479 218.742 928.206 217.882C930.388 215.303 931.05 212.261 930.521 208.294C930.19 206.244 930.389 202.872 930.785 200.756C931.446 197.847 931.38 196.855 930.653 196.524C930.058 196.326 924.768 191.3 918.751 185.415C912.8 179.464 906.584 173.91 905.063 172.918C903.542 171.926 899.707 169.413 896.599 167.496C893.426 165.512 888.003 161.677 884.3 159.032C880.73 156.387 873.324 151.23 867.836 147.593C862.347 143.956 854.942 138.931 851.173 136.352C846.015 132.781 843.238 131.326 839.403 130.004C832.394 127.623 831.732 127.491 831.336 129.21C830.807 131.326 828.162 132.781 821.88 134.434C812.028 136.881 806.209 139.129 803.498 141.311C802.043 142.501 798.274 146.799 794.637 151.626C789.546 158.172 786.901 161.214 781.677 166.041C774.139 173.05 769.576 176.026 757.873 181.117C754.037 182.837 749.475 185.019 747.822 186.143C744.449 188.192 737.837 194.011 735.06 197.318L735.192 197.45ZM449.341 511.073C445.373 525.091 443.059 530.05 434.86 542.349C431.355 547.573 429.57 553.326 426.528 568.666C423.619 583.478 422.495 586.718 418.461 593C416.808 595.579 414.494 599.348 413.502 601.398C411.452 605.431 407.617 617.465 408.08 618.325C408.278 618.656 411.188 618.523 414.56 618.193C421.834 617.399 436.447 617.466 468.384 618.722C480.882 619.185 493.842 619.581 497.082 619.515L503.033 619.515L500.52 617.003C494.569 611.051 494.9 600.538 501.711 574.816C508.323 549.689 508.521 542.349 502.835 529.125C499.925 522.248 495.958 516.693 490.073 510.808L485.246 505.981L480.22 507.039C470.566 509.023 456.614 507.635 453.308 504.328C452.581 503.601 451.787 503.072 451.655 503.337C451.457 503.535 450.399 507.106 449.209 511.205L449.341 511.073ZM310.614 699.26C316.499 699.458 324.5 699.657 328.467 699.789C332.435 699.921 335.278 699.723 334.947 699.392C334.617 699.062 333.691 696.946 332.898 694.83C332.104 692.714 331.443 690.862 331.377 690.796C331.311 690.73 327.079 691.92 322.053 693.375C316.962 694.896 310.085 696.615 306.647 697.276C303.208 697.938 300.365 698.533 300.167 698.731C299.968 698.929 304.663 699.128 310.548 699.326L310.614 699.26ZM511.431 500.295C521.68 511.999 529.747 528.133 531.532 540.498C532.987 550.416 531.4 563.641 527.036 578.982C524.721 586.85 518.44 605.299 516.522 609.597C515.729 611.448 515.53 612.837 515.927 613.763C516.522 615.019 516.39 615.283 514.274 617.135L511.96 619.052L520.688 619.052C525.449 619.052 529.615 618.854 529.747 618.59C529.945 618.391 530.673 615.812 531.4 613.101C538.938 584.801 543.897 571.113 551.7 556.83C556.659 547.771 558.312 542.68 562.081 526.48C564.792 514.776 565.189 511.866 565.057 506.312C564.792 498.245 564.726 493.418 564.991 487.731C565.123 484.954 564.66 481.45 563.734 478.408C562.941 475.763 562.015 471.663 561.684 469.481C561.354 467.299 561.023 465.514 560.891 465.514C560.891 465.514 558.511 467.101 555.866 469.085C549.121 474.11 544.691 476.292 534.309 479.929C527.565 482.309 524.391 483.764 521.878 485.616C514.01 491.5 508.918 495.137 508.191 495.468C507.662 495.732 508.587 497.055 511.563 500.427L511.431 500.295ZM402.195 638.36C400.608 643.254 399.484 647.419 399.682 647.75C399.947 648.015 401.93 648.014 404.179 647.618C409.997 646.692 451.787 646.163 462.566 646.758C480.22 647.882 493.908 649.668 520.622 654.296C528.953 655.751 544.294 657.999 554.742 659.454C596.003 664.876 613.79 668.116 643.347 675.588C677.004 684.118 688.443 687.755 701.535 694.367C722.893 705.145 735.655 715.791 741.408 727.627C742.267 729.412 743.193 730.867 743.392 730.801C744.053 730.801 748.681 720.618 750.335 715.526C752.12 710.038 753.508 702.434 753.773 696.747L753.971 692.846L741.738 680.613L729.572 668.314L724.48 665.736C721.703 664.281 715.355 661.9 710.462 660.313C705.569 658.727 697.105 655.949 691.749 654.164C680.045 650.13 676.805 649.403 660.341 646.692C653.331 645.502 644.14 643.716 639.975 642.725C616.369 637.104 608.235 635.98 594.812 636.311C584.762 636.575 570.281 635.98 554.543 634.79C538.475 633.533 527.366 633.269 516.721 633.732C499.066 634.591 463.888 633.137 431.025 630.161C426.132 629.764 418.197 629.368 413.502 629.434L404.84 629.5L402.063 638.36L402.195 638.36ZM397.037 668.116C396.574 671.621 396.045 676.117 395.979 678.167L395.715 682.002L406.956 691.92C413.105 697.409 423.354 706.864 429.768 713.014C450.267 732.586 486.304 765.45 487.296 765.516C487.296 765.516 487.759 764.656 488.089 763.664C489.015 760.623 492.519 758.837 498.14 758.507C499.727 758.374 506.075 758.771 512.224 759.366C518.374 759.961 530.607 760.557 539.467 760.689C554.94 760.953 567.107 762.276 580.53 764.987C593.622 767.632 604.532 768.624 623.576 768.888C642.884 769.153 654.786 769.946 667.151 771.731C685.6 774.442 706.164 775.302 717.207 773.781L721.306 773.252L724.216 766.111C729.307 753.746 730.233 750.307 730.233 744.224C730.233 734.305 727.39 728.817 717.67 719.891C711.652 714.402 703.585 709.377 694.526 705.343C685.666 701.508 680.376 700.054 656.175 694.764C649.1 693.243 637.859 690.73 631.114 689.143C610.153 684.316 588.068 680.349 553.419 675.191C544.03 673.737 530.474 671.554 523.267 670.298C506.009 667.19 495.958 665.736 479.295 664.149C460.185 662.231 453.969 661.966 424.082 661.834L397.897 661.702L397.037 667.984L397.037 668.116ZM399.616 676.514C399.682 678.167 400.079 678.96 402.129 680.878C405.17 683.787 409.931 685.506 423.487 688.746C437.373 692.053 448.151 693.441 462.169 693.838C488.287 694.433 507.86 695.888 519.035 697.805C542.31 701.905 610.88 718.238 626.485 723.395C629.659 724.453 636.338 727.032 641.495 729.148C646.521 731.264 655.315 734.504 661.068 736.289C671.185 739.529 672.904 740.323 672.573 741.579C672.309 742.637 650.224 743.034 635.544 742.24C619.542 741.315 612.203 740.72 605.789 739.595C601.623 738.868 601.425 738.802 602.416 737.942C605.128 735.628 605.723 734.636 604.863 733.776C604.4 733.314 601.226 732.123 597.854 731.264C594.482 730.404 588.002 728.421 583.373 726.966C562.742 720.486 558.246 719.428 530.078 714.799C519.498 713.08 506.273 710.832 500.785 709.84C467.591 704.021 435.455 700.186 431.223 701.508C428.909 702.236 427.388 704.55 427.719 706.6C428.049 708.517 430.033 710.501 431.289 710.171C431.818 710.038 433.207 710.237 434.397 710.633C435.587 711.03 438.893 711.824 441.671 712.353C447.423 713.477 447.952 713.741 445.704 714.138C441.869 714.799 440.15 719.56 442.53 722.998C444.249 725.511 447.489 727.164 456.218 729.941C466.136 733.115 473.74 734.636 494.437 737.744C503.628 739.133 516.985 741.248 524.06 742.505C531.268 743.761 542.376 745.48 548.857 746.274C566.379 748.588 574.645 749.977 587.671 752.952C611.674 758.308 616.964 758.97 631.511 758.308C635.809 758.11 646.521 758.374 655.249 758.903C678.194 760.292 685.401 759.565 689.832 755.267C694.13 750.969 694.262 747.266 690.361 737.678C688.443 732.983 687.187 730.669 685.071 728.288C681.632 724.321 679.45 723.197 667.217 718.767C662.258 716.981 654.191 713.807 649.364 711.757C644.471 709.642 637.66 706.93 634.222 705.74C627.147 703.294 594.019 694.103 582.646 691.458C578.48 690.466 566.049 687.424 555.072 684.647C524.06 676.778 515.729 675.323 497.809 674.464C491.858 674.199 478.435 673.472 468.12 672.943C457.805 672.414 445.109 672.017 439.951 672.017C434.794 672.017 427.19 671.687 422.958 671.29C418.792 670.827 413.436 670.496 411.055 670.496C403.848 670.43 399.748 672.679 399.881 676.646L399.616 676.514ZM458.003 716.386C458.929 717.312 495.561 722.866 496.222 722.205C496.487 721.94 495.561 721.808 475.393 718.568C457.143 715.659 457.276 715.659 458.003 716.386ZM948.969 242.612L949.101 244.331L949.234 242.612C949.366 241.025 949.234 240.364 948.903 240.695C948.837 240.761 948.771 241.62 948.903 242.546L948.969 242.612ZM497.809 775.5C497.809 775.5 498.404 775.699 498.669 775.434C498.933 775.17 498.801 774.905 498.47 774.839C498.074 774.707 497.743 774.773 497.611 774.905C497.479 775.037 497.611 775.302 497.809 775.5Z" fill="#FA00FF"/>
<path fill-rule="evenodd" clip-rule="evenodd" d="M235.366 544.803C233.779 546.787 230.738 550.754 228.754 553.531C226.704 556.375 223.927 559.813 222.605 561.136C218.703 565.037 217.844 568.277 219.893 571.517C223.2 576.807 231.267 575.617 238.21 568.806C239.995 567.021 241.516 565.632 241.582 565.698C241.648 565.764 241.185 570.062 240.59 575.286C238.408 593.734 238.474 597.636 241.053 600.215C242.177 601.339 243.037 601.669 244.756 601.669C246.872 601.669 247.136 601.537 248.591 599.686C250.905 596.578 252.426 591.618 255.005 579.121C258.113 563.582 259.105 560.078 263.006 548.242C265.056 541.96 266.444 536.868 266.51 534.951C266.709 529.727 263.799 526.156 259.105 525.826C255.997 525.627 254.674 526.421 248.393 531.645C242.574 536.538 239.664 539.447 235.366 544.671L235.366 544.803ZM274.049 550.688C271.073 560.144 267.502 582.89 268.23 588.246C268.626 591.288 270.28 594.528 272.792 597.173C275.768 600.148 279.338 601.206 283.306 600.148C285.951 599.487 286.348 599.223 290.315 595.123C298.779 586.659 303.407 576.608 305.06 563.185C307.044 547.713 303.407 538.125 295.473 537.86C291.373 537.728 287.604 540.703 285.356 545.597C285.025 546.324 284.761 546.192 283.901 544.935C282.975 543.613 282.38 543.414 280.529 543.414C277.289 543.481 275.636 545.266 273.916 550.688L274.049 550.688ZM285.686 566.425C283.901 569.666 283.438 571.054 283.438 573.17L283.438 575.815L284.298 574.426C285.356 572.839 287.67 565.896 288.001 563.582C288.133 562.656 288.133 561.995 288.001 562.127C287.868 562.26 286.81 564.111 285.554 566.425L285.686 566.425ZM314.582 554.06C314.119 555.978 312.598 561.202 311.276 565.566C309.954 569.93 308.631 575.088 308.367 577.071C307.309 585.006 308.829 598.429 311.541 605.769C313.789 611.852 318.814 614.497 324.368 612.646C328.336 611.323 329.923 609.604 335.213 600.743C342.156 589.304 344.668 582.956 346.983 571.12C350.157 555.118 349.099 546.919 343.478 543.944C339.378 541.695 334.419 543.216 329.328 548.308L327.146 550.49L326.22 549.299C324.964 547.646 321.988 546.655 319.872 547.184C317.029 547.911 315.376 550.093 314.384 554.126L314.582 554.06ZM325.823 570.591C324.831 578.328 324.765 579.187 325.228 578.724C325.757 578.195 329.724 566.161 330.121 563.913L330.386 562.326L329.195 563.516C328.534 564.177 327.741 564.839 327.278 565.037C326.815 565.235 326.22 567.55 325.823 570.591Z" fill="#FA00FF"/>
</g>
<defs>
<clipPath id="clip0_13_684">
<rect width="1025" height="872" fill="white"/>
</clipPath>
</defs>
</svg>
