<svg width="290" height="240" viewBox="0 0 290 240" fill="none" xmlns="http://www.w3.org/2000/svg">
<g clip-path="url(#clip0_32_734)">
<path fill-rule="evenodd" clip-rule="evenodd" d="M221.852 71.6096C221.026 72.9125 220.457 74.252 219.356 77.5918C218.182 81.1518 217.686 83.0052 217.429 84.7668C217.191 86.6569 217.228 88.8222 217.558 89.7398C218.549 92.4556 221.723 92.7309 223.357 90.2536C224.513 88.4736 225.082 86.0697 225.962 79.5369C226.678 74.0869 226.623 71.7931 225.687 70.1966C225.137 69.2423 224.66 69.0956 223.797 69.591C222.971 70.0865 222.513 70.5453 221.815 71.6463L221.852 71.6096ZM210.31 89.9049C210.126 90.6022 210.365 97.5938 210.64 99.2636C211.631 105.613 211.943 107.173 212.787 109.485C213.044 110.182 213.686 111.595 214.236 112.586C215.319 114.586 215.851 115.192 218.53 117.504C219.723 118.513 220.109 118.752 220.879 118.972C223.65 119.798 225.742 118.733 230.77 113.962L232.991 111.852L233.853 110.145C234.349 109.21 235.138 107.87 235.651 107.136C236.752 105.595 237.193 104.457 237.817 101.631C238.551 98.2544 238.551 97.3001 237.762 96.5111C237.248 95.9973 235.853 95.9606 234.991 96.456C233.633 97.2267 231.926 99.337 230.954 101.484C230.697 102.071 230.091 102.97 229.596 103.576C229.064 104.218 228.403 105.246 227.944 106.145C227.247 107.503 227.063 107.76 225.889 108.898C225.192 109.595 224.274 110.366 223.87 110.623C223.485 110.898 222.916 111.357 222.623 111.65L222.072 112.201L221.118 111.393C220.31 110.696 220.054 110.329 219.301 109.026C218.163 106.971 218.127 106.897 217.246 103.851C216.273 100.53 215.686 98.0342 215.191 95.1164C214.64 91.9235 214.053 90.1985 213.301 89.4462C212.365 88.5103 211.576 88.4186 210.86 89.1342C210.64 89.3544 210.42 89.7214 210.346 89.9416L210.31 89.9049ZM235.78 70.7104C232.825 74.0685 230.697 78.2157 229.137 83.5924C227.614 88.8957 229.064 92.8043 232.532 92.7492C233.651 92.7309 234.165 92.5107 235.046 91.6299C235.78 90.8959 236 90.0517 236.367 86.8221C236.551 85.2072 236.991 82.2711 237.376 80.3076C237.743 78.3625 238.312 74.931 238.661 72.7106C239.156 69.3525 239.193 68.6184 238.955 68.3799C238.643 68.0679 238.514 68.123 237.578 68.8753C237.34 69.0772 236.532 69.9213 235.798 70.7287L235.78 70.7104Z" fill="white"/>
<path d="M189.225 114.255C187.83 110.034 186.674 101.832 187.243 100.162C187.518 99.3361 188.197 98.8773 189.004 98.914C189.555 98.9507 189.72 99.0425 190.16 99.593C190.766 100.382 192.271 103.759 193.665 107.539C195.904 113.631 196.143 114.127 198.014 116.402C198.675 117.209 199.721 118.622 200.382 119.577C202.015 121.907 208.621 129.027 210.493 130.458C212.401 131.902 214.732 133.046 217.484 133.89L221.43 135.083L222.659 134.771C223.32 134.587 225.136 134.165 226.696 133.816C228.256 133.468 229.797 133.027 230.164 132.844C231.229 131.413 238.239 123.412 238.771 122.806C239.707 121.724 239.78 121.687 240.11 121.87C240.624 122.127 240.789 123.283 240.789 126.697C240.789 130.073 240.349 132.459 239.285 134.624C238.587 136.055 238.44 136.239 236.734 137.945C235.064 139.615 234.807 139.799 233.578 140.368C231.999 141.102 231.1 141.377 228.494 141.891C227.485 142.166 222.365 143.285 221.301 143.285C219.76 143.322 219.172 143.212 217.337 142.588C216.163 142.184 213.851 141.267 212.236 140.533C209.465 139.267 209.208 139.12 207.612 137.744C206.694 136.936 205.538 136.037 205.098 135.743C204.547 135.376 203.721 134.624 202.694 133.486C201.831 132.55 199.905 130.44 198.418 128.807C196.51 126.715 195.445 125.43 194.785 124.403C194.271 123.595 193.188 121.925 192.363 120.659C190.527 117.833 190.05 116.916 189.17 114.273L189.225 114.255Z" fill="white"/>
<path d="M255.67 66.715C256.698 69.9447 256.716 75.5416 256.368 76.3307C255.689 78.0373 261.744 64.6047 261.708 64.6414C261.671 64.6781 261.616 64.146 261.597 63.467C261.524 61.8522 261.102 61.0264 259.285 58.9895C257.726 57.2462 256.276 55.0992 255.835 53.8514C255.579 53.1541 251.45 41.3181 251.78 41.5383C247.229 35.5193 243.687 41.997 244.458 42.4741C243.908 47.649 248.183 47.8875 248.092 52.9339C248.495 54.1817 252.074 60.953 253.321 62.6045L253.927 63.3936L255.707 66.7151L255.67 66.715Z" fill="white"/>
<path fill-rule="evenodd" clip-rule="evenodd" d="M83.599 19.7522C83.3788 20.3761 83.0851 21.367 82.92 21.9726C82.7181 22.8351 82.4062 23.4406 81.5804 24.7068C78.9196 28.6888 76.6625 33.5884 74.6073 39.7909L74.1302 41.1855L72.3501 42.1947C70.5885 43.1857 70.5518 43.1857 69.4875 43.0756C67.1019 42.8187 65.9275 43.2591 62.184 45.7914C59.8902 47.3512 59.8352 47.3696 59.8902 46.9108C60.0003 46.1401 59.615 46.2686 58.4956 47.3879C57.8166 48.0669 57.2661 48.5073 56.8441 48.6724C55.8531 49.0762 55.4311 49.7551 54.9356 51.7553C54.3851 53.9941 54.3484 54.8382 54.7888 55.4621C55.0457 55.8291 55.0641 55.9943 54.8806 56.1044C54.7338 56.1778 54.0731 56.5448 53.4309 56.9301C52.3299 57.554 52.1831 57.5908 51.816 57.3339C51.3022 57.0035 50.3297 57.2054 49.7608 57.7743C49.247 58.2881 47.3752 61.6278 45.999 64.4722C44.7878 66.9678 42.8243 71.9041 40.2369 78.8956C39.2093 81.6848 37.5394 86.0706 36.5301 88.6947C33.2271 97.1726 31.3186 102.788 29.557 109.064C28.9698 111.156 27.8871 114.917 27.1714 117.431C26.4374 119.927 25.1345 124.79 24.2354 128.258C23.3362 131.726 22.382 135.396 22.1067 136.369C21.024 140.204 17.5742 151.692 16.1061 156.389C11.647 170.611 9.64679 179.364 9.59174 185.108C9.55504 187.09 9.51834 187.383 9.13298 187.769C8.65587 188.246 8.58246 188.906 8.93112 189.512C9.35318 190.228 10.6194 190.833 13.2618 191.641C18.2531 193.145 19.134 193.219 25.8502 192.558C25.9053 192.54 25.942 192.943 25.9603 193.402L25.9603 194.246L24.8593 194.283C23.0426 194.338 22.4187 194.705 23.0242 195.311C23.5197 195.806 30.0158 197.751 32.1811 198.045C32.8968 198.137 36.2916 198.265 39.7231 198.283L45.9806 198.338L45.5585 199.164C44.7328 200.797 45.0998 202.926 46.4761 204.486C47.2101 205.33 47.3569 205.403 48.5864 205.862C49.5956 206.211 50.3297 206.321 51.7059 206.339C53.7979 206.339 61.6152 207.257 65.2302 207.936C70.1114 208.853 72.4602 208.927 78.2773 208.468C81.874 208.174 83.5806 208.266 89.1408 209.055C91.2327 209.349 93.4898 209.661 94.1871 209.771C94.8661 209.862 97.1966 210.285 99.3619 210.688C101.527 211.092 103.913 211.496 104.665 211.587C106.537 211.808 109.528 211.863 111.528 211.698L113.18 211.551L113.804 212.175C114.703 213.074 116.391 215.496 118.263 218.616C119.162 220.102 120.19 221.68 120.538 222.102C121.621 223.405 122.924 223.864 124.245 223.423C125.144 223.111 125.585 222.671 125.86 221.809L126.062 221.13L126.612 221.203C129.97 221.625 134.301 221.662 137.549 221.313C139.971 221.056 141.917 220.102 142.852 218.762C143.348 218.047 143.366 216.67 142.907 215.808L142.522 215.129L144.853 215.478C146.137 215.661 148.394 215.863 149.826 215.9C153.459 216.01 155.478 216.23 159.588 216.854C166.047 217.882 167.882 217.992 172.874 217.661C176.691 217.404 179.168 217.496 184.178 218.065C191.206 218.854 194.087 218.983 197.647 218.652C198.417 218.579 199.115 218.506 199.225 218.506C199.335 218.506 199.463 218.817 199.518 219.203C199.812 221.368 201.298 222.708 203.262 222.579C204.326 222.506 205.06 222.102 205.923 221.13C206.694 220.249 206.895 219.753 207.574 217.056C208.18 214.689 208.987 212.964 211.428 208.908C213.905 204.816 214.933 202.761 215.759 200.32C216.199 198.962 216.401 198.577 216.658 198.504C217.135 198.357 217.704 197.751 217.869 197.182C218.089 196.485 217.997 195.586 217.539 194.356C217.19 193.42 217.172 192.998 217.447 190.081C217.906 184.851 218.75 181.181 220.713 175.951C221.961 172.611 228.714 156.83 229.76 154.83C231.1 152.242 232.366 150.352 235.43 146.223C240.752 139.103 242.679 135.635 245.56 128.13C246.055 126.827 247.431 123.359 248.569 120.423C253.322 108.44 254.111 105.559 255.799 94.0714C256.735 87.7405 256.955 86.4927 257.487 84.8962C258.148 82.8776 258.607 82.0518 260.185 80.07C262.791 76.8036 263.8 75.097 264.626 72.4729L265.066 71.0416L265.984 70.748C266.736 70.5094 267.066 70.2892 267.8 69.5552C269.984 67.3715 271.103 64.3437 272.039 58.0128C272.443 55.3337 273.03 52.3976 273.562 50.4708C274.278 47.9201 274.315 47.2962 273.929 45.3327C273.471 43.0022 273.122 42.3599 271.452 40.8368C270.443 39.9376 269.746 39.4238 268.351 38.6898C266.461 37.6805 260.772 33.7902 257.946 31.5882C255.047 29.3494 252.845 27.7713 250.257 26.1381C244.917 22.78 244.514 22.5965 237.797 20.1376C232.531 18.2108 229.356 17.4951 224.035 17.018C222.622 16.8895 220.475 16.651 219.245 16.5225C217.979 16.3574 216.383 16.3023 215.502 16.4124C214.676 16.5042 212.602 16.5959 210.914 16.6326C209.042 16.6693 207.061 16.8528 205.904 17.0914C204.84 17.3116 203.28 17.5868 202.436 17.6969C201.592 17.807 199.885 18.119 198.674 18.3759C197.463 18.6328 195.298 18.8897 193.903 18.9631C190.82 19.1099 190.252 19.2384 186.545 20.4862C184.324 21.2386 183.095 21.5505 181.205 21.7891C179.847 21.9726 177.443 22.358 175.902 22.6516C172.598 23.2755 170.305 23.5507 167.644 23.6058C165.827 23.6608 165.717 23.6241 165.24 23.147C164.322 22.2295 163.02 22.1011 161.9 22.8901C160.689 23.7343 160.377 23.826 159.203 23.6792C157.514 23.4957 156.835 23.7709 155.459 25.294C154.835 25.9913 154.193 26.8905 153.881 27.4961L153.349 28.542L151.459 28.9274C150.431 29.1476 149.385 29.3128 149.147 29.2944C148.908 29.2761 147.789 28.7439 146.596 28.1016C143.036 26.1565 140.32 25.4592 137.311 25.7161C135.953 25.8262 135.053 26.028 131.182 27.0373C129.31 27.5511 128.227 27.4594 125.163 26.6703C120.575 25.4592 118.813 25.239 113.272 25.0922C109.877 25.0004 109.51 24.9637 107.895 24.3765C106.941 24.0462 105.087 23.1837 103.803 22.4864C99.6189 20.211 97.7838 19.587 94.1321 19.2751C92.4072 19.1283 91.508 18.9264 90.8107 18.5227C89.8564 17.9722 87.948 17.2382 87.214 17.1281C85.5991 16.9079 84.2045 17.9355 83.5256 19.8256L83.599 19.7522ZM60.5508 54.5813L60.0554 57.2421L61.1197 56.3246C61.7069 55.8108 62.3675 55.3337 62.5877 55.2236C63.23 54.9483 63.8906 55.0584 64.1292 55.4437C64.3861 55.8842 63.7989 57.6091 62.3492 60.5635C60.1655 65.0227 58.1836 69.8305 56.8441 73.8492C55.8715 76.8036 55.2109 79.1892 53.6878 85.41C52.2564 91.2454 51.2839 94.6769 48.7148 103.118C47.7055 106.44 46.421 110.734 45.8522 112.66C44.586 116.973 41.3379 126.9 39.4295 132.259C37.099 138.773 33.7592 149.049 32.2545 154.261C29.9056 162.408 24.9877 177.713 23.5748 181.181C23.1527 182.227 22.7857 183.144 22.804 183.199C22.7857 183.254 23.0242 183.273 23.3178 183.236C23.6114 183.199 24.1069 183.144 24.4189 183.126C24.7492 183.089 25.7401 183.126 26.6576 183.199L28.3275 183.328L29.3184 180.392C29.8689 178.777 30.7865 176.428 31.337 175.18C32.2362 173.143 32.3279 172.868 32.0893 172.629C31.7774 172.318 31.7223 171.308 31.9976 171.033C32.0893 170.941 32.071 170.519 31.9609 170.115C31.7407 169.308 31.8691 168.592 32.3646 168.097C32.805 167.657 32.9151 167.179 33.9427 162.078C34.4382 159.564 35.0621 156.628 35.3007 155.582C36.0347 152.609 37.7963 147.214 39.4295 142.975C41.7784 136.883 43.0445 133.158 44.953 126.919C47.1734 119.597 49.4672 112.642 52.5134 104.017C53.8162 100.329 56.0366 93.6677 57.4496 89.2452C62.7529 72.6381 64.3861 67.8119 67.8176 59.0221C68.8636 56.2879 70.2766 52.5627 70.9372 50.7277C72.0015 47.7916 72.0749 47.4246 71.7079 47.7549C69.9095 49.2964 68.4782 49.5533 69.9279 48.0669L70.4601 47.5347L69.3774 47.5531C68.6617 47.5714 68.203 47.6632 67.9828 47.8834C67.3772 48.4889 64.7898 50.0854 63.0098 50.9846C62.0005 51.4801 61.1748 51.9021 61.1564 51.9205C61.1381 51.9388 60.8995 53.1683 60.6242 54.618L60.5508 54.5813ZM52.4766 61.5544C52.2931 62.7289 50.1462 69.0965 47.9441 75.0787C47.1 77.3541 45.6503 81.4463 44.7144 84.1071C43.7969 86.7863 42.5307 90.3646 41.9252 92.0712C39.0625 100.145 31.1351 124.001 30.4195 126.698C29.9791 128.35 29.1349 131.763 28.511 134.259C25.7768 145.287 23.9051 151.673 20.8038 160.28C18.1614 167.583 15.4088 176.171 14.4362 180.19C13.7573 182.997 13.1334 186.594 13.2985 186.759C13.3719 186.833 13.7022 186.906 14.0325 186.943L14.6381 186.998L14.2894 186.502C14.0876 186.19 13.9775 185.75 14.0142 185.346C14.1059 184.154 14.84 183.75 17.0237 183.731C17.8678 183.731 18.6201 183.64 18.6935 183.566C18.9137 183.346 20.4919 177.547 21.9599 171.602C22.7123 168.537 23.8867 164.17 24.5657 161.839C25.2446 159.509 26.4374 155.233 27.2265 152.279C29.4469 143.893 30.4562 140.535 33.7959 130.625C35.5025 125.542 37.9982 117.872 39.2827 113.615C40.6039 109.357 42.7693 102.751 44.0722 98.9159C47.1 90.1627 48.513 85.7036 50.0727 80.07C51.5041 74.8952 52.862 70.8214 54.0181 68.1606C54.642 66.7293 54.8806 65.9402 54.9907 64.8025C55.0641 63.995 55.3393 62.0683 55.5595 60.5268C55.7797 58.9854 55.8898 57.7376 55.8348 57.7559C55.743 57.7743 54.9907 58.4165 54.1465 59.1872L52.6235 60.5635L52.4583 61.5728L52.4766 61.5544ZM88.627 25.7344C88.5169 25.9546 87.6544 27.5144 86.7185 29.1843C84.2412 33.5701 83.2503 35.8455 80.9382 42.3783C79.1765 47.3696 76.2037 55.3704 74.5155 59.6643C72.4052 65.0043 70.717 69.5185 69.0287 74.363C66.4597 81.7399 56.055 112.734 52.6051 123.377C49.0268 134.369 48.1643 136.846 45.5035 143.581C42.9344 150.114 41.2279 155.417 39.8332 161.032C38.4019 166.794 37.7229 168.978 37.099 169.822C36.8421 170.152 36.6586 170.482 36.6769 170.574C36.7503 170.905 47.5771 173.18 52.2932 173.859C55.7247 174.354 58.624 174.575 65.9826 174.96C78.2773 175.584 88.4802 177.015 94.9579 179.015C95.9304 179.327 96.7562 179.566 96.8113 179.584C96.9397 179.603 98.2242 175.786 98.1692 175.584C98.1141 175.309 88.6453 174.098 81.4153 173.4C76.2404 172.923 73.1209 172.446 67.6708 171.363C62.8446 170.391 59.5416 169.877 56.4954 169.583C50.9536 169.07 48.4579 168.152 47.3752 166.262C46.7146 165.087 46.788 163.73 47.5587 162.959C47.7606 162.757 48.0175 162.317 48.1276 161.95C48.2377 161.583 48.8983 159.968 49.5773 158.335C51.1738 154.536 54.2383 145.269 55.8348 139.489C56.5137 137.011 57.6148 132.644 58.2937 129.8C60.8995 118.569 63.597 109.522 67.7992 97.613C69.6343 92.4382 75.6716 73.2987 76.8644 68.8396C77.0479 68.1789 78.7911 62.7656 80.773 56.82C82.7365 50.8562 84.6449 44.8372 84.9936 43.4242C86.0946 39.0568 87.1589 36.4144 89.3793 32.5791C90.1317 31.313 90.5354 30.7624 91.6731 29.6247C92.9393 28.3585 93.1412 28.1934 93.8385 28.0099C94.6459 27.7897 95.2148 27.9181 95.7102 28.4136C96.0772 28.7806 96.0589 30.3037 95.6552 31.5515C95.49 32.0837 95.3983 32.5424 95.4533 32.5975C95.5084 32.6525 97.3618 33.0746 99.5638 33.515C101.784 33.9738 105.161 34.6711 107.124 35.0931L110.666 35.8455L111.143 35.3684C111.767 34.7445 112.684 34.4509 113.528 34.6344C114.134 34.7628 114.299 34.8546 114.923 35.6253L115.639 36.4878L119.456 36.8181C124.686 37.2768 127.548 37.3869 132.631 37.2585C137.329 37.1484 140.76 37.1667 145.458 37.3869C147.11 37.4603 148.725 37.5338 149.018 37.5338C149.33 37.5521 149.587 37.442 149.66 37.2952C149.771 37.075 149.569 37.0199 148.578 36.9098C147.018 36.7447 145.715 36.2492 143.44 35.0014C139.641 32.8911 139.036 32.836 133.09 34.4509C131.108 35.0014 129.053 35.1482 127.365 34.928C126.594 34.8179 124.575 34.3775 122.887 33.9371C119.327 33.0196 117.786 32.836 112.721 32.6892C107.179 32.5057 104.977 31.8818 100.812 29.2577C96.7562 26.707 95.8937 26.3217 92.8109 25.8812C91.7282 25.7161 90.4253 25.4775 89.9298 25.3491C89.0307 25.1105 88.9206 25.1472 88.6086 25.7895L88.627 25.7344ZM93.1779 38.1026C92.7925 39.1119 91.9667 41.1855 91.3245 42.6719C90.0583 45.5896 89.9665 45.9015 87.1773 54.6363C86.1497 57.9027 84.3146 63.628 83.1035 67.3715C81.8924 71.115 80.2408 76.5467 79.4151 79.4277C75.9285 91.6491 74.6623 95.5944 72.0198 102.604C69.8728 108.311 68.258 113.229 66.5514 119.083C65.8358 121.56 64.7714 125.194 64.2026 127.12C63.6337 129.047 62.6428 132.46 62.0005 134.718C59.9453 141.984 58.881 145.397 57.8533 148.297C55.7981 154.059 54.9723 155.986 52.6051 160.261C51.4857 162.298 51.1738 163.014 51.2105 163.381C51.2472 163.785 51.1738 163.931 50.8068 164.225C50.2379 164.647 50.293 164.739 51.5408 165.143C52.7336 165.528 53.7612 165.711 56.8441 166.005C60.5875 166.372 63.23 166.812 69.6526 168.06C75.3963 169.18 78.1672 169.638 84.0027 170.409C85.6909 170.629 89.6546 171.327 92.8292 171.932C96.0038 172.538 98.683 173.015 98.738 172.96C98.7931 172.905 99.0316 171.345 99.2151 169.473C99.417 167.62 99.6739 165.601 99.7657 164.959C99.9675 163.583 101.215 158.481 102.133 155.178C103.124 151.618 109.143 133.378 111.271 127.469C112.923 122.845 116.061 115.083 116.63 114.11C116.832 113.798 116.777 113.413 116.391 112.293C116.116 111.504 115.712 109.889 115.474 108.733L115.052 106.586L113.914 105.559C112.831 104.586 112.758 104.476 112.354 103.375C111.748 101.742 111.822 99.5031 112.538 95.8513C113.877 89.1534 116.263 83.8685 118.813 81.9417C119.382 81.5197 119.456 81.3729 119.474 80.8407C119.492 80.0884 119.878 79.1158 120.318 78.6754C120.85 78.1432 121.988 77.8129 123.016 77.923C123.548 77.9781 124.19 77.923 124.41 77.8129C127.493 76.4183 128.906 75.9962 130.961 75.9228C132.521 75.8678 133.659 76.1247 134.485 76.6935L135.054 77.0789L136.191 72.4913C138.026 65.1144 138.412 63.9583 140.797 59.0037C142.687 55.0584 143.697 52.6912 144.834 49.4982C145.385 47.9935 146.211 45.8465 146.669 44.7271C147.128 43.6077 147.44 42.6719 147.385 42.6535C147.348 42.6168 145.238 42.6352 142.761 42.6535L138.228 42.7086L138.43 43.571C138.834 45.3327 137.861 49.3881 136.228 52.6728C135.292 54.5629 133.952 56.0126 132.815 56.3796C131.347 56.82 130.025 56.4897 128.98 55.4437C127.842 54.306 127.585 52.7646 128.19 50.4708C128.631 48.7825 130.044 45.4611 131.053 43.7545C131.457 43.0572 131.787 42.47 131.787 42.4333C131.787 42.3966 130.466 42.2131 128.833 42.048C127.2 41.8828 125.566 41.7176 125.163 41.6442L124.447 41.5525L124.117 42.5434L123.786 43.5343L124.447 43.2774C125.842 42.7636 127.108 43.4059 127.401 44.8005C127.567 45.5529 127.053 47.2411 126.264 48.6174C125.493 49.9753 122.373 53.2417 121.309 53.8289C119.621 54.7464 118.061 54.618 116.923 53.4803C115.474 52.0306 115.712 49.8469 117.676 46.3052C118.373 45.0207 119.823 42.9838 120.538 42.2681C121.493 41.3139 121.401 41.2589 118.501 40.9286C115.914 40.6533 115.804 40.6533 115.767 41.057C115.033 45.718 113.327 50.8378 112.005 52.3792C111.253 53.2784 110.482 53.5353 109.657 53.1867C108.17 52.5811 108.042 51.1681 109.198 47.6265C110.336 44.1032 111.198 41.002 111.088 41.002C111.014 41.002 110.721 41.369 110.446 41.8278C109.638 43.0756 108.17 44.5069 107.491 44.7088C106.262 45.0941 105.363 44.5253 105.344 43.3692C105.344 42.8187 105.436 42.5801 105.84 42.1764C106.115 41.9012 106.739 41.1671 107.234 40.5249C107.987 39.5523 108.097 39.3321 107.895 39.2403C107.748 39.1669 106.574 38.8733 105.252 38.5797C103.95 38.2678 101.252 37.6255 99.2702 37.1484C97.2884 36.6713 95.3065 36.1942 94.8661 36.0841C94.4257 35.974 94.0403 35.9189 94.0036 35.9556C93.9669 35.9923 93.6366 36.8731 93.2513 37.8824L93.1779 38.1026ZM157.955 30.4688C158.799 32.3773 158.817 33.3499 158.083 34.3041C157.753 34.7445 157.459 34.928 156.377 35.2766C155.661 35.5152 154.982 35.8272 154.854 35.9556C154.725 36.0841 154.413 36.6529 154.156 37.2034C153.789 38.0475 153.734 38.3595 153.899 38.9284C154.23 40.0661 153.587 41.369 152.468 41.8645C152.046 42.0663 150.725 44.929 147.697 52.4343C146.321 55.7924 145.715 57.2054 143.311 62.3619C141.972 65.2429 141.329 67.2064 140.045 72.4546C137.99 80.6756 137.751 81.3912 135.788 84.7861C133.934 87.9974 133.494 88.9516 130.943 95.6128C129.181 100.237 128.613 101.393 126.631 104.476C125.254 106.623 123.823 109.449 122.447 112.624C121.988 113.706 120.795 116.33 119.804 118.422C115.841 126.827 115.639 127.396 108.556 150.444C108.06 152.077 107.253 155.197 106.776 157.399C106.298 159.601 105.619 162.408 105.307 163.638C104.61 166.28 104.262 168.134 103.839 171.528L103.528 174.042L104.665 174.373C106.06 174.776 106.684 175.18 106.519 175.566C106.353 175.914 105.931 176.006 104.353 176.043L103.142 176.079L102.5 178.483C101.656 181.64 101.381 182.942 100.995 185.64C100.628 188.172 100.078 189.75 98.9949 191.237C98.5912 191.787 98.2609 192.301 98.2609 192.411C98.2426 192.503 98.4995 192.833 98.8114 193.182C99.3436 193.751 99.472 193.806 101.105 194.044C103.344 194.375 104.188 194.705 104.757 195.421C105.289 196.1 105.271 197.109 104.684 197.88L104.28 198.43L105.418 199.421C107.363 201.109 110.758 203.917 111.143 204.192C111.345 204.321 112.299 204.541 113.253 204.651C115.308 204.908 116.832 205.403 118.006 206.247C119.291 207.165 119.621 207.752 119.364 208.596C119.235 208.982 118.923 209.514 118.648 209.789L118.153 210.285L119.878 212.67L121.603 215.056L122.447 215.092C122.906 215.111 124.208 215.276 125.328 215.441C127.383 215.735 132.888 215.881 133.641 215.643C134.044 215.533 134.044 215.496 133.659 215.257C132.998 214.817 129.86 212.266 127.622 210.321C126.41 209.257 122.924 205.917 119.566 202.559C113.253 196.246 112.115 194.962 110.427 192.136C110.042 191.494 109.712 190.98 109.638 190.98C109.601 190.98 109.308 191.31 109.051 191.751C108.427 192.705 107.877 193.035 107.326 192.852C106.794 192.65 106.776 192.301 107.289 192.411C107.638 192.466 107.656 192.411 107.381 191.732C107.179 191.2 107.143 190.613 107.253 189.659C107.344 188.906 107.51 186.649 107.601 184.612C107.858 179.548 108.023 178.208 108.647 176.336C108.941 175.455 109.455 173.584 109.785 172.189C111.088 166.702 111.51 165.546 113.217 162.665C114.519 160.482 114.629 160.115 115.327 156.224C115.914 152.884 116.648 150.205 117.364 148.792C117.584 148.352 118.226 147.343 118.777 146.572C120.08 144.682 120.648 143.342 122.061 138.553C123.915 132.332 124.337 131.213 127.328 124.845C127.713 124.019 129.145 119.945 130.539 115.798C131.897 111.651 133.53 107.082 134.154 105.65C135.476 102.604 135.916 101.283 137.017 97.3194C138.669 91.3739 140.045 88.1258 142.852 83.7401C144.669 80.8958 145.807 78.7671 147.568 74.9135C149.238 71.2618 151.771 65.8668 152.927 63.4262C153.404 62.4353 154.266 60.3617 154.835 58.8019C155.422 57.2604 156.432 54.7097 157.092 53.1316C158.083 50.7827 158.285 50.1038 158.285 49.2597C158.285 47.865 159.294 45.0574 161.111 41.1488C161.937 39.4055 162.726 37.5888 162.909 37.1117C163.35 35.8639 163.13 32.414 162.469 30.3587C162.194 29.4963 161.937 28.7989 161.9 28.7989C161.882 28.8173 161.405 28.9641 160.854 29.1476C160.304 29.3311 159.533 29.4779 159.129 29.4412C158.157 29.3862 157.68 29.7899 157.955 30.4321L157.955 30.4688ZM165.222 28.9274C165.332 29.1109 165.552 29.3311 165.735 29.4412C165.919 29.5513 166.396 30.2119 166.818 30.8909C167.222 31.5882 167.607 32.1571 167.644 32.1571C167.681 32.1571 167.956 32.0653 168.249 31.9919C168.543 31.8818 170.213 31.6066 171.993 31.3313C177.975 30.4505 181.04 29.7715 184.783 28.5237C189.04 27.1291 189.664 26.9823 193.353 26.7804C197.867 26.5235 198.454 26.4501 201.574 25.8629C205.409 25.1472 207.593 24.9454 209.538 25.2023C212.969 25.6243 222.457 27.6979 227.466 29.1109C228.677 29.4412 230.549 29.955 231.65 30.2486C236.366 31.4781 237.816 32.1204 243.89 35.7721C246.018 37.0566 249.065 38.8183 250.661 39.7174C254.57 41.9011 256.57 43.2407 259.157 45.4244C260.35 46.4337 261.983 47.7366 262.754 48.3238C263.525 48.911 264.497 49.6634 264.901 49.9937C265.305 50.324 265.672 50.5442 265.69 50.4891C266.002 49.6267 266.736 46.5438 266.663 46.397C266.608 46.2685 266.02 45.8648 265.323 45.4611C264.644 45.0758 263.616 44.4886 263.048 44.1399C262.075 43.571 259.818 41.791 254.698 37.5154C252.203 35.4234 250.056 33.827 246.716 31.5148C245.541 30.7074 244.037 29.6064 243.376 29.0926C242.312 28.2484 241.871 28.0649 239.174 27.0924C237.504 26.4868 235.228 25.606 234.127 25.0922C230.402 23.3856 229.026 23.0736 221.943 22.1194C217.355 21.4955 217.043 21.4771 214.951 21.6973C214.07 21.7707 212.456 21.8808 211.391 21.9175C210.309 21.9359 208.253 22.1928 206.785 22.4497C205.354 22.7066 203.39 23.0186 202.491 23.147C201.574 23.2571 200.032 23.4773 199.078 23.6241C198.124 23.7709 196.289 23.9177 195.004 23.9544C192.013 24.0095 191.316 24.1563 188.692 25.2023C186.031 26.2482 184.563 26.6153 181.774 26.9823C180.581 27.1474 178.36 27.5328 176.837 27.8447C172.415 28.7439 169.057 28.9825 166.157 28.5788C165.607 28.5054 165.13 28.4686 165.075 28.5237C165.02 28.5787 165.075 28.7439 165.185 28.9274L165.222 28.9274ZM167.736 37.6438C167.699 37.9375 167.442 39.1853 167.112 40.3964C166.8 41.6259 166.176 44.0848 165.717 45.8648C164.689 49.9753 164.066 51.2231 162.689 52.0122C162.175 52.3058 162.029 52.5627 160.836 55.407C158.707 60.4351 156.964 64.1969 154.817 68.3624C153.698 70.5094 152.193 73.629 151.459 75.2805C149.073 80.6022 147.899 82.951 146.376 85.3549C143.733 89.5388 142.797 91.8326 140.742 99.2462C139.898 102.219 139.219 104.146 137.898 107.192C137.329 108.495 135.879 112.477 134.65 116.092C132.209 123.304 131.438 125.212 129.75 128.368C128.631 130.479 127.126 133.892 127.2 134.222C127.218 134.314 127.42 134.259 127.64 134.149C128.135 133.837 131.237 132.571 132.338 132.24C133.971 131.745 137.824 129.946 139.164 129.084C139.916 128.588 141.109 127.873 141.806 127.432L143.073 126.68L142.449 125.909C141.384 124.588 139.806 121.799 139.347 120.423C138.797 118.808 138.779 117.248 139.311 115.248C139.953 112.77 140.467 111.963 141.605 111.486C142.375 111.156 142.375 111.192 141.88 110.88C141.238 110.458 140.559 109.082 140.504 108.146C140.467 107.119 141.036 106.476 142.118 106.274L142.834 106.146L143.054 104.898C143.403 102.898 144.32 100.402 145.807 97.3377C146.559 95.778 147.789 92.9703 148.523 91.0619C150.394 86.144 150.945 84.9329 153.055 80.9875C155.422 76.5284 155.863 75.8311 157.001 74.6566C158.34 73.317 159.57 72.7115 161.808 72.3078C162.799 72.1243 163.754 71.9041 163.919 71.8123C164.139 71.7022 164.524 70.7296 165.167 68.7661C166.231 65.5365 166.836 64.3437 168.231 62.9491C169.626 61.5544 170.176 61.2975 173.149 60.2699C177.388 58.8202 177.828 58.3798 179.351 54.1409C179.865 52.7462 180.471 51.1865 180.709 50.7277C182.104 47.9384 183.847 46.9292 188.6 46.2135C192.454 45.6263 193.224 45.2593 196.546 42.4884C197.702 41.5158 199.959 39.7358 201.574 38.5247C203.189 37.3135 205.336 35.6804 206.382 34.8913C209.189 32.781 210.731 32.047 213.777 31.3864C214.511 31.2396 215.098 31.056 215.08 31.001C215.08 30.7808 207.96 29.8266 207.024 29.9183C206.492 29.9734 204.95 30.267 203.592 30.5606C200.344 31.2763 198.729 31.4965 195.261 31.5882C191.187 31.6983 190.196 31.8818 185.902 33.2397C180.251 35.0381 175.204 36.0474 170.763 36.3043C169.24 36.396 168.176 36.6529 167.846 36.9832C167.772 37.0566 167.699 37.3502 167.681 37.6622L167.736 37.6438ZM33.6124 179.988C33.0803 182.208 32.6399 184.08 32.6766 184.154C32.7867 184.41 36.5118 184.649 39.0809 184.576C42.6959 184.484 45.1365 184.722 49.614 185.64C51.7793 186.08 54.33 186.539 55.321 186.649C58.0001 186.943 62.3125 187.035 68.1479 186.888C71.0289 186.833 75.1027 186.723 77.213 186.704C82.0208 186.631 84.4431 186.447 88.6453 185.878C90.4804 185.622 92.4622 185.438 93.0678 185.493C95.2331 185.603 96.3525 186.502 96.2974 188.062L96.2791 188.888L96.6094 188.411C97.0865 187.677 97.1232 187.126 96.8112 184.649L96.5176 182.374L94.5358 182.227C93.4348 182.153 90.462 181.86 87.9113 181.584C82.3511 180.979 81.0482 180.887 73.8732 180.575C62.3492 180.061 59.4315 179.86 55.0824 179.254C52.6969 178.924 47.889 177.896 44.2924 176.979C41.4848 176.263 41.1544 176.226 41.2095 176.538C41.3013 177.034 41.0076 176.997 40.4021 176.428C40.1268 176.153 39.5213 175.804 39.0992 175.639C38.3468 175.364 38.2734 175.364 37.8514 175.786C37.099 176.538 35.5943 176.648 34.952 176.006C34.8603 175.914 34.7318 175.859 34.6951 175.933C34.64 175.988 34.1813 177.841 33.6308 180.043L33.6124 179.988ZM122.447 88.6947C121.804 89.5939 121.015 91.3739 120.392 93.2823C119.364 96.4019 118.52 99.8885 118.483 101.1C118.446 102.237 119.162 108.385 119.327 108.403C119.364 108.403 119.933 107.43 120.557 106.256C121.181 105.082 122.172 103.393 122.777 102.531C125.75 98.1635 126.062 97.5579 128.631 91.172C130.246 87.1716 131.916 83.5566 132.356 83.1162C132.448 83.0244 132.613 82.7492 132.723 82.4922L132.907 82.0518L132.117 82.0335C130.961 82.0152 128.796 82.7492 127.75 83.5015C126.924 84.1071 122.979 87.979 122.465 88.713L122.447 88.6947ZM30.5296 191.659C30.3277 192.338 30.1993 192.907 30.236 192.943C30.2727 192.98 30.6213 192.925 31.0067 192.797C32.6582 192.356 37.411 192.008 41.5031 192.026C43.9254 192.026 45.8705 192.026 45.8338 191.989C45.7237 191.879 43.8336 191.457 42.6775 191.255C42.072 191.163 40.5305 191.053 39.2827 191.017C36.5118 190.962 34.7685 190.796 32.6949 190.411C31.8324 190.246 31.0801 190.191 31.0067 190.264C30.9333 190.338 30.7131 190.962 30.5296 191.622L30.5296 191.659ZM185.26 56.1594C184.122 59.646 183.517 60.8021 181.975 62.3435C180.379 63.94 178.599 64.8392 175.443 65.6466C174.69 65.8484 173.718 66.1971 173.351 66.4173C172.709 66.8027 172.598 66.9128 172.14 67.8486C171.864 68.4175 171.387 69.8855 171.057 71.0967C170.323 73.8125 169.864 74.8585 168.965 75.9412C167.754 77.3358 166.194 78.0515 163.552 78.3451C161.882 78.5469 161.129 78.8589 160.616 79.5562C159.478 81.1343 156.065 87.557 154.266 91.5574C153.165 93.9796 151.807 96.7322 151.239 97.6313C148.101 102.751 147.715 103.503 147.055 105.962C146.602 107.663 146.523 108.562 146.816 108.66C147.33 108.807 147.257 109.1 146.633 109.247C146.211 109.339 146.082 109.467 145.623 110.146C145.293 110.66 144.706 111.284 144.009 111.871L142.926 112.807L143.293 115.229C143.495 116.569 143.77 117.982 143.935 118.404C144.082 118.808 144.761 119.89 145.403 120.79C146.743 122.643 146.834 122.698 147.807 122.092C149.734 120.9 154.156 115.266 158.689 108.275C159.294 107.339 160.671 105.522 161.772 104.237C163.809 101.797 163.754 101.889 165.423 98.3103C166.213 96.567 167.497 94.8054 168.47 94.053C168.837 93.7594 169.736 93.1539 170.47 92.6767C172.085 91.6124 172.286 91.3372 173.534 88.6213C175.993 83.263 176.966 81.9601 179.975 79.8681C182.012 78.4552 183.444 77.0605 184.086 75.8678C184.361 75.3723 185.113 73.7024 185.774 72.161C186.435 70.6195 187.554 68.289 188.251 67.0045C188.967 65.7016 189.848 63.9767 190.196 63.1509C190.967 61.3893 192.233 59.3891 193.206 58.4165C193.591 58.0312 194.509 57.2237 195.298 56.6182C196.564 55.6089 196.821 55.3153 198.216 53.4436C201.592 48.9294 203.849 46.709 207.042 44.8372C207.996 44.2867 209.226 43.571 209.776 43.2407C211.281 42.3599 213.19 40.8185 213.942 39.8826C214.547 39.1302 214.566 39.0752 214.217 39.0568C213.208 39.0018 212.327 39.5156 209.776 41.5892C208.418 42.6902 206.106 44.4518 204.638 45.4795C203.17 46.5071 201.482 47.7182 200.895 48.1586C196.766 51.2965 194.454 52.2141 190.123 52.5077C187.958 52.6545 186.6 52.838 186.398 53.0398C186.306 53.1316 185.792 54.5629 185.26 56.2695L185.26 56.1594ZM50.2196 199.164C50.5132 199.458 50.8435 199.861 50.9352 200.027C51.082 200.284 51.2839 200.302 51.9078 200.192C52.3482 200.118 53.8346 200.137 55.1925 200.247C56.5505 200.357 58.8259 200.54 60.2389 200.596C61.6519 200.687 64.3861 200.963 66.2945 201.256C70.8087 201.917 72.3685 201.972 76.5157 201.568C80.6812 201.183 83.7825 201.238 88.6637 201.752C90.7189 201.972 93.71 202.284 95.3616 202.431C97.8756 202.669 102.206 203.33 103.216 203.605C103.766 203.752 103.472 203.421 101.968 202.137C101.142 201.421 99.9859 200.375 99.417 199.806L98.371 198.76L85.4156 198.687C78.2957 198.65 67.3405 198.595 61.0646 198.595L49.6507 198.595L50.2012 199.146L50.2196 199.164ZM222.548 32.8911C222.401 33.2581 222.603 33.2764 223.888 33.1296C224.585 33.0562 225.117 32.9645 225.081 32.9278C225.044 32.8911 224.548 32.7626 223.961 32.6158C222.952 32.3773 222.75 32.4323 222.548 32.8911ZM204.436 53.7922C204.161 54.1042 203.317 55.2419 202.51 56.3062C201.262 57.9578 200.73 58.5633 198.84 60.3433C197.408 61.6645 196.399 62.7472 196.032 63.261C195.169 64.5272 192.545 70.7847 191.554 73.941C190.472 77.3725 189.829 78.8956 188.82 80.4554C187.866 81.8867 186.159 83.4832 183.902 84.9696C181.59 86.511 180.856 87.5753 179.37 91.484C177.957 95.2458 176.984 96.5487 174.287 98.3287C172.433 99.5581 172.342 99.6866 171.479 102.311C170.543 105.155 170.139 105.816 167.479 109.027C165.35 111.559 165.13 111.89 165.442 112.018C166.653 112.569 167.167 113.449 167.038 114.605L166.965 115.083C166.891 115.339 166.781 115.707 166.781 115.707C166.781 115.707 166.726 115.762 166.286 116.202C165.937 116.551 165.442 118.257 164.543 122.276C163.533 126.845 163.497 127.543 164.212 129.983C164.598 131.249 164.653 132.112 164.671 134.809C164.689 136.626 164.708 139.067 164.763 140.259C164.818 141.966 164.726 142.865 164.304 144.572C164.029 145.764 163.57 147.691 163.295 148.811C162.359 152.829 161.57 154.683 158.597 159.968C157.918 161.197 156.762 163.454 156.046 165.014C155.349 166.555 154.395 168.501 153.936 169.326C153.477 170.152 153.129 170.868 153.129 170.905C153.129 170.941 153.881 171.033 154.799 171.07C159.882 171.345 163.442 171.492 166.304 171.565C170.635 171.675 172.947 171.969 177.902 172.996C180.196 173.492 183.333 174.098 184.875 174.354C188.857 175.033 190.545 175.437 193.261 176.355C194.582 176.795 197.133 177.657 198.931 178.245C200.73 178.832 202.913 179.658 203.757 180.098C205.225 180.832 205.446 181.016 207.758 183.144C209.097 184.374 210.217 185.42 210.235 185.438C210.253 185.456 210.4 184.759 210.547 183.915C211.428 178.777 212.768 174.868 217.098 164.739C218.53 161.362 219.704 158.573 219.722 158.518C219.722 158.481 219.319 158.408 218.823 158.353C217.465 158.243 215.483 157.545 212.511 156.114C211.024 155.398 208.639 154.297 207.207 153.673C204.602 152.536 200.601 150.15 197.995 148.205C196.472 147.086 189.518 139.874 187.921 137.8C186.306 135.708 183.26 131.268 181.829 128.992C179.773 125.689 178.874 123.689 177.535 119.377C177.223 118.331 176.892 117.486 176.837 117.468C176.691 117.468 175.773 121.175 175.957 123.524C176.324 128.038 177.278 132.075 178.636 134.974C179.333 136.442 180.856 138.993 182.453 141.36C185.792 146.352 194.417 157.178 197.482 160.243L198.711 161.472L199.17 161.271C199.886 160.959 201.06 161.216 204.106 162.463C209.666 164.72 215.538 164.684 217.373 163.179C218.364 162.372 216.805 164.775 216.584 165.95C216.584 165.95 216.016 167.289 214.878 167.253C213.979 167.234 207.941 167.913 207.886 167.858C207.831 167.803 207.684 167.913 207.574 168.097C207.171 168.794 203.207 168.17 200.436 166.978C193.646 164.041 184.71 155.509 177.388 144.92C173.443 139.213 171.663 134.974 170.874 129.267C170.176 124.276 171.075 117.872 171.608 115.358C172.195 112.642 173.369 110.99 175.076 110.495C176.452 110.11 177.737 110.807 178.067 112.091C178.195 112.66 178.25 112.715 178.746 112.881C179.737 113.211 180.012 113.706 181.774 118.184C182.232 119.377 183.866 122.258 183.866 122.258C183.664 122.459 184.324 123.597 186.728 127.212C190.655 133.121 191.004 133.543 196.215 138.755L200.84 143.379L204.253 145.471C207.905 147.691 208.29 147.893 211.96 149.471C213.263 150.04 215.465 151.031 216.841 151.71C219.594 153.031 220.768 153.472 221.447 153.417C221.888 153.38 221.924 153.343 222.75 151.71C224.475 148.334 225.815 146.26 229.65 141.14C234.036 135.286 235.926 131.928 238.275 125.763C238.88 124.203 240.348 120.459 241.541 117.468C244.624 109.724 246.037 105.449 246.881 101.228C247.542 97.9617 247.798 96.4202 248.973 88.4928C249.964 81.9234 251.248 78.7304 254.423 74.9686C255.23 74.0144 255.377 73.7574 255.414 73.1702C255.432 72.7849 255.579 71.9041 255.707 71.2251C255.854 70.5278 256.001 69.0598 256.074 67.9587C256.203 65.8117 256.607 63.5363 257.212 61.7563C257.432 61.1324 257.598 60.4534 257.616 60.2516C257.634 60.0497 257.799 59.701 258.001 59.4625C258.607 58.7468 258.79 57.9027 258.644 56.8017C258.552 56.2328 258.607 55.2969 258.717 54.7097C258.9 53.9023 258.882 53.6271 258.68 53.5353C258.515 53.4803 257.047 52.0856 255.377 50.4524C253.726 48.8009 252.001 47.2595 251.579 46.9842C251.157 46.709 250.092 46.0116 249.23 45.4795C248.349 44.929 246.844 43.8646 245.817 43.1306C244.826 42.3966 242.77 40.9653 241.247 39.956C239.724 38.9467 237.669 37.5521 236.623 36.8364C235.192 35.8455 234.421 35.4418 233.357 35.0748C231.412 34.4142 231.228 34.3775 231.118 34.8546C230.971 35.4418 230.237 35.8455 228.494 36.3043C225.76 36.9832 224.145 37.6071 223.392 38.2127C222.989 38.543 221.943 39.7358 220.933 41.0754C219.52 42.8921 218.786 43.7362 217.337 45.0758C215.245 47.0209 213.979 47.8467 210.731 49.2597C209.666 49.7368 208.4 50.3423 207.941 50.6543C207.005 51.2231 205.17 52.838 204.4 53.7555L204.436 53.7922ZM125.108 140.828C124.007 144.718 123.364 146.095 121.089 149.508C120.116 150.958 119.621 152.554 118.777 156.811C117.969 160.922 117.657 161.821 116.538 163.564C116.079 164.28 115.437 165.326 115.162 165.895C114.593 167.014 113.528 170.354 113.657 170.593C113.712 170.684 114.519 170.648 115.455 170.556C117.474 170.336 121.529 170.354 130.393 170.703C133.861 170.831 137.457 170.941 138.357 170.923L140.008 170.923L139.311 170.226C137.659 168.574 137.751 165.656 139.641 158.518C141.476 151.545 141.531 149.508 139.953 145.838C139.146 143.929 138.045 142.388 136.411 140.755L135.072 139.415L133.677 139.709C130.998 140.259 127.126 139.874 126.209 138.956C126.007 138.755 125.787 138.608 125.75 138.681C125.695 138.736 125.401 139.727 125.071 140.865L125.108 140.828ZM86.6084 193.053C88.2416 193.109 90.462 193.164 91.563 193.2C92.6641 193.237 93.4531 193.182 93.3614 193.09C93.2696 192.998 93.0127 192.411 92.7925 191.824C92.5723 191.237 92.3888 190.723 92.3704 190.705C92.3521 190.686 91.1777 191.017 89.783 191.42C88.3701 191.842 86.4616 192.319 85.5074 192.503C84.5532 192.686 83.7641 192.852 83.7091 192.907C83.654 192.962 84.9569 193.017 86.5901 193.072L86.6084 193.053ZM142.339 137.837C145.183 141.085 147.422 145.563 147.917 148.994C148.321 151.747 147.88 155.417 146.669 159.674C146.027 161.858 144.284 166.978 143.752 168.17C143.531 168.684 143.476 169.07 143.586 169.326C143.752 169.675 143.715 169.748 143.128 170.262L142.485 170.794L144.908 170.794C146.229 170.794 147.385 170.739 147.422 170.666C147.477 170.611 147.679 169.895 147.88 169.143C149.972 161.289 151.349 157.49 153.514 153.527C154.89 151.013 155.349 149.6 156.395 145.104C157.147 141.856 157.258 141.048 157.221 139.507C157.147 137.268 157.129 135.929 157.202 134.351C157.239 133.58 157.111 132.607 156.854 131.763C156.634 131.029 156.377 129.891 156.285 129.286C156.193 128.68 156.101 128.185 156.065 128.185C156.065 128.185 155.404 128.625 154.67 129.176C152.798 130.57 151.569 131.176 148.688 132.185C146.816 132.846 145.935 133.25 145.238 133.763C143.054 135.397 141.641 136.406 141.439 136.498C141.293 136.571 141.55 136.938 142.375 137.874L142.339 137.837ZM112.024 176.153C111.583 177.511 111.271 178.667 111.326 178.759C111.4 178.832 111.95 178.832 112.574 178.722C114.189 178.465 125.787 178.318 128.778 178.483C133.677 178.795 137.476 179.291 144.889 180.575C147.201 180.979 151.459 181.603 154.358 182.007C165.809 183.511 170.745 184.41 178.948 186.484C188.288 188.851 191.463 189.861 195.096 191.696C201.023 194.687 204.565 197.641 206.161 200.926C206.4 201.421 206.657 201.825 206.712 201.807C206.895 201.807 208.18 198.981 208.639 197.568C209.134 196.045 209.519 193.934 209.593 192.356L209.648 191.273L206.253 187.879L202.877 184.465L201.464 183.75C200.693 183.346 198.931 182.686 197.573 182.245C196.215 181.805 193.867 181.034 192.38 180.538C189.132 179.419 188.233 179.217 183.664 178.465C181.719 178.135 179.168 177.639 178.012 177.364C171.461 175.804 169.204 175.492 165.478 175.584C162.689 175.657 158.67 175.492 154.303 175.162C149.844 174.813 146.761 174.74 143.807 174.868C138.907 175.107 129.145 174.703 120.025 173.877C118.667 173.767 116.465 173.657 115.162 173.675L112.758 173.694L111.987 176.153L112.024 176.153ZM110.592 184.41C110.464 185.383 110.317 186.631 110.299 187.2L110.225 188.264L113.345 191.017C115.052 192.54 117.896 195.164 119.676 196.87C125.364 202.302 135.365 211.422 135.641 211.441C135.641 211.441 135.769 211.202 135.861 210.927C136.118 210.083 137.09 209.587 138.65 209.495C139.091 209.459 140.852 209.569 142.559 209.734C144.265 209.899 147.66 210.064 150.119 210.101C154.413 210.174 157.79 210.541 161.515 211.294C165.148 212.028 168.176 212.303 173.461 212.376C178.819 212.45 182.122 212.67 185.554 213.166C190.674 213.918 196.381 214.156 199.445 213.734L200.583 213.588L201.39 211.606C202.803 208.174 203.06 207.22 203.06 205.532C203.06 202.779 202.271 201.256 199.574 198.779C197.904 197.256 195.665 195.861 193.151 194.742C190.692 193.677 189.224 193.274 182.508 191.806C180.544 191.384 177.425 190.686 175.553 190.246C169.736 188.906 163.607 187.805 153.991 186.374C151.385 185.97 147.624 185.365 145.623 185.016C140.834 184.154 138.045 183.75 133.42 183.309C128.117 182.777 126.392 182.704 118.098 182.667L110.831 182.63L110.592 184.374L110.592 184.41ZM111.308 186.741C111.326 187.2 111.437 187.42 112.005 187.952C112.849 188.759 114.171 189.237 117.933 190.136C121.786 191.053 124.777 191.439 128.668 191.549C135.916 191.714 141.348 192.118 144.449 192.65C150.908 193.788 169.938 198.32 174.268 199.751C175.149 200.045 177.003 200.761 178.434 201.348C179.828 201.935 182.269 202.834 183.866 203.33C186.673 204.229 187.15 204.449 187.059 204.798C186.985 205.091 180.856 205.201 176.782 204.981C172.342 204.724 170.305 204.559 168.525 204.247C167.369 204.045 167.314 204.027 167.589 203.788C168.341 203.146 168.506 202.871 168.268 202.632C168.139 202.504 167.258 202.174 166.323 201.935C165.387 201.697 163.588 201.146 162.304 200.742C156.579 198.944 155.331 198.65 147.513 197.366C144.577 196.889 140.907 196.265 139.384 195.99C130.172 194.375 121.254 193.31 120.08 193.677C119.437 193.879 119.015 194.522 119.107 195.09C119.199 195.623 119.749 196.173 120.098 196.081C120.245 196.045 120.63 196.1 120.96 196.21C121.291 196.32 122.208 196.54 122.979 196.687C124.575 196.999 124.722 197.072 124.098 197.182C123.034 197.366 122.557 198.687 123.217 199.641C123.695 200.339 124.594 200.797 127.016 201.568C129.769 202.449 131.879 202.871 137.623 203.733C140.173 204.119 143.88 204.706 145.844 205.055C147.844 205.403 150.927 205.88 152.725 206.101C157.588 206.743 159.882 207.128 163.497 207.954C170.158 209.44 171.626 209.624 175.663 209.44C176.856 209.385 179.829 209.459 182.251 209.606C188.618 209.991 190.619 209.789 191.848 208.596C193.041 207.403 193.078 206.376 191.995 203.715C191.463 202.412 191.114 201.77 190.527 201.109C189.573 200.008 188.967 199.696 185.572 198.467C184.196 197.971 181.957 197.091 180.618 196.522C179.26 195.935 177.37 195.182 176.415 194.852C174.452 194.173 165.258 191.622 162.102 190.888C160.946 190.613 157.496 189.769 154.45 188.998C145.844 186.814 143.531 186.411 138.558 186.172C136.907 186.099 133.182 185.897 130.319 185.75C127.456 185.603 123.933 185.493 122.502 185.493C121.07 185.493 118.96 185.401 117.786 185.291C116.63 185.163 115.143 185.071 114.483 185.071C112.482 185.053 111.345 185.677 111.381 186.778L111.308 186.741ZM127.511 197.806C127.768 198.063 137.935 199.605 138.118 199.421C138.191 199.348 137.935 199.311 132.338 198.412C127.273 197.604 127.31 197.604 127.511 197.806ZM263.763 66.3255L263.8 66.8026L263.837 66.3255C263.873 65.8851 263.837 65.7016 263.745 65.7934C263.727 65.8117 263.708 66.0503 263.745 66.3072L263.763 66.3255ZM138.558 214.211C138.558 214.211 138.724 214.267 138.797 214.193C138.87 214.12 138.834 214.046 138.742 214.028C138.632 213.991 138.54 214.01 138.503 214.046C138.467 214.083 138.503 214.156 138.558 214.211Z" fill="white"/>
<path fill-rule="evenodd" clip-rule="evenodd" d="M65.726 150.188C65.2856 150.739 64.4415 151.84 63.891 152.61C63.3221 153.399 62.5514 154.354 62.1844 154.721C61.1017 155.803 60.8631 156.702 61.432 157.602C62.3495 159.07 64.5883 158.739 66.5151 156.849C67.0105 156.354 67.4326 155.968 67.451 155.987C67.4693 156.005 67.3408 157.198 67.1757 158.648C66.5701 163.767 66.5885 164.85 67.3042 165.566C67.6161 165.878 67.8547 165.969 68.3318 165.969C68.919 165.969 68.9924 165.933 69.3961 165.419C70.0384 164.556 70.4604 163.18 71.1761 159.712C72.0386 155.4 72.3138 154.427 73.3965 151.142C73.9653 149.399 74.3507 147.986 74.3691 147.454C74.4241 146.004 73.6167 145.013 72.3138 144.922C71.4513 144.866 71.0843 145.087 69.341 146.536C67.7262 147.894 66.9188 148.702 65.726 150.151L65.726 150.188ZM76.461 151.821C75.6352 154.445 74.6443 160.758 74.8462 162.244C74.9563 163.088 75.415 163.988 76.1123 164.722C76.9381 165.547 77.929 165.841 79.0301 165.547C79.7641 165.364 79.8742 165.29 80.9752 164.153C83.3241 161.804 84.6086 159.015 85.0674 155.29C85.6179 150.996 84.6086 148.335 82.4065 148.261C81.2688 148.225 80.2228 149.05 79.5989 150.408C79.5072 150.61 79.4338 150.573 79.1952 150.225C78.9383 149.858 78.7732 149.803 78.2593 149.803C77.3602 149.821 76.9014 150.317 76.4243 151.821L76.461 151.821ZM79.6907 156.189C79.1952 157.088 79.0668 157.473 79.0668 158.06L79.0668 158.794L79.3053 158.409C79.5989 157.969 80.2412 156.042 80.3329 155.4C80.3696 155.143 80.3696 154.959 80.3329 154.996C80.2962 155.033 80.0026 155.546 79.654 156.189L79.6907 156.189ZM87.7098 152.757C87.5814 153.289 87.1593 154.739 86.7923 155.95C86.4253 157.161 86.0583 158.593 85.9849 159.143C85.6913 161.345 86.1133 165.07 86.8657 167.107C87.4896 168.795 88.8842 169.529 90.4257 169.016C91.5267 168.649 91.9671 168.171 93.4351 165.713C95.3619 162.538 96.0592 160.776 96.7015 157.492C97.5823 153.051 97.2887 150.775 95.7289 149.95C94.5912 149.326 93.2149 149.748 91.802 151.161L91.1964 151.766L90.9395 151.436C90.5908 150.977 89.7651 150.702 89.1778 150.849C88.3888 151.051 87.93 151.656 87.6548 152.775L87.7098 152.757ZM90.8294 157.345C90.5541 159.492 90.5358 159.73 90.6642 159.602C90.811 159.455 91.912 156.115 92.0222 155.491L92.0956 155.051L91.7653 155.381C91.5817 155.565 91.3615 155.748 91.2331 155.803C91.1046 155.858 90.9395 156.501 90.8294 157.345Z" fill="white"/>
</g>
<defs>
<clipPath id="clip0_32_734">
<rect width="290" height="240" fill="white"/>
</clipPath>
</defs>
</svg>
