<svg width="50" height="50" viewBox="0 0 50 50" fill="none" xmlns="http://www.w3.org/2000/svg">
<path d="M37.4514 12.4227C35.2241 10.9705 33.6166 8.64702 33.1152 5.93846C33.0068 5.35326 32.9473 4.75099 32.9473 4.13477H25.8389L25.8275 32.6229C25.708 35.813 23.0824 38.3735 19.8636 38.3735C18.8631 38.3735 17.9212 38.1234 17.0918 37.6869C15.1898 36.6861 13.8882 34.6924 13.8882 32.3982C13.8882 29.1033 16.5689 26.4226 19.8636 26.4226C20.4786 26.4226 21.0686 26.5241 21.6267 26.6989V19.442C21.0491 19.3633 20.4623 19.3142 19.8636 19.3142C12.649 19.3142 6.77979 25.1837 6.77979 32.3982C6.77979 36.8247 8.99135 40.7419 12.3653 43.1106C14.4905 44.6026 17.0756 45.4819 19.8636 45.4819C27.0781 45.4819 32.9473 39.6128 32.9473 32.3982V17.9523C35.7353 19.9534 39.1511 21.1326 42.8369 21.1326V14.0242C40.8515 14.0242 39.0023 13.4339 37.4514 12.4227" fill="white"/>
</svg>
