<svg width="51" height="50" viewBox="0 0 51 50" fill="none" xmlns="http://www.w3.org/2000/svg">
<path d="M42.038 16.3735C42.0632 16.738 42.0632 17.1025 42.0632 17.4703C42.0632 28.6793 33.5301 41.6067 17.9268 41.6067V41.6C13.3176 41.6067 8.80406 40.2864 4.92383 37.7971C5.59405 37.8777 6.26763 37.918 6.94289 37.9197C10.7627 37.923 14.4732 36.6414 17.4783 34.2813C13.8484 34.2125 10.6652 31.8457 9.55323 28.3904C10.8248 28.6357 12.135 28.5853 13.3831 28.2443C9.42557 27.4447 6.57839 23.9676 6.57839 19.9295C6.57839 19.8925 6.57839 19.8573 6.57839 19.822C7.75757 20.4788 9.07786 20.8433 10.4284 20.8836C6.70101 18.3925 5.55206 13.4339 7.80293 9.55702C12.1098 14.8566 18.4643 18.0784 25.2858 18.4194C24.6022 15.4731 25.5361 12.3857 27.7399 10.3146C31.1566 7.10289 36.5301 7.26751 39.7418 10.6825C41.6416 10.3079 43.4624 9.61077 45.1288 8.62307C44.4955 10.5867 43.1702 12.2547 41.3997 13.3146C43.0811 13.1164 44.7239 12.6662 46.271 11.9792C45.1321 13.6859 43.6976 15.1724 42.038 16.3735Z" fill="white"/>
</svg>
